<svg id="Слой_1" xmlns="http://www.w3.org/2000/svg" viewBox="0 0 28.7476044 22.959341"><style>.st0{fill:url(#SVGID_1_)}.st0,.st1,.st2,.st3{fill-rule:evenodd;clip-rule:evenodd}.st1{fill:url(#SVGID_2_)}.st2{fill:url(#SVGID_3_)}.st3{fill:url(#SVGID_4_)}</style><radialGradient id="SVGID_1_" cx="7.185" cy="13.82" r="4.159" gradientUnits="userSpaceOnUse"><stop offset=".574" stop-color="#171718"/><stop offset=".798" stop-color="#171718"/><stop offset="1" stop-color="#171718"/></radialGradient><path class="st0" d="M11.126 16.528l-5.78-2.676v-.032l5.78-2.693V9.453L3.244 13.31v1.017l7.882 3.859z"/><radialGradient id="SVGID_2_" cx="14.341" cy="12.917" r="4.584" gradientUnits="userSpaceOnUse"><stop offset=".574" stop-color="#171718"/><stop offset=".798" stop-color="#171718"/><stop offset="1" stop-color="#171718"/></radialGradient><path class="st1" d="M16.966 6.99h-1.395l-3.856 11.854h1.395z"/><radialGradient id="SVGID_3_" cx="21.555" cy="13.82" r="4.163" gradientUnits="userSpaceOnUse"><stop offset=".574" stop-color="#171718"/><stop offset=".798" stop-color="#171718"/><stop offset="1" stop-color="#171718"/></radialGradient><path class="st2" d="M25.503 13.097l-7.896-3.644v1.625l6.304 2.725v.033l-6.304 2.725v1.626l7.896-3.644z"/><radialGradient id="SVGID_4_" cx="14.374" cy="11.48" r="13.007" gradientUnits="userSpaceOnUse"><stop offset=".574" stop-color="#171718"/><stop offset=".798" stop-color="#171718"/><stop offset="1" stop-color="#171718"/></radialGradient><path class="st3" d="M0 0v22.96h28.748V0H0zm25 1.344h2.043v2.043H25V1.344zm-3.36 0h2.041v2.043H21.64V1.344zm-3.561 0h2.043v2.043h-2.043V1.344zM27.26 21.36H1.486V5.284H27.26V21.36z"/></svg>