<svg height="20" width="20" xmlns="http://www.w3.org/2000/svg" viewBox="0 0 20 20"><path fill-rule="evenodd" d="M19.69 9.26h-9.23a.31.31 0 0 1-.22-.09L3.72 2.66a.281.281 0 0 1-.09-.23c0-.09.04-.17.11-.22C5.52.79 7.75 0 10.03 0c2.49 0 4.88.91 6.71 2.55A9.969 9.969 0 0 1 20 8.92c.01.09-.02.18-.08.24a.29.29 0 0 1-.23.1zM7.12 2.11c-.4.15-.79.32-1.17.53l.58.58.84-1.2c-.08.03-.17.06-.25.09zm2.91-.51c-.3 0-.59.01-.89.04L7.42 4.1l.69.69 2.16-3.19h-.24zm1.62.15L9 5.68l.65.65 2.9-4.35c-.3-.09-.6-.17-.9-.23zm2.07.69l-3.18 4.77.46.46h.26l3.21-4.81c-.24-.16-.5-.29-.75-.42zm2 1.36l-.25-.22-2.73 4.09h1l2.34-3.51a6.11 6.11 0 0 0-.36-.36zm1.19 1.34l-1.69 2.53h.62l1.4-2.03c-.11-.17-.22-.34-.33-.5zm.95 1.76l-.53.77h.8c-.08-.26-.17-.52-.27-.77zm-8.89 3.42l-4.63 7.5c-.05.08-.12.13-.21.14-.02.01-.04.01-.06.01a.3.3 0 0 1-.18-.06A9.932 9.932 0 0 1 0 10c0-2.27.79-4.5 2.22-6.27.05-.07.13-.11.22-.11.09-.01.17.02.23.09l6.25 6.23c.1.1.12.25.05.38zM2.65 5.94c-.21.37-.39.76-.54 1.16-.34.93-.51 1.9-.51 2.9 0 1.34.31 2.62.91 3.81.34.67.77 1.29 1.29 1.85l3.27-5.31-4.42-4.41zm7.7 4.94c.06-.09.16-.14.26-.14h9.08c.09 0 .17.03.23.1.06.06.09.15.08.24a9.969 9.969 0 0 1-3.26 6.37A10.049 10.049 0 0 1 10.03 20c-1.51 0-2.96-.33-4.31-.97a.259.259 0 0 1-.16-.19.29.29 0 0 1 .03-.24l4.76-7.72z"/></svg>