<svg preserveAspectRatio="xMinYMid" xmlns="http://www.w3.org/2000/svg" viewBox="-413.2 475.4 28.4 24.9"><path d="M-399 500c-3.3 0-6.3-1.3-8.5-3.5-2.1-2-3.4-4.8-3.5-7.9l-1 1-1-1 2-2 .7-.7.7.7 2 2-1 1-.9-.9c.3 5.6 4.9 10 10.6 10h.7v1.4l-.8-.1zm-.7-24v1.4h.7c5.7 0 10.3 4.4 10.6 10l-.9-.9-1 1 2 2 .7.7.7-.7 2-2-1-1-1 1c-.1-3.1-1.5-5.9-3.5-7.9-2.2-2.2-5.2-3.5-8.5-3.5h-.8zm2.2 13.6c.9-.9.9-2.2 0-3.1-.9-.9-2.2-.9-3.1 0-.9.9-.9 2.2 0 3.1.9.8 2.3.8 3.1 0zm-2.2-8.9h1.3c.3 0 .5.2.5.5v1.1c.7.1 1.5.4 2.1.9l.8-.8c.2-.2.5-.2.7 0l.9.9c.2.2.2.5 0 .7l-.8.8c.4.7.7 1.4.9 2.1h1.1c.3 0 .5.2.5.5v1.3c0 .3-.2.5-.5.5h-1.1c-.1.7-.4 1.5-.9 2.1l.8.8c.2.2.2.5 0 .7l-.9.9c-.2.2-.5.2-.7 0l-.8-.8c-.7.4-1.4.7-2.1.9v1.1c0 .3-.2.5-.5.5h-1.3c-.3 0-.5-.2-.5-.5v-1.1c-.7-.1-1.5-.4-2.1-.9l-.8.8c-.2.2-.5.2-.7 0l-.9-.9c-.2-.2-.2-.5 0-.7l.8-.8c-.4-.7-.7-1.4-.9-2.1h-1.1c-.3 0-.5-.2-.5-.5v-1.3c0-.3.2-.5.5-.5h1.1c.1-.7.4-1.5.9-2.1l-.8-.8c-.2-.2-.2-.5 0-.7l.9-.9c.2-.2.5-.2.7 0l.8.8c.7-.4 1.4-.7 2.1-.9v-1.1c.1-.3.3-.5.5-.5zm-1.7 4.9c-1.3 1.3-1.3 3.5 0 4.8 1.3 1.3 3.5 1.3 4.8 0 1.3-1.3 1.3-3.5 0-4.8-1.3-1.3-3.5-1.3-4.8 0z"/></svg>