<svg id="Слой_1" xmlns="http://www.w3.org/2000/svg" viewBox="0 0 40.6344948 29.3263798"><style>.st0{fill:url(#SVGID_1_)}.st1{fill:url(#SVGID_2_)}.st2{fill:url(#SVGID_3_)}.st3{fill:url(#SVGID_4_)}.st4{fill:url(#SVGID_5_)}</style><radialGradient id="SVGID_1_" cx="31.419" cy="15.202" r="11.925" gradientUnits="userSpaceOnUse"><stop offset=".574" stop-color="#171718"/><stop offset=".798" stop-color="#171718"/><stop offset="1" stop-color="#171718"/></radialGradient><path class="st0" d="M39.848 1.361s-2.592-.52-4.142-.153c-.859.117-1.078.746-1.078.746C34.13 3.34 38.23 8.356 31.76 12.33a6.744 6.744 0 0 1-1.906.363l2.056-3.55s.655-.976-.158-1.444l-2.03-1.178s-.977-.651-1.601.428l-5.917 10.215v12.163h8.66V22.18s6.162-5.647 7.57-8.081c0 0 3.798-5.934 1.414-12.737z"/><radialGradient id="SVGID_2_" cx="9.215" cy="15.202" r="11.925" gradientUnits="userSpaceOnUse"><stop offset=".574" stop-color="#171718"/><stop offset=".798" stop-color="#171718"/><stop offset="1" stop-color="#171718"/></radialGradient><path class="st1" d="M10.912 6.52l-2.03 1.178c-.812.468-.157 1.444-.157 1.444l2.056 3.55a6.743 6.743 0 0 1-1.906-.363c-6.47-3.973-2.37-8.99-2.868-10.375 0 0-.22-.629-1.079-.746-1.55-.367-4.142.153-4.142.153C-1.598 8.164 2.2 14.098 2.2 14.098c1.41 2.434 7.57 8.08 7.57 8.08v7.148h8.661V17.163L12.514 6.948c-.625-1.08-1.602-.428-1.602-.428z"/><radialGradient id="SVGID_3_" cx="23.386" cy="6.369" r="3.26" gradientUnits="userSpaceOnUse"><stop offset=".574" stop-color="#171718"/><stop offset=".798" stop-color="#171718"/><stop offset="1" stop-color="#171718"/></radialGradient><path class="st2" d="M25.825 2.457l-4.88 1.964v5.86l4.88-1.962z"/><radialGradient id="SVGID_4_" cx="17.933" cy="6.369" r="3.261" gradientUnits="userSpaceOnUse"><stop offset=".574" stop-color="#171718"/><stop offset=".798" stop-color="#171718"/><stop offset="1" stop-color="#171718"/></radialGradient><path class="st3" d="M15.493 8.32l4.88 1.962V4.42l-4.88-1.964z"/><radialGradient id="SVGID_5_" cx="20.746" cy="1.959" r="3.761" gradientUnits="userSpaceOnUse"><stop offset=".574" stop-color="#171718"/><stop offset=".798" stop-color="#171718"/><stop offset="1" stop-color="#171718"/></radialGradient><path class="st4" d="M20.68 0l-4.879 1.964 4.817 1.955 5.073-1.963z"/></svg>