<svg height="16" width="26" xmlns="http://www.w3.org/2000/svg" viewBox="0 0 26 16"><path fill-rule="evenodd" d="M12.69 16H1.46C.65 16 0 15.34 0 14.53V1.47C0 .66.65 0 1.46 0h18.89c.8 0 1.46.66 1.46 1.47v2.05c0 .81-.66 1.47-1.46 1.47-.81 0-1.46-.66-1.46-1.47v-.59H2.92v10.14h9.77c.8 0 1.45.65 1.45 1.46 0 .81-.65 1.47-1.45 1.47zM26 14.53c0-.81-.65-1.46-1.46-1.46h-8.39c-.8 0-1.46.65-1.46 1.46 0 .81.66 1.47 1.46 1.47h8.39c.81 0 1.46-.66 1.46-1.47zm0-3.67c0-.81-.65-1.47-1.46-1.47h-8.39a1.47 1.47 0 0 0 0 2.94h8.39c.81 0 1.46-.66 1.46-1.47zm0-3.68c0-.81-.65-1.46-1.46-1.46h-8.39c-.8 0-1.46.65-1.46 1.46 0 .81.66 1.47 1.46 1.47h8.39c.81 0 1.46-.66 1.46-1.47zm-16.68.13c-1.2-.31-1.5-.46-1.5-.92v-.02c0-.34.31-.61.89-.61.48 0 .96.17 1.47.47.12.07.24.11.39.11.4 0 .72-.31.72-.71 0-.3-.17-.51-.34-.61a3.94 3.94 0 0 0-1.49-.56v-.53c0-.36-.29-.67-.66-.67-.37 0-.66.31-.66.67v.52c-1.11.21-1.85.98-1.85 2.06v.02c0 1.39.91 1.78 2.32 2.14 1.16.31 1.4.5 1.4.9v.02c0 .41-.38.66-1.01.66-.67 0-1.25-.24-1.78-.63a.74.74 0 0 0-.44-.14c-.4 0-.72.31-.72.71 0 .24.12.46.29.58.54.39 1.16.63 1.79.75v.56a.66.66 0 1 0 1.32 0v-.5c1.24-.16 2.07-.91 2.07-2.14v-.03c0-1.22-.79-1.73-2.21-2.1z"/></svg>