<svg preserveAspectRatio="xMinYMid" xmlns="http://www.w3.org/2000/svg" viewBox="-490 492.1 17.8 17.9"><path d="M-472.2 499.5c0 .3-.1.6-.3.8-3.1 3.1-6.2 6.3-9.4 9.4-.5.5-.9.5-1.4 0l-6.3-6.3c-.6-.6-.6-1 0-1.6l9.2-9.2c.3-.3.7-.4 1.1-.4 2 0 4 .1 6 .1.6 0 .9.3 1 .9 0 1 .2 5.2.1 6.3zm-1.7-5.6c-.1 0-.2-.1-.2-.1-1.6 0-3.3-.1-4.9-.1-.2 0-.3.1-.5.2l-6.5 6.5c-.6.6-1.3 1.3-2 1.9l5.5 5.5 8.5-8.5c.1-.1.2-.3.1-.4 0-1.3-.1-2.6-.1-3.9.1-.3.1-.7.1-1.1zm-2.6 3.8c-.6 0-1.2-.5-1.2-1.2s.5-1.2 1.2-1.2 1.2.5 1.2 1.2c0 .6-.5 1.2-1.2 1.2z"/></svg>