<svg id="Слой_1" xmlns="http://www.w3.org/2000/svg" viewBox="0 0 25.9662838 25.964323"><style>.st0{fill:url(#SVGID_1_)}</style><radialGradient id="SVGID_1_" cx="12.983" cy="12.982" r="12.983" gradientUnits="userSpaceOnUse"><stop offset=".574" stop-color="#171718"/><stop offset=".798" stop-color="#171718"/><stop offset="1" stop-color="#171718"/></radialGradient><path class="st0" d="M21.42 8.44c-1.074-1.077-.898 1.273-1.975 2.352l-.005.002a2.751 2.751 0 1 1-3.891-3.892v-.007c1.05-1.05 3.5-.828 2.424-1.903L12.983 0 8.39 4.592C7.317 5.67 7.536 3.22 6.484 2.168h-.008a2.75 2.75 0 0 0-3.888 0 2.75 2.75 0 0 0-.002 3.89l.004.006c1.076 1.075 3.427.904 2.353 1.979L0 12.984l5.215 5.214c.893.891.748-1.063 1.645-1.959l.004-.002a2.286 2.286 0 0 1 3.237 0 2.288 2.288 0 0 1 0 3.237v.01c-.877.874-2.914.686-2.018 1.582l4.9 4.898 12.983-12.98L21.42 8.44z"/></svg>