<svg preserveAspectRatio="xMinYMid" xmlns="http://www.w3.org/2000/svg" viewBox="-437.5 480.9 21.2 22"><path d="M-421 486.1c-.5-.5-.5-1.3 0-1.8l1.2-1.2c.1-.1.1-.3-.1-.4-1.1-.3-2.5 0-3.4.9-1 1-1.2 2.4-.8 3.6 0 .1 0 .2-.1.3l-7.4 7.4c-.1.1-.2.1-.3.1-1.2-.5-2.6-.2-3.6.8-.9.9-1.2 2.2-.9 3.4.1.2.3.2.4.1l1.2-1.2c.5-.5 1.3-.5 1.8 0s.5 1.3 0 1.8l-1.2 1.2c-.1.1-.1.4.1.4 1.1.3 2.5.1 3.4-.9 1-1 1.2-2.4.8-3.6 0-.1 0-.2.1-.3l7.4-7.4c.1-.1.2-.1.3-.1 1.2.5 2.6.2 3.6-.8.9-.9 1.2-2.2.9-3.4-.1-.2-.3-.2-.4-.1l-1.2 1.1c-.5.6-1.3.6-1.8.1z"/><path d="M-429.8 491.5l2.3-2.3c.1-.1.1-.4 0-.5l-5.6-5.6c-.7-.7-2-.8-2.8-.1-.8.7-.8 2-.1 2.8l5.6 5.6c.2.2.5.2.6.1zm11.3 7.5c-.1-.1-.1-.1-.2-.1l-1-.5-.1-.1-4.8-4.8c-.1-.1-.4-.1-.5 0l-.6.6c-.1.1-.1.4 0 .5l4.8 4.8.1.1.5 1c0 .1.1.1.1.2l1.3.9c.2.1.4.1.5-.1l.6-.6c.1-.1.2-.4.1-.5l-.8-1.4z"/></svg>