<svg id="Слой_1" xmlns="http://www.w3.org/2000/svg" viewBox="0 0 33.1713867 33.0111237"><style>.st0{fill:url(#SVGID_1_)}.st1{fill:url(#SVGID_2_)}.st2{fill:url(#SVGID_3_)}</style><radialGradient id="SVGID_1_" cx="25.338" cy="20.449" r="10.468" gradientUnits="userSpaceOnUse"><stop offset=".574" stop-color="#171718"/><stop offset=".798" stop-color="#171718"/><stop offset="1" stop-color="#171718"/></radialGradient><path class="st0" d="M17.505 14.19v18.821l15.666-6.308V7.888L17.505 14.19zM32.12 9.443v16.322L18.556 20.25V14.9L32.12 9.442zM18.556 21.017l12.9 5.246-12.9 5.191V21.017z"/><radialGradient id="SVGID_2_" cx="7.833" cy="20.449" r="10.468" gradientUnits="userSpaceOnUse"><stop offset=".574" stop-color="#171718"/><stop offset=".798" stop-color="#171718"/><stop offset="1" stop-color="#171718"/></radialGradient><path class="st1" d="M0 26.703l15.667 6.308v-18.82L0 7.887v18.815zm2.198-.247l12.418-5.465v10.463L2.198 26.456zM1.05 9.443L14.616 14.9v5.317l-13.337 5.87-.228-.092V9.443z"/><radialGradient id="SVGID_3_" cx="16.864" cy="6.292" r="12.077" gradientUnits="userSpaceOnUse"><stop offset=".574" stop-color="#171718"/><stop offset=".798" stop-color="#171718"/><stop offset="1" stop-color="#171718"/></radialGradient><path class="st2" d="M16.653 0L.986 6.305l15.468 6.28L32.741 6.28 16.653 0zm.012 1.133l13.177 5.143-13.177 5.1V1.134zm-.709.28v9.837L3.791 6.309l12.165-4.895z"/></svg>