<svg id="Слой_1" xmlns="http://www.w3.org/2000/svg" viewBox="0 0 34.1077347 30.1706333"><style>.st0{fill:url(#SVGID_1_)}</style><radialGradient id="SVGID_1_" cx="17.054" cy="15.085" r="16.1" gradientUnits="userSpaceOnUse"><stop offset=".574" stop-color="#171718"/><stop offset=".798" stop-color="#171718"/><stop offset="1" stop-color="#171718"/></radialGradient><path class="st0" d="M33.792 3.782L30.753.742a1.078 1.078 0 0 0-1.526 0c-.248.246-.332.58-.29.9-.227 0-.448.089-.643.234l-.02-.021-7.875 7.87a3.022 3.022 0 0 1-.492 1.999l.829.837.02-.018.077.08-1.734 1.736-5.706-5.7a6.83 6.83 0 0 0-1.742-6.665A6.823 6.823 0 0 0 5.037.239l3.867 3.863-1.016 3.784L4.098 8.9.238 5.038a6.817 6.817 0 0 0 1.76 6.61 6.83 6.83 0 0 0 6.951 1.66l.02.02 5.583 5.58L9.24 24.22l-.288-.284-1.49 1.2-2.513 3.968.642.642 3.963-2.514 1.206-1.491-.288-.285 5.312-5.312 9.08 9.082a3.225 3.225 0 0 0 2.28.946 3.223 3.223 0 0 0 2.278-5.5l-9.088-9.078 1.706-1.705.746.758a3.009 3.009 0 0 1 2.021-.513l7.764-7.762.11-.11-.02-.02a1.08 1.08 0 0 0 .23-.644c.323.042.654-.043.901-.289.42-.421.42-1.105 0-1.526zm-6.37 22.443a1.23 1.23 0 1 1 0 2.46c-.677 0-1.226-.55-1.226-1.23 0-.681.549-1.23 1.226-1.23zM23.01 10.153l-.509-.507 5.836-5.835.506.507-5.833 5.835zm1.9 1.903l-.507-.508 5.835-5.834.508.507-5.836 5.835z"/></svg>