<svg xmlns="http://www.w3.org/2000/svg" viewBox="-410 478 21.6 19.9" preserveAspectRatio="xMinYMid"><path d="M-389.8 481.9h-5.8v-2.2c0-.7-.6-1.2-1.2-1.2h-4.8c-.7 0-1.2.5-1.2 1.2v2.2h-5.5c-.7 0-1.2.5-1.2 1.2v13.2c0 .7.6 1.2 1.2 1.2h18.5c.7 0 1.2-.5 1.2-1.2v-13.2c.1-.6-.5-1.2-1.2-1.2zm-10.4-1h2.2v1h-2.2v-1zm9.2 14.2h-16v-10.7h16v10.7z"/><path d="M-397.8 487.3c0-.7-.6-1.2-1.2-1.2-.7 0-1.2.5-1.2 1.2v1.2h-1.2c-.7 0-1.2.5-1.2 1.2s.6 1.2 1.2 1.2h1.2v1.2c0 .7.6 1.2 1.2 1.2.7 0 1.2-.5 1.2-1.2v-1.2h1.2c.7 0 1.2-.5 1.2-1.2s-.6-1.2-1.2-1.2h-1.2v-1.2z"/></svg>