<svg id="Слой_1" xmlns="http://www.w3.org/2000/svg" viewBox="0 0 33.422226 37.2507095"><style>.st0{fill:url(#SVGID_1_)}.st1{fill:url(#SVGID_2_)}.st2{fill:url(#SVGID_3_)}.st3{fill:url(#SVGID_4_)}.st4{fill:url(#SVGID_5_)}.st5{fill:url(#SVGID_6_)}</style><radialGradient id="SVGID_1_" cx="16.573" cy="28.596" r="10.977" gradientUnits="userSpaceOnUse"><stop offset=".574" stop-color="#171718"/><stop offset=".798" stop-color="#171718"/><stop offset="1" stop-color="#171718"/></radialGradient><path class="st0" d="M22.7 21.526c-2.251-.79-2.268-1.585-2.268-1.585-4.428 8.729-7.79.024-7.79.024-.306 1.178-4.864 2.562-4.864 2.562-1.33.512-1.894 1.278-1.894 1.278-1.969 2.918-2.199 9.42-2.199 9.42.026 1.483.665 1.638.665 1.638 4.53 2.021 11.633 2.38 11.633 2.38 7.294.153 12.604-2.073 12.604-2.073.771-.486.793-.871.793-.871.538-4.657-1.766-9.903-1.766-9.903-.693-1.539-4.914-2.87-4.914-2.87z"/><radialGradient id="SVGID_2_" cx="16.673" cy="12.395" r="7.365" gradientUnits="userSpaceOnUse"><stop offset=".574" stop-color="#171718"/><stop offset=".798" stop-color="#171718"/><stop offset="1" stop-color="#171718"/></radialGradient><path class="st1" d="M11.527 15.33c.338 2.806 2.753 5.716 4.944 5.716 2.517 0 4.91-3.06 5.284-5.715.141-.101.374-.345.459-.9 0 0 .539-1.924-.173-1.716.249-.744 1.071-3.634-.525-5.43 0 0-.746-1.02-2.562-1.558a2.432 2.432 0 0 0-.202-.16s.04.047.099.127c-.103-.028-.212-.054-.321-.08a5.516 5.516 0 0 0-.335-.321s.11.11.243.3c-.05-.012-.096-.024-.145-.032a2.773 2.773 0 0 0-.31-.39s.054.104.124.263c-.335-.244-1.007-.815-1.007-1.45 0 0-.42.198-.666.557a1.72 1.72 0 0 1 .523-.797s-.277.141-.531.448c-.198.113-.652.423-.804.972l-.143-.073c.07-.153.17-.32.304-.486 0 0-.195.176-.368.456l-.292-.145c.087-.164.201-.33.356-.494 0 0-.156.12-.322.322.047-.187.037-.405-.55.24 0 0-2.652 1.148-3.419 3.532 0 0-.45 1.075.147 4.237-.85-.401-.27 1.678-.27 1.678.086.557.32.799.462.9zM16.345 4.3c-.129.18-.24.405-.294.677l-.093-.034c.072-.232.194-.452.387-.643z"/><radialGradient id="SVGID_3_" cx="7.297" cy="7.48" r="3.12" gradientUnits="userSpaceOnUse"><stop offset=".574" stop-color="#171718"/><stop offset=".798" stop-color="#171718"/><stop offset="1" stop-color="#171718"/></radialGradient><path class="st2" d="M4.945 10.954l.004.044a.14.14 0 0 0 .168.101l.007-.002 1.633-.41a.14.14 0 0 0 .101-.167 3.923 3.923 0 0 1 2.853-4.755.142.142 0 0 0 .1-.17l-.408-1.633a.14.14 0 0 0-.168-.101 5.894 5.894 0 0 0-4.29 7.093z"/><radialGradient id="SVGID_4_" cx="3.63" cy="5.392" r="4.597" gradientUnits="userSpaceOnUse"><stop offset=".574" stop-color="#171718"/><stop offset=".798" stop-color="#171718"/><stop offset="1" stop-color="#171718"/></radialGradient><path class="st3" d="M7.156 1.953a.139.139 0 0 0 .1-.167l-.42-1.68A.135.135 0 0 0 6.67.005C1.975 1.179-.897 5.94.254 10.637l.004.047a.14.14 0 0 0 .168.097h.006l1.682-.422a.14.14 0 0 0 .1-.167C1.305 6.557 3.522 2.86 7.156 1.953z"/><radialGradient id="SVGID_5_" cx="26.125" cy="7.671" r="3.119" gradientUnits="userSpaceOnUse"><stop offset=".574" stop-color="#171718"/><stop offset=".798" stop-color="#171718"/><stop offset="1" stop-color="#171718"/></radialGradient><path class="st4" d="M24.187 4.053a.14.14 0 0 0-.167.102l-.41 1.634a.138.138 0 0 0 .101.165 3.928 3.928 0 0 1 2.853 4.758.139.139 0 0 0 .102.168l1.633.407.006.002c.075.02.15-.026.169-.1l.004-.041a5.896 5.896 0 0 0-4.291-7.095z"/><radialGradient id="SVGID_6_" cx="29.792" cy="5.583" r="4.597" gradientUnits="userSpaceOnUse"><stop offset=".574" stop-color="#171718"/><stop offset=".798" stop-color="#171718"/><stop offset="1" stop-color="#171718"/></radialGradient><path class="st5" d="M26.753.194a.14.14 0 0 0-.167.103l-.42 1.682a.136.136 0 0 0 .1.166 6.801 6.801 0 0 1 4.942 8.238.139.139 0 0 0 .1.168l1.682.421h.006a.139.139 0 0 0 .168-.099l.005-.044c1.15-4.697-1.722-9.459-6.416-10.635z"/></svg>