<svg height="15" width="20" xmlns="http://www.w3.org/2000/svg" viewBox="0 0 20 15"><path fill-rule="evenodd" d="M2.86 2.81l3.46 1.07c.28.12 1.63.58 4.03.03 3.03-.7 9.59-1.9 9.65-1.92L19.76.85c-.01 0-.02.01-.05.01L13.46.05c-.68-.1-1.79-.07-2.47.06l-8.36 1.5C1.55 1.55.51 2.17.17 3.17c-.2.58-.15 1.2.15 1.74.16.27.37.51.62.71-.38.27-.68.64-.83 1.09-.2.58-.15 1.2.15 1.74.17.29.39.53.66.73-.37.27-.66.65-.81 1.09-.2.58-.15 1.2.15 1.74s.81.93 1.44 1.12l6.02 1.78c.33.1.87.12 1.21.05l10.57-2.24s-.06-.26-.14-.57c-.07-.31-.41-.51-.75-.44l-9.62 2.05c-.34.07-.88.04-1.21-.05l-5.7-1.69c-.3-.09-.55-.28-.7-.55a1.03 1.03 0 0 1-.08-.84c.2-.58.88-.91 1.51-.72 0-.01 3.49 1.02 4.91 1.45.33.09.87.11 1.21.04L19.5 9.16s-.06-.26-.14-.57c-.07-.31-.41-.51-.75-.44l-9.62 2.04c-.34.08-.88.05-1.21-.04l-5.7-1.69c-.3-.09-.55-.28-.7-.55a1.03 1.03 0 0 1-.08-.84c.2-.59.88-.91 1.51-.72 0 0 3.53 1.04 4.97 1.47.33.09.87.12 1.21.04l10.57-2.24s-.06-.25-.14-.57c-.07-.31-.41-.51-.75-.43L9.04 6.66c-.33.07-.88.05-1.21-.05L2.14 4.92c-.31-.09-.56-.28-.7-.54a1.02 1.02 0 0 1-.08-.85c.2-.58.88-.91 1.5-.72z"/></svg>