<svg preserveAspectRatio="xMinYMid" xmlns="http://www.w3.org/2000/svg" viewBox="-409.3 475 20.5 24.6"><path d="M-396.6 479.8h-4.8c-1.3 0-2.4 1.1-2.4 2.5v5.2c0 .3.3.6.6.6h8.5c.3 0 .6-.3.6-.6v-5.2c-.1-1.4-1.2-2.5-2.5-2.5zm.8 6.6h-6.4v-4.1c0-.5.4-.8.8-.8h4.8c.4 0 .8.4.8.8v4.1zm-6.6 4.9h.5c.3 0 .6-.3.6-.6v-.5c0-.3-.3-.6-.6-.6h-.5c-.3 0-.6.3-.6.6v.5c0 .3.3.6.6.6zm6.3 0h.5c.3 0 .6-.3.6-.6v-.5c0-.3-.3-.6-.6-.6h-.5c-.3 0-.6.3-.6.6v.5c.1.3.3.6.6.6z"/><path d="M-394.2 494.6c1.8 0 3.2-1.5 3.2-3.3v-9c0-3.2-2.5-5.7-5.6-5.7h-4.8c-3.1 0-5.6 2.6-5.6 5.7v9c0 1.8 1.4 3.2 3.2 3.2l-2.8 4.4c-.2.3-.1.6.3.6h.9c.2 0 .4-.1.5-.3l3-4.6h5.7l3 4.6c.1.2.3.3.5.3h.9c.4 0 .5-.3.3-.6l-2.7-4.3zm-11.2-3.3v-9c0-2.3 1.8-4.1 4-4.1h4.8c2.2 0 4 1.8 4 4.1v9c0 .9-.7 1.6-1.6 1.6h-9.6c-.9 0-1.6-.7-1.6-1.6z"/></svg>