<svg id="Слой_1" xmlns="http://www.w3.org/2000/svg" viewBox="0 0 33.2490349 37.7122612"><style>.st0{fill:url(#SVGID_1_)}.st1{fill:url(#SVGID_2_)}.st2{fill:url(#SVGID_3_)}</style><radialGradient id="SVGID_1_" cx="16.625" cy="3.353" r="11.992" gradientUnits="userSpaceOnUse"><stop offset=".574" stop-color="#171718"/><stop offset=".798" stop-color="#171718"/><stop offset="1" stop-color="#171718"/></radialGradient><path class="st0" d="M17.522 2.061V.904a.899.899 0 1 0-1.797 0V2.06H0v4.645h33.249V2.06H17.522z"/><radialGradient id="SVGID_2_" cx="16.622" cy="22.884" r="14.387" gradientUnits="userSpaceOnUse"><stop offset=".574" stop-color="#171718"/><stop offset=".798" stop-color="#171718"/><stop offset="1" stop-color="#171718"/></radialGradient><path class="st1" d="M30.553 26.63V8.055H2.691V26.63h12.236v5.766H11.69v-.827h-1.645l-2.37 6.143H9.32l1.185-3.07h12.403l1.185 3.07h1.647l-2.37-6.143h-1.647v.827h-3.4V26.63h12.23zm-9.985-12.97h8.077v1.843h-8.077V13.66zm0 3.408h8.077v1.848h-8.077v-1.848zm-.041 3.588H28.6v1.847h-8.073v-1.847zm-16.1 2.227v-10.08h14.438v10.08H4.426z"/><radialGradient id="SVGID_3_" cx="11.749" cy="17.827" r="5.612" gradientUnits="userSpaceOnUse"><stop offset=".574" stop-color="#171718"/><stop offset=".798" stop-color="#171718"/><stop offset="1" stop-color="#171718"/></radialGradient><path class="st2" d="M16.24 16.096l-.85 1.489-1.203-.688.002-.002-2.598-1.487-.481.843-.825 1.39-2.36-1.434-.611 1.006-.006-.002-2.442 3.828 1.062.738 2.352-3.84 1.346.82v.003l1.113.66 1.328-2.247 1.19.682-.003.002 2.599 1.488.01-.016.015.008 1.269-2.218 1.485-2.6-1.125-.643z"/></svg>