<svg xmlns="http://www.w3.org/2000/svg" width="104" height="43" viewBox="0 0 104 43">
    <g fill="#FFF" fill-rule="nonzero">
        <path d="M38.064 13.873c.097-.13.196-.26.284-.393.046-.07.087-.14.13-.21.095-.152.19-.303.274-.46.035-.063.066-.13.099-.197.084-.164.167-.328.239-.497.033-.073.058-.149.087-.223a8.78 8.78 0 0 0 .187-.497c.03-.087.051-.178.077-.267.047-.16.094-.317.132-.48.023-.096.039-.194.057-.293.032-.158.063-.317.085-.477.003-.023.01-.046.013-.07h-.005a8.737 8.737 0 0 0 .032-1.98h.007c-.003-.03-.01-.06-.013-.089-.012-.114-.033-.228-.05-.342-.022-.151-.042-.303-.072-.45-.015-.074-.036-.147-.053-.22-.043-.184-.084-.37-.137-.548l-.012-.03a8.67 8.67 0 0 0-2.798-4.172l.006-.006c-.038-.031-.08-.058-.119-.089a9.066 9.066 0 0 0-.364-.271 7.018 7.018 0 0 0-.667-.432c-.103-.058-.207-.12-.311-.175-.132-.07-.266-.132-.4-.195-.105-.047-.208-.097-.314-.141a8.282 8.282 0 0 0-.432-.163A8.536 8.536 0 0 0 33.718.4a8.904 8.904 0 0 0-.456-.126A7.625 7.625 0 0 0 32.95.2c-.15-.033-.304-.058-.457-.083a7.352 7.352 0 0 0-.778-.088 8.408 8.408 0 0 0-.377-.018c-.07-.002-.14-.01-.21-.01-.072 0-.143.008-.216.01a8.799 8.799 0 0 0-1.603.188c-.116.025-.23.054-.346.083a7.707 7.707 0 0 0-.773.239 6.41 6.41 0 0 0-.753.311 8.962 8.962 0 0 0-.338.165 8.177 8.177 0 0 0-.376.213 7.985 7.985 0 0 0-.307.187 9.271 9.271 0 0 0-1.266 1.002c-.052.049-.107.093-.158.144-.05.05-.093.104-.141.154a8.536 8.536 0 0 0-1.175 1.547 9.363 9.363 0 0 0-.234.414c-.05.095-.095.19-.14.287a9.182 9.182 0 0 0-.194.429c-.043.103-.08.208-.119.314a8.111 8.111 0 0 0-.147.427c-.035.111-.064.224-.095.338a9.2 9.2 0 0 0-.104.433c-.025.113-.044.23-.064.345a9.523 9.523 0 0 0-.065.454c-.005.047-.016.094-.021.144h.008a8.66 8.66 0 0 0 1.342 5.552c.015.023.028.048.043.07.101.154.214.302.326.451.05.064.094.131.146.194.022.029.041.06.063.086l.006-.006c.421.513.9.977 1.426 1.38l-.004.004c.02.016.042.029.063.044.12.092.248.177.375.261.089.06.177.123.267.18.138.087.282.164.425.243.083.044.164.094.248.135.162.082.329.155.496.225.068.03.136.063.203.09.181.072.366.134.55.193l.18.06c.181.054.365.097.552.138.068.016.135.035.203.049.167.033.337.056.507.08.093.014.184.03.276.04.149.015.298.023.449.031.117.007.235.015.352.017.045 0 .088.006.132.006.096 0 .19-.01.286-.014.126-.003.25-.008.375-.017a10.523 10.523 0 0 0 .775-.093c.14-.024.28-.052.418-.083a9.42 9.42 0 0 0 .348-.081 9.128 9.128 0 0 0 1.484-.538 8.534 8.534 0 0 0 .697-.367 6.86 6.86 0 0 0 .288-.178 8.092 8.092 0 0 0 .643-.455c.113-.088.225-.177.336-.27.093-.08.183-.167.274-.25.07-.066.143-.126.212-.195.031-.03.057-.064.088-.097.084-.087.164-.178.245-.268.097-.11.195-.216.286-.328.064-.08.122-.163.183-.244zm-1.918-3.4c-.037.1-.069.203-.112.302a5.278 5.278 0 0 1-.245.486c-.06.109-.118.217-.186.322-.089.137-.189.263-.289.39a5.245 5.245 0 0 1-.29.347c-.1.106-.206.205-.314.303a5.016 5.016 0 0 1-.723.553 5.144 5.144 0 0 1-.792.415 5.201 5.201 0 0 1-1.752.405c-.175.01-.35.016-.525.009-.123-.005-.244-.02-.366-.033a5.163 5.163 0 0 1-.554-.082c-.1-.022-.196-.052-.294-.08a5.513 5.513 0 0 1-.575-.187c-.086-.036-.169-.078-.253-.119a5.202 5.202 0 0 1-.555-.293 5.341 5.341 0 0 1-1.932-2.11c-.035-.067-.07-.132-.102-.201a5.404 5.404 0 0 1-.239-.635c-.026-.084-.054-.165-.075-.249a5.35 5.35 0 0 1 1.551-5.255 5.03 5.03 0 0 1 .343-.284c.132-.105.266-.206.409-.296.12-.077.245-.143.37-.21.15-.078.3-.155.457-.22.134-.055.27-.099.405-.142.16-.05.32-.098.486-.135.14-.03.283-.05.426-.07.17-.022.343-.04.518-.046a5.622 5.622 0 0 1 1.399.137 5.459 5.459 0 0 1 1.29.484 5.349 5.349 0 0 1 2.093 1.996c.047.079.086.16.128.24.102.196.197.397.275.604.028.076.051.154.076.231a5.354 5.354 0 0 1 .12 2.857c-.045.193-.108.38-.173.566zM57.31 1.85c.53.736.796 1.62.796 2.647 0 1.06-.267 1.911-.803 2.554-.3.36-.741.69-1.324.988.886.324 1.554.833 2.004 1.531.451.7.677 1.547.677 2.543 0 1.028-.257 1.95-.773 2.766a4.789 4.789 0 0 1-1.229 1.366c-.554.424-1.208.714-1.96.87-.754.158-1.57.236-2.453.236h-7.82V0h8.387c2.117.032 3.616.647 4.498 1.85zm-9.423 1.164V6.84h4.218c.753 0 1.364-.144 1.835-.43.47-.287.704-.795.704-1.524 0-.81-.31-1.342-.932-1.601-.535-.18-1.219-.271-2.05-.271h-3.775zm0 6.697v4.627H52.1c.753 0 1.338-.101 1.758-.307.759-.375 1.14-1.098 1.14-2.166 0-.9-.37-1.521-1.106-1.859-.411-.189-.989-.287-1.734-.295h-4.271zM68.048 17.35h-3.603V0h3.603zM73.833 0h3.627v14.232h8.056v3.119H73.833zM102.872 3.073H93.69v3.684h8.43V9.77h-8.43v4.462h9.608v3.119H90.144V0h12.728v3.073zM9.588 6.78L1.345 0v17.35H5.03V7.879l4.557 3.75 4.558-3.751v9.474h3.685V0z"/>
        <g>
            <path d="M13.511 29.05c0-2.25-1.197-4.484-2.912-5.434-1.037-.564-2.364-.754-5.248-.754H.696v19.795h1.28V24.054H5.35c2.975 0 3.784.192 4.707.772 1.28.816 2.173 2.566 2.173 4.253 0 1.7-.822 3.372-2.096 4.258-.908.631-1.748.826-3.596.826h-1.64l6.033 8.494h1.567l-5.188-7.274h.3c3.364 0 5.9-2.723 5.9-6.334zM28.212 22.862c-5.535 0-9.871 4.373-9.871 9.955 0 5.519 4.348 9.84 9.898 9.84 5.584 0 9.956-4.321 9.956-9.84 0-5.582-4.386-9.955-9.983-9.955zm.084 18.643c-4.987 0-8.748-3.773-8.748-8.774 0-4.888 3.819-8.718 8.691-8.718 4.892 0 8.722 3.843 8.722 8.746 0 4.905-3.805 8.746-8.665 8.746zM84.179 22.862h1.25v19.794h-1.25zM56.368 22.862L39.527 42.657h1.52l5.93-6.75h9.712l-.003 6.75h1.25l-.016-19.795h-1.552zm-8.49 11.821L56.7 24.338l-.033 10.345h-8.789zM103.105 24.054v-1.192H92.03v19.795h11.076v-1.222H93.31v-8.17h9.795v-1.19H93.31v-8.02zM73.514 23.668c-1.176-.574-2.542-.806-4.717-.806h-5.58v19.795h5.116c2.629 0 3.66-.136 4.792-.628 3.183-1.34 5.774-5.496 5.774-9.27 0-3.678-2.262-7.499-5.385-9.091zm-4.602 17.795h-4.445V24.054h4.33c2.038 0 3.104.204 4.227.81 2.75 1.514 4.597 4.663 4.597 7.837 0 2.384-.876 4.543-2.598 6.405-.765.794-1.548 1.38-2.324 1.741-1.012.433-2.145.616-3.787.616z"/>
        </g>
    </g>
</svg>
