<svg xmlns="http://www.w3.org/2000/svg" width="124" height="22" viewBox="0 0 124 22">
    <g fill="#FFF" fill-rule="nonzero">
        <path d="M0 1.69C0 .757.771 0 1.736 0h24.276c.96 0 1.736.757 1.736 1.69v18.62c0 .933-.77 1.69-1.736 1.69H1.736C.777 22 0 21.243 0 20.31V1.69zm1.732.85v16.92c0 .476.387.848.864.848h22.551c.483 0 .865-.38.865-.849V2.541a.851.851 0 0 0-.865-.849H2.596a.853.853 0 0 0-.864.849zm.87 7.616a.86.86 0 0 1 .864-.848h5.208a.86.86 0 0 1 .864.848v9.306H2.601v-9.306zm7.804-3.386a.86.86 0 0 1 .864-.847h5.208c.478 0 .865.376.865.847v12.692h-6.937V6.77zm7.804-3.392c0-.464.393-.84.864-.84h5.208c.478 0 .865.386.865.84v16.084H18.21V3.378zM41.42 13.897c0 1.117-.418 1.998-1.253 2.64-.836.644-1.998.966-3.487.966-1.372 0-2.586-.249-3.641-.745V14.32c.868.373 1.602.635 2.203.787.601.153 1.15.229 1.649.229.598 0 1.057-.11 1.376-.33.32-.22.48-.547.48-.982 0-.243-.07-.458-.211-.647a2.33 2.33 0 0 0-.62-.546c-.273-.175-.829-.454-1.667-.838-.786-.356-1.375-.697-1.768-1.024a3.872 3.872 0 0 1-.94-1.143c-.235-.434-.353-.942-.353-1.523 0-1.095.386-1.955 1.157-2.582.771-.626 1.837-.94 3.197-.94.668 0 1.306.077 1.913.23.606.152 1.241.366 1.904.643l-.88 2.04c-.686-.271-1.253-.46-1.702-.568a5.68 5.68 0 0 0-1.323-.16c-.516 0-.912.115-1.187.346a1.126 1.126 0 0 0-.414.906c0 .231.056.433.167.605.112.172.29.339.532.5.244.16.82.45 1.729.867 1.201.553 2.025 1.107 2.47 1.663.446.556.67 1.237.67 2.044zm9.736 3.436H43.75V4.96h7.405v2.15h-4.679v2.716h4.353v2.15h-4.353v3.19h4.679v2.167zM58.18 10.715h1.459c.98 0 1.689-.175 2.128-.525.44-.35.66-.869.66-1.557 0-.7-.238-1.202-.712-1.507-.475-.304-1.19-.457-2.146-.457h-1.39v4.046zm0 1.676v4.942h-2.103V4.96h3.632c1.66 0 2.888.299 3.685.897.798.598 1.196 1.5 1.196 2.708 0 1.54-.832 2.638-2.497 3.292l3.632 5.476h-2.392l-3.078-4.942h-2.076zm15.137 4.942l-.414-1.303h-.07c-.47.57-.941.958-1.416 1.164-.475.206-1.085.309-1.83.309-.955 0-1.701-.249-2.237-.745-.537-.497-.805-1.2-.805-2.108 0-.964.372-1.692 1.117-2.183.744-.491 1.879-.76 3.403-.804l1.68-.051v-.5c0-.597-.145-1.045-.435-1.34-.29-.297-.74-.445-1.35-.445-.499 0-.976.07-1.434.211-.457.141-.897.308-1.319.5l-.668-1.422a7.376 7.376 0 0 1 1.732-.605 8.27 8.27 0 0 1 1.777-.208c1.237 0 2.17.26 2.8.779.631.52.946 1.334.946 2.446v6.305h-1.477zm-3.078-1.354c.75 0 1.352-.202 1.807-.605.454-.403.681-.969.681-1.697v-.812l-1.248.05c-.974.034-1.682.19-2.124.47-.443.28-.664.707-.664 1.282 0 .418.129.74.387.97.258.228.645.342 1.16.342zm15.858 1.354h-2.075v-5.755c0-.722-.151-1.26-.453-1.616-.302-.356-.781-.534-1.438-.534-.874 0-1.513.249-1.917.745-.405.497-.607 1.329-.607 2.497v4.663H77.54v-9.36h1.618l.29 1.227h.106c.293-.446.71-.79 1.249-1.033a4.324 4.324 0 0 1 1.794-.364c2.334 0 3.5 1.143 3.5 3.428v6.102zm4.734-4.942L92 10.986l2.937-3.013h2.383l-3.913 4.02 4.16 5.34H95.14l-3.122-4.104-1.134.897v3.207h-2.05V4.164h2.05v6.424l-.106 1.803h.053zm10.23 4.942h-2.067v-9.36h2.067v9.36zm-2.19-11.84c0-.356.101-.63.304-.821.202-.192.49-.288.866-.288.363 0 .646.096.849.288.202.192.303.465.303.82 0 .34-.101.606-.303.8-.203.195-.486.293-.85.293-.374 0-.663-.098-.865-.292-.203-.195-.304-.462-.304-.8zm13.564 11.84h-2.076v-5.755c0-.722-.15-1.26-.453-1.616-.302-.356-.781-.534-1.438-.534-.873 0-1.512.249-1.917.745-.405.497-.607 1.329-.607 2.497v4.663h-2.067v-9.36h1.619l.29 1.227h.105c.294-.446.71-.79 1.25-1.033a4.324 4.324 0 0 1 1.793-.364c2.334 0 3.5 1.143 3.5 3.428v6.102zm10.95-9.36v1.091l-1.661.297c.152.197.278.44.378.728.1.287.15.592.15.914 0 .964-.347 1.723-1.038 2.276-.692.553-1.645.83-2.859.83-.31 0-.592-.023-.844-.068-.445.265-.668.576-.668.931 0 .214.104.375.312.482.208.108.59.161 1.148.161H120c1.073 0 1.888.22 2.445.66.557.44.835 1.075.835 1.905 0 1.06-.454 1.879-1.363 2.454-.909.576-2.222.863-3.94.863-1.325 0-2.336-.225-3.034-.677-.698-.451-1.046-1.094-1.046-1.93 0-.575.189-1.059.567-1.45.378-.393.907-.665 1.587-.818a1.541 1.541 0 0 1-.681-.546 1.343 1.343 0 0 1-.269-.79c0-.35.103-.647.308-.89.205-.242.51-.482.915-.719a2.682 2.682 0 0 1-1.227-1.02c-.314-.47-.47-1.022-.47-1.654 0-1.016.332-1.803.998-2.362.665-.558 1.613-.838 2.845-.838.275 0 .564.019.866.055.302.037.53.075.682.115h3.368zm-7.642 10.816c0 .429.201.759.603.99.401.232.966.347 1.693.347 1.126 0 1.964-.155 2.515-.465.551-.31.827-.722.827-1.236 0-.406-.151-.695-.453-.867-.302-.172-.864-.259-1.684-.259h-1.566c-.592 0-1.062.134-1.411.402-.35.269-.524.631-.524 1.088zm.889-7.786c0 .586.157 1.038.47 1.354.314.316.764.474 1.35.474 1.196 0 1.794-.615 1.794-1.845 0-.61-.148-1.08-.444-1.41-.296-.33-.746-.495-1.35-.495-.598 0-1.05.164-1.359.491-.307.328-.461.804-.461 1.43z"/>
    </g>
</svg>
