<svg xmlns="http://www.w3.org/2000/svg" width="83" height="69" viewBox="0 0 83 69">
    <g fill="#FFF" fill-rule="evenodd">
        <path d="M29.523 9.725c1.963-2.955 4.935-5.1 8.33-5.963 4.843-1.23 9.172-.25 13.016 2.95 2.757 2.293 4.39 5.275 4.926 8.926.39 2.66-.087 5.337-1.374 8.208-1.232 2.75-2.606 4.664-5.902 8.57-2.186 2.59-4.681 5.09-7.59 7.65l.046-.028a1.187 1.187 0 0 1 1.037-.058.768.768 0 0 1 .206.12c-5.712-5.028-8.687-8.124-11.323-12.205-1.839-2.844-2.962-5.344-3.451-7.94a13.865 13.865 0 0 1 2.08-10.23M24.43 20.516c.571 3.036 1.85 5.882 3.886 9.032 2.827 4.375 5.963 7.638 11.87 12.84.919.809 1.948.692 2.773-.034 3.016-2.654 5.617-5.26 7.908-7.975 3.47-4.113 4.972-6.203 6.355-9.29 1.508-3.367 2.088-6.614 1.607-9.892-.643-4.384-2.65-8.046-5.993-10.828C48.236.54 42.894-.67 37.095.804c-4.142 1.052-7.752 3.657-10.13 7.237a16.908 16.908 0 0 0-2.535 12.475"/>
        <path d="M49.11 18.634c0 2.349-.64 4.23-1.92 5.642-1.341 1.474-3.176 2.211-5.505 2.211-2.328 0-4.21-.875-5.643-2.625-1.357-1.628-2.036-3.624-2.036-5.988 0-2.442.694-4.46 2.082-6.058 1.45-1.689 3.385-2.533 5.806-2.533 1.14 0 2.22.177 3.238.53 1.233.43 2.105 1.044 2.613 1.842.14.215.209.453.209.714 0 .875-.425 1.313-1.273 1.313a1.39 1.39 0 0 1-.786-.23 36.227 36.227 0 0 0-1.087-.714 5.13 5.13 0 0 0-1.203-.553c-.509-.153-1.102-.23-1.781-.23-1.48 0-2.66.621-3.539 1.865-.755 1.106-1.133 2.434-1.133 3.984 0 1.582.37 2.933 1.11 4.054.864 1.305 2.051 1.958 3.562 1.958.848 0 1.623-.192 2.325-.576a3.445 3.445 0 0 0 1.538-1.681c.216-.476.324-1.329.324-2.557h-2.637c-1.203 0-1.804-.438-1.804-1.313s.601-1.312 1.804-1.312h3.724c.786 0 1.318.176 1.596.53.277.352.416.928.416 1.727"/>
        <g>
            <path d="M13.85 62.964c-.567 3.54-3.258 5.818-6.557 5.818C3.678 68.782 0 65.759 0 61.39s3.678-7.39 7.293-7.39c1.723 0 3.194.475 4.287 1.241.273.207.484.538.484.911 0 .621-.505 1.118-1.135 1.118-.231 0-.484-.083-.652-.207-.756-.517-1.765-.849-2.942-.849-2.375 0-4.876 2.174-4.876 5.155 0 2.982 2.543 5.197 4.876 5.197 1.786 0 3.3-1.139 3.951-2.94H9.668c-.568 0-1.051-.456-1.051-1.035 0-.58.483-1.035 1.05-1.035h2.859c.883 0 1.45.6 1.324 1.407M18.453 62.405h6.074c-.231-1.842-1.766-2.67-3.006-2.67-1.24 0-2.837.828-3.068 2.67m8.344.477c0 .931-.505 1.263-1.408 1.263l-6.936-.042c.231 1.822 1.744 2.733 3.258 2.733 1.092 0 1.618-.228 2.164-.56.21-.123.463-.289.799-.289.525 0 .925.31.925.87 0 .414-.21.704-.589.952-.966.662-2.08.973-3.341.973-2.27 0-5.612-1.76-5.612-5.507 0-3.727 3.174-5.528 5.464-5.528 2.291 0 5.276 1.864 5.276 5.135M31.19 63.275c0 2.36 1.68 3.52 3.152 3.52 1.471 0 3.152-1.16 3.152-3.52 0-2.38-1.681-3.54-3.152-3.54s-3.153 1.16-3.153 3.54m8.617 0c0 3.747-3.173 5.507-5.464 5.507-2.291 0-5.465-1.76-5.465-5.507 0-3.727 3.174-5.528 5.465-5.528 2.29 0 5.464 1.801 5.464 5.528M52.816 56.63l-8.134 10.04h7.692c.547 0 1.009.435 1.009.973 0 .56-.462.994-1.009.994h-8.512c-1.408 0-2.248-1.387-1.366-2.484l8.134-10.041H43a1.002 1.002 0 0 1-1.008-.994c0-.538.462-.973 1.009-.973h8.448c1.409 0 2.25 1.387 1.367 2.484M58.448 58.969v8.633c0 .642-.525 1.16-1.177 1.16a1.166 1.166 0 0 1-1.177-1.16v-8.633c0-.642.526-1.16 1.177-1.16.652 0 1.177.518 1.177 1.16M56.073 55.2c0-.642.547-1.18 1.198-1.18.652 0 1.198.538 1.198 1.18 0 .642-.546 1.18-1.198 1.18-.651 0-1.198-.538-1.198-1.18M63.828 55.18v12.422c0 .642-.525 1.16-1.177 1.16a1.166 1.166 0 0 1-1.176-1.16V55.18c0-.642.525-1.16 1.176-1.16.652 0 1.177.518 1.177 1.16M69.209 55.18v12.422c0 .642-.526 1.16-1.177 1.16a1.166 1.166 0 0 1-1.177-1.16V55.18c0-.642.525-1.16 1.177-1.16.651 0 1.177.518 1.177 1.16M74.021 63.254c0 2.34 1.66 3.561 3.132 3.561 1.534 0 3.11-1.035 3.11-3.56 0-2.547-1.576-3.54-3.11-3.54-1.471 0-3.132 1.22-3.132 3.54m6.137-3.996v-.373c0-.621.526-1.139 1.156-1.139.63 0 1.156.518 1.156 1.139v8.737c0 .62-.525 1.138-1.156 1.138-.63 0-1.156-.517-1.156-1.138v-.725c-.084.87-1.534 1.884-3.3 1.884-2.311 0-5.149-1.78-5.149-5.528 0-3.685 2.838-5.507 5.15-5.507 1.765 0 2.816.787 3.3 1.512"/>
        </g>
    </g>
</svg>
