<svg xmlns="http://www.w3.org/2000/svg" width="122" height="31" viewBox="0 0 122 31">
    <g fill="#FFF" fill-rule="nonzero">
        <path d="M77.943 7.384c-3.634 0-7.101 2.293-7.101 8.502 0 6.209 3.467 8.502 7.101 8.502s7.1-2.293 7.1-8.502c0-6.209-3.41-8.502-7.1-8.502zm0 14.935c-2.404 0-4.809-1.734-4.809-6.433s2.405-6.433 4.809-6.433c2.404 0 4.808 1.734 4.808 6.433s-2.404 6.433-4.808 6.433zm-9.114-6.6c0-6.21-2.907-8.335-6.542-8.335-3.634 0-7.1 2.293-7.1 8.502 0 6.209 3.466 8.502 7.1 8.502 2.628 0 4.361-.783 5.647-2.014l-1.118-1.678c-1.286 1.007-2.795 1.623-4.529 1.623-2.292 0-4.64-1.623-4.752-5.986h11.35v-.615h-.056zm-11.238-1.455c.503-3.468 2.572-4.81 4.696-4.81 2.405 0 4.25 1.565 4.25 4.81H57.59zm63.629 1.454c0-6.209-2.908-8.334-6.542-8.334s-7.101 2.293-7.101 8.502c0 6.209 3.467 8.502 7.1 8.502 2.629 0 4.362-.783 5.648-2.014l-1.118-1.678c-1.286 1.007-2.796 1.623-4.53 1.623-2.292 0-4.64-1.623-4.752-5.986h11.35v-.615h-.055zm-11.239-1.454c.503-3.468 2.572-4.81 4.697-4.81 2.404 0 4.25 1.565 4.25 4.81h-8.947zm-15.544-6.88c-2.068 0-3.914 1.006-4.976 3.132h-.056v-2.74h-2.292V30.54h2.292v-9.509h.056c.783 2.126 2.963 3.356 4.697 3.356 3.634 0 7.045-2.293 7.045-8.502 0-6.209-3.299-8.502-6.766-8.502zm-.28 14.935c-2.907 0-4.696-2.518-4.696-5.258v-1.455c0-4.363 2.237-6.153 5.032-6.153 2.237 0 4.417 1.734 4.417 6.433-.056 4.699-2.404 6.433-4.752 6.433zm11.407 1.678h-2.292V.336h2.292v23.66zm-64.188-.224s-3.467-9.453-3.523-9.677c-.838-2.35-2.348-6.433-3.075-9.23h-.056s-.335 4.979-.839 9.286c-.28 2.405-1.062 9.789-1.062 9.789h-2.348l2.516-22.599h2.684s3.243 9.006 3.466 9.566c1.286 3.58 2.18 6.32 2.908 8.782h.056c.782-2.406 1.621-5.203 2.907-8.782.224-.56 3.467-9.566 3.467-9.566h2.684l2.516 22.655h-2.349s-.838-7.384-1.062-9.79c-.503-4.306-.839-9.285-.839-9.285h-.056c-.727 2.797-2.236 6.88-3.075 9.23-.056.224-3.522 9.677-3.522 9.677h-1.398v-.056zM14.593 19.242v-.056L10.68 1.342H.112v4.643zM22.757 1.342h-7.38v.056l7.324 8.95h.056zM.112 23.997h3.522l.056-.056-3.578-9.398zM6.374 23.997h9.617l.056-.056L1.342 10.516h-.056zM18.228 23.997h4.529v-9.621l-9.058-11.02z"/>
    </g>
</svg>
