<svg xmlns="http://www.w3.org/2000/svg" width="108" height="21" viewBox="0 0 108 21">
    <g fill="#FFF" fill-rule="nonzero">
        <path d="M16.544 18.001c0 1.541-3.181 2.59-7.79 2.59-5.735 0-8.62-2.524-8.62-8.226 0-6.16 3.515-9.927 10.476-9.927 3.945 0 5.403.754 5.403 2.458 0 .95-.332 1.41-1.06 1.868-.83-.426-2.653-.755-3.946-.755-4.541 0-5.9 2.196-5.9 6.095 0 3.997 1.292 5.176 4.409 5.176.829 0 1.591-.097 2.253-.261v-2.327l-2.22-.066c-.234-.392-.3-.784-.3-1.277 0-1.18.929-1.77 3.68-1.77 2.951 0 3.614.46 3.614 1.606l.001 4.816zM24.9 8.074v12.123c-.565.295-1.426.36-2.387.36-1.46 0-2.387-.295-2.453-1.343-.033-.982-.067-2.458-.067-4.915 0-2.686.034-4.325.034-4.325l-1.856-.066c-.233-.36-.299-.852-.299-1.31 0-1.213 1.094-1.803 3.845-1.803 2.287.001 3.182.46 3.182 1.279zm-2.52-3.18c-1.624 0-2.42-.622-2.42-2.129 0-1.343.928-2.327 2.718-2.327 1.724 0 2.354.984 2.354 2.163 0 1.245-.663 2.294-2.652 2.294zM34.945 16.593c0-.59-.2-.787-2.587-1.082-3.116-.425-4.508-1.638-4.508-3.931 0-2.622 2.322-4.85 6.663-4.85 3.48 0 5.139.984 5.139 2.458 0 .755-.331 1.606-1.327 1.933-1.093-.655-2.651-.917-4.011-.917-1.459 0-1.99.393-1.99.917 0 .622.3.787 2.155 1.016 3.78.525 5.04 1.607 5.04 3.834 0 2.589-1.824 4.62-6.4 4.62-3.315 0-5.734-.623-5.734-2.621 0-.82.365-1.475 1.293-1.835.928.654 2.984 1.244 4.343 1.244 1.659 0 1.924-.36 1.924-.786zM58.516 9.942c-1.095 0-1.79.524-2.255 1.376v8.879c-.564.295-1.493.36-2.388.36-1.69 0-2.385-.425-2.453-1.343-.032-.982-.065-2.162-.065-3.604v-3.67c0-1.31-.1-1.998-1.857-1.998-1.095 0-1.724.492-2.222 1.376v8.88c-.563.294-1.492.36-2.386.36-1.69 0-2.387-.426-2.453-1.344-.034-.982-.066-2.162-.066-3.603 0-2.687.032-5.636.032-5.636l-1.69-.066c-.232-.361-.299-.853-.299-1.311 0-1.213.663-1.803 3.415-1.803 1.326 0 2.717.165 3.414.46l-.365 2.621c.73-2.195 2.387-3.113 4.873-3.113 2.222 0 3.58.655 4.243 2.163.829-1.474 2.453-2.163 4.509-2.163 3.016 0 4.673 1.081 4.673 4.26 0 1.212-.032 4.752-.098 6.488l1.592.033c.165.295.264.752.264 1.113 0 1.31-1.127 1.9-3.315 1.9-2.917 0-3.314-.425-3.314-2.654 0-1.048.065-5.012.065-5.963 0-1.311-.264-1.998-1.854-1.998zM79.831 20.59c-1.856 0-2.884-.328-2.884-2.261v-.525c-.43 1.967-2.154 2.786-4.674 2.786-3.05 0-4.442-1.508-4.442-3.736 0-2.72 1.955-4.161 6.067-4.161.927 0 1.79.065 2.717.164V11.58c.033-1.245-.564-1.606-2.22-1.606-1.426 0-3.05.721-3.979 1.64-1.458-.066-1.955-.95-1.955-1.933 0-1.475 2.22-2.95 6.861-2.95 3.68 0 6.101 1.54 6.034 4.457l-.066 4.85c-.034 1.113.132 1.342.862 1.342.233 0 .497 0 .83-.032.363.261.462.885.462 1.277 0 1.343-1.127 1.966-3.613 1.966zm-5.27-5.669c-1.492 0-2.122.46-2.122 1.574 0 .884.597 1.278 1.425 1.278 1.26 0 2.023-.36 2.685-1.016v-1.671c-.762-.131-1.094-.165-1.988-.165zM94.053 10.596c-2.087 0-2.52.59-3.713 2.983v6.652c-.564.295-1.69.327-2.386.327-1.592 0-2.386-.36-2.453-1.343a101.193 101.193 0 0 1-.067-3.604c0-2.686.033-5.57.033-5.57l-1.69-.066c-.232-.36-.3-.917-.3-1.376 0-1.213.93-1.803 3.68-1.803 1.327 0 2.454.164 3.15.46l-.497 3.537c1.06-3.277 1.824-3.997 4.011-3.997 1.492 0 2.022.95 2.022 1.933 0 .95-.3 1.508-.63 1.933-.497-.033-.795-.066-1.16-.066zM97.965 16.79c0-2.688.065-6.75.065-6.75l-1.69-.066c-.232-.361-.298-.918-.298-1.41 0-1.08.63-1.604 2.122-1.702l-.066-1.804c-.033-1.44 1.094-1.966 2.287-1.966.96 0 1.856.164 2.52.459l-.133 3.375h3.945c.132.196.299.852.299 1.245 0 1.081-.597 1.966-2.056 1.966-.597 0-1.657 0-2.188-.033v5.374c0 1.375.365 1.801 1.724 1.801.63 0 1.326-.064 2.42-.36.364.329.563.852.563 1.41 0 1.572-1.425 2.26-4.707 2.26-2.95 0-4.807-.72-4.807-3.8z"/>
    </g>
</svg>
