<svg xmlns="http://www.w3.org/2000/svg" width="116" height="27" viewBox="0 0 116 27">
    <g fill="#FFF" fill-rule="evenodd">
        <path d="M7.317 26.82H4.818C2.142 26.82 0 24.66 0 21.96V4.86C0 2.16 2.142 0 4.818 0H22.13c-2.766 1.26-6.514 3.78-6.514 8.64 0 1.62.357 3.42 1.339 5.49.268.63.446 1.26.446 1.8 0 4.41-7.138 9.09-10.083 10.89z"/>
        <path d="M24.806 1.08c-.446.36-.803.72-.892.72-2.32 2.34-5.176 6.03-5.176 9.45 0 .81.179 1.53.447 2.34.357.9 1.16 1.8 1.16 2.7 0 4.23-3.659 8.82-5.265 10.53h6.692c2.677 0 4.819-2.16 4.819-4.86V4.86c.089-1.53-.714-2.97-1.785-3.78zM33.55 21.96v-2.43c.268.27.625.45.982.63s.803.36 1.16.45c.446.18.803.27 1.25.27.446.09.803.09 1.16.09 1.249 0 2.141-.27 2.766-.72.624-.45.892-1.17.892-2.07 0-.45-.09-.9-.268-1.26-.178-.36-.446-.63-.803-.99-.357-.27-.803-.54-1.249-.81-.535-.27-.982-.54-1.606-.81-.625-.27-1.16-.63-1.696-.9-.535-.36-.981-.63-1.338-1.08-.357-.36-.714-.81-.892-1.26-.179-.45-.357-1.08-.357-1.71 0-.81.178-1.53.535-2.07.357-.63.803-1.08 1.339-1.44.535-.36 1.16-.63 1.873-.9a8.73 8.73 0 0 1 2.142-.27c1.695 0 2.945.18 3.658.63v2.34c-.981-.72-2.32-1.08-3.836-1.08-.447 0-.893.09-1.339.18-.446.09-.803.27-1.16.45-.357.18-.625.45-.803.81-.178.45-.268.81-.268 1.35 0 .45.09.81.268 1.17.178.36.446.63.714.9.357.27.714.54 1.16.81.446.27.981.54 1.606.81.625.27 1.16.63 1.695.99.536.36 1.071.72 1.428 1.17.446.45.714.9.982 1.35.267.54.357 1.08.357 1.71 0 .9-.179 1.62-.536 2.16a4.152 4.152 0 0 1-1.338 1.44c-.536.36-1.25.63-1.963.81-.714.18-1.517.27-2.32.27-.268 0-.625 0-.982-.09s-.803-.09-1.25-.18c-.445-.09-.802-.18-1.16-.27a8.022 8.022 0 0 0-.802-.45zM57.375 6.93h-4.907v15.75h-1.963V6.93h-4.908v-1.8h11.778zM64.87 5.13h-2.052l-6.513 17.55h2.23l1.696-4.95h7.227l1.785 4.95h2.23L64.872 5.13zm-4.015 10.71l2.677-7.47c.09-.27.179-.63.268-1.17.09.54.178.9.268 1.17l2.677 7.47h-5.89zM87.714 22.68h-2.41L76.472 8.64c-.179-.36-.446-.72-.536-1.08h-.089c.09.36.09 1.17.09 2.43v12.69h-1.964V5.13h2.588l8.566 13.77c.357.54.625.99.714 1.17h.09c-.09-.54-.09-1.35-.09-2.61V5.13h1.963v17.55h-.09zM100.92 6.93h-6.692v6.12h6.157v1.8h-6.157v7.83h-1.963V5.13h8.655zM115.197 5.13l-5.622 11.07v6.48h-1.963V16.2L102.17 5.13h2.231l3.837 7.92c0 .09.178.45.446 1.08.09-.27.268-.63.446-1.08l4.016-7.92h2.052z"/>
    </g>
</svg>
