<svg xmlns="http://www.w3.org/2000/svg" width="147" height="31" viewBox="0 0 147 31">
    <path fill="#ffffff" d="M1.936 30.116H0v-4.424h1.723c.262-.006.524.03.775.107.184.05.35.15.483.29.2.21.3.48.3.77.02.29-.1.58-.33.77-.05.04-.1.08-.16.11l-.15.07c.26.04.49.17.66.37.17.19.25.44.25.7 0 .3-.11.59-.32.82-.24.27-.66.41-1.26.41zM.748 27.528h.95c.54 0 .808-.183.808-.55.017-.175-.057-.347-.195-.457-.18-.1-.39-.15-.6-.14H.75v1.15zm0 1.898h1.164c.218.012.435-.033.63-.13.155-.108.24-.29.223-.478 0-.388-.314-.582-.943-.582H.748v1.19zm6.102.69h-.76V28.37l-1.645-2.678h.815l1.208 2.014 1.208-2.014h.815L6.85 28.37m5.466-2.678h.748v4.424h-.746m6.048-4.424h.748v4.424h-.81l-2.506-3.228v3.228h-.748v-4.424h.748l2.57 3.303m4.406-2.62v3.74h-.75v-3.74H20.67v-.683h3.443v.684m4.68-.684v.7H26.43v1.165h2.12v.68h-2.12v1.183h2.437v.702H25.68v-4.43m4.9 4.424v-4.424h.747V29.4h2.02v.71m1.583.006v-4.424h.75V29.4h2.02v.71m4.674-4.418v.7h-2.36v1.165h2.118v.68h-2.12v1.183h2.438v.702h-3.185v-4.43m6.92 3.748c.227.006.454-.04.663-.13.214-.107.41-.246.582-.414l.48.495c-.425.5-1.05.79-1.705.78-.62.02-1.22-.21-1.665-.64-.89-.91-.89-2.36 0-3.27.454-.44 1.07-.68 1.702-.66.657-.01 1.285.27 1.718.76l-.475.52c-.172-.17-.374-.32-.596-.42-.21-.08-.44-.12-.67-.12-.41 0-.81.15-1.11.44-.31.29-.47.69-.46 1.11-.01.43.15.83.45 1.13.27.3.66.46 1.06.46zm5.07-3.064v3.74h-.748v-3.74h-1.342v-.684h3.432v.684m2.908-.102c-.188-.008-.374.04-.536.134-.14.085-.22.24-.21.4-.01.166.07.322.21.412.28.146.58.25.89.305.37.073.72.232 1.02.463.24.224.37.545.34.873.01.37-.15.72-.44.95-.33.25-.74.38-1.15.36-.69.01-1.34-.25-1.85-.71l.47-.56c.37.36.87.57 1.39.58.2.02.41-.04.58-.15.13-.09.21-.24.21-.41 0-.16-.07-.31-.2-.4-.22-.12-.45-.21-.69-.26-.25-.05-.5-.12-.74-.21-.16-.06-.31-.15-.45-.26-.28-.22-.42-.56-.4-.91-.02-.37.15-.73.444-.95.32-.23.71-.34 1.103-.33.286 0 .57.05.84.14.264.08.51.22.723.39l-.4.57c-.154-.13-.335-.23-.53-.29-.214-.07-.44-.11-.664-.11zm7.11 3.234c-.932.874-2.384.874-3.317 0-.892-.907-.892-2.36 0-3.266.933-.874 2.385-.874 3.318 0 .892.906.892 2.36 0 3.266zm-.546-2.77c-.3-.298-.7-.467-1.12-.467-.42 0-.82.17-1.11.47-.61.64-.61 1.64 0 2.28.29.3.69.47 1.11.47.42 0 .82-.17 1.11-.46.6-.64.6-1.63 0-2.27zm3.66-.348v1.217h1.97v.687h-1.97v1.822h-.75v-4.424h2.95v.695m3.3-.01v3.74h-.75v-3.74h-1.34v-.685h3.43v.684M7.49 18.874H0V1.747h6.663c1.016-.02 2.03.123 3 .422.72.2 1.375.59 1.9 1.12.747.81 1.162 1.88 1.163 2.99 0 1.34-.432 2.33-1.298 2.99-.192.16-.396.3-.61.42-.116.06-.32.15-.612.29.98.18 1.872.69 2.535 1.43.64.75.97 1.71.94 2.7.01 1.17-.43 2.3-1.22 3.16-.95 1.06-2.61 1.59-4.96 1.59zM3.822 8.686h1.813c1.062 0 1.85-.114 2.364-.343.51-.23.77-.723.77-1.482 0-.75-.24-1.26-.71-1.5C7.58 5.12 6.78 5 5.66 5H3.82v3.69zm0 6.957h2.62c1.094 0 1.915-.135 2.46-.404.55-.27.82-.81.82-1.6s-.29-1.32-.87-1.57c-.582-.26-1.51-.38-2.78-.38h-2.25v3.94zm30.04-8.21c0 2.745-1.085 4.517-3.257 5.317l4.337 6.113h-4.704L26.454 13.4h-2.66v5.474h-3.82V1.747h6.492c2.662 0 4.56.45 5.696 1.347 1.136.9 1.702 2.345 1.7 4.34zm-4.605 2.04c.484-.428.725-1.1.725-2.024s-.245-1.56-.736-1.9c-.5-.35-1.36-.52-2.585-.52H23.8v5.07h2.79c1.31 0 2.2-.21 2.673-.64zm11.62-7.726H44.7v17.127h-3.822m43.23-17.127h3.82v17.127h-3.822v-6.736H77.3v6.736h-3.823V1.747H77.3v7.157h6.807M102.49 5.06v13.814h-3.81V5.06h-4.862V1.746h13.52V5.06m38.332 2.374c0 2.744-1.086 4.516-3.258 5.316l4.338 6.113h-4.7l-3.783-5.464h-2.646v5.47h-3.84V1.74h6.49c2.67 0 4.56.45 5.7 1.347 1.14.9 1.71 2.345 1.71 4.34zm-4.605 2.038c.463-.427.695-1.1.695-2.023s-.245-1.56-.736-1.9c-.48-.35-1.33-.52-2.556-.52H135.6v5.07h2.792c1.308 0 2.2-.21 2.673-.64zm-81.82-.585v3.243h3.883v2.716c-1.016.538-2.156.8-3.306.76-1.293.013-2.532-.515-3.418-1.456-.954-.97-1.432-2.265-1.432-3.883 0-1.62.5-2.918 1.5-3.898.97-.98 2.297-1.52 3.673-1.49.716-.01 1.427.12 2.096.38.78.34 1.5.8 2.12 1.38l1.98-2.87c-1.75-1.59-4.04-2.46-6.4-2.43-2.35-.04-4.63.88-6.29 2.54-1.72 1.66-2.68 3.96-2.62 6.36 0 2.54.86 4.64 2.56 6.31 1.69 1.65 3.97 2.55 6.33 2.49 3.01 0 5.36-.95 7.06-2.84V8.88h-7.72zM113.065 7l12.205-3.728-1-3.272-11.205 3.426m0 5.134h12.808v3.506h-12.808zm0 8.643l11.204 3.424 1-3.27-12.21-3.73"></path>
</svg>