<?xml version="1.0" encoding="UTF-8"?>
<svg width="270px" height="130px" viewBox="0 0 270 130" version="1.1" xmlns="http://www.w3.org/2000/svg" xmlns:xlink="http://www.w3.org/1999/xlink">
    <!-- Generator: Sketch 41 (35326) - http://www.bohemiancoding.com/sketch -->
    <title>Aitoc_new_logo</title>
    <desc>Created with Sketch.</desc>
    <defs></defs>
    <g id="Page-1" stroke="none" stroke-width="1" fill="none" fill-rule="evenodd">
        <g id="Aitoc_new_logo" fill="#0BC7FF">
            <g transform="translate(13.000000, 32.000000)" id="Page-1">
                <g>
                    <g id="logo">
                        <g id="Aitoc">
                            <path d="M51.5794348,66.1150943 L45.8995976,52.9319752 L20.2966395,52.9319752 L14.6168023,66.1150943 L0.111372081,66.1150943 L26.5007692,5.08860259 L39.6954678,5.08860259 L66.084865,66.1150943 L51.5794348,66.1150943 Z M33.1418096,23.2481309 L25.4521839,40.9711321 L40.7440531,40.9711321 L33.1418096,23.2481309 Z M86.3037409,66.1150943 L73.1964244,66.1150943 L73.1964244,19.1447759 L86.3037409,19.1447759 L86.3037409,66.1150943 Z M72.060457,7.70776533 C72.060457,5.55422076 72.8031975,3.73537593 74.2887008,2.2511763 C75.774204,0.76697666 77.5946465,0.0248879717 79.7500826,0.0248879717 C81.9055188,0.0248879717 83.7259612,0.76697666 85.2114646,2.2511763 C86.6969678,3.73537593 87.4397083,5.55422076 87.4397083,7.70776533 C87.4397083,9.8613099 86.6969678,11.6801547 85.2114646,13.1643544 C83.7259612,14.648554 81.9055188,15.3906427 79.7500826,15.3906427 C77.5946465,15.3906427 75.774204,14.648554 74.2887008,13.1643544 C72.8031975,11.6801547 72.060457,9.8613099 72.060457,7.70776533 L72.060457,7.70776533 Z M115.697738,28.5737618 L115.697738,49.6143691 C115.697738,51.4186902 116.163772,52.8301139 117.095852,53.8486823 C118.027933,54.8672505 119.134762,55.3765271 120.416372,55.3765271 C122.863084,55.3765271 124.931106,54.2706695 126.620502,52.058921 L131.5139,61.2259906 C127.436048,64.9510406 123.139804,66.8135377 118.625039,66.8135377 C114.110274,66.8135377 110.294627,65.3293603 107.177983,62.3609611 C104.061338,59.3925619 102.50304,55.3474509 102.50304,50.2255071 L102.50304,28.5737618 L96.9979668,28.5737618 L96.9979668,19.1447759 L102.50304,19.1447759 L102.50304,5.08860259 L115.697738,5.08860259 L115.697738,19.1447759 L127.057413,19.1447759 L127.057413,28.5737618 L115.697738,28.5737618 Z M153.087199,52.0152683 C155.271763,54.4307305 158.067962,55.6384434 161.475882,55.6384434 C164.883801,55.6384434 167.680001,54.4307305 169.864564,52.0152683 C172.049128,49.5998061 173.141394,46.471393 173.141394,42.6299351 C173.141394,38.7884772 172.049128,35.6455134 169.864564,33.2009493 C167.680001,30.7563851 164.883801,29.5341215 161.475882,29.5341215 C158.067962,29.5341215 155.271763,30.7563851 153.087199,33.2009493 C150.902636,35.6455134 149.81037,38.7884772 149.81037,42.6299351 C149.81037,46.471393 150.902636,49.5998061 153.087199,52.0152683 L153.087199,52.0152683 Z M179.258141,59.8291038 C174.539483,64.4854164 168.612122,66.8135377 161.475882,66.8135377 C154.339639,66.8135377 148.41228,64.4854164 143.693622,59.8291038 C138.974964,55.1727912 136.615672,49.4397923 136.615672,42.6299351 C136.615672,35.820078 138.974964,30.0725283 143.693622,25.3871139 C148.41228,20.7016993 154.339639,18.3590271 161.475882,18.3590271 C168.612122,18.3590271 174.539483,20.7016993 179.258141,25.3871139 C183.976798,30.0725283 186.336092,35.820078 186.336092,42.6299351 C186.336092,49.4397923 183.976798,55.1727912 179.258141,59.8291038 L179.258141,59.8291038 Z M219.924431,55.2019163 C224.293558,55.2019163 228.225713,53.0193025 231.721015,48.6540094 L239.498023,57.3845519 C233.439499,63.6705739 226.885907,66.8135377 219.837048,66.8135377 C212.78819,66.8135377 206.831702,64.5872717 201.967407,60.1346728 C197.103111,55.6820738 194.671,49.8617704 194.671,42.6735879 C194.671,35.4854053 197.132239,29.6360004 202.054788,25.1251976 C206.977339,20.6143946 212.817319,18.3590271 219.574902,18.3590271 C222.953694,18.3590271 226.376125,19.0574636 229.842299,20.4543573 C233.308474,21.8512511 236.352254,23.9174587 238.973731,26.6530425 L232.157926,35.5581958 C230.643295,33.7538746 228.793725,32.3570017 226.609162,31.3675354 C224.424598,30.378069 222.254631,29.8833432 220.099195,29.8833432 C216.662148,29.8833432 213.705749,31.0037515 211.229911,33.2446021 C208.754071,35.4854525 207.516171,38.5993148 207.516171,42.5862825 C207.516171,46.5732501 208.754071,49.6725616 211.229911,51.8843101 C213.705749,54.0960586 216.603893,55.2019163 219.924431,55.2019163 L219.924431,55.2019163 Z" id="Shape"></path>
                        </g>
                    </g>
                </g>
            </g>
        </g>
    </g>
</svg>