<svg xmlns="http://www.w3.org/2000/svg" viewBox="0 0 1496 1496"><path fill="#CCE3FD" d="M747.9 1084.5c-90 0-174.6-35-238.2-98.7C446 922.2 411 837.6 411 747.6s35-174.6 98.7-238.2c63.6-63.6 148.2-98.7 238.2-98.7s174.6 35 238.2 98.7c63.6 63.6 98.7 148.2 98.7 238.2s-35 174.6-98.7 238.2c-63.6 63.7-148.2 98.7-238.2 98.7zm0-673c-89.8 0-174.2 35-237.7 98.4s-98.4 147.9-98.4 237.7c0 89.8 35 174.2 98.4 237.7 63.5 63.5 147.9 98.4 237.7 98.4 89.8 0 174.2-35 237.7-98.4 63.5-63.5 98.4-147.9 98.4-237.7 0-89.8-35-174.2-98.4-237.7-63.5-63.4-147.9-98.4-237.7-98.4z"/><path fill="#99C7FB" d="M748.2 1492.4c-100.5 0-197.9-19.7-289.7-58.5-88.6-37.5-168.2-91.1-236.5-159.5-68.3-68.3-122-147.9-159.5-236.5C23.8 946.2 4.1 848.7 4.1 748.2s19.7-197.9 58.5-289.7c37.5-88.6 91.1-168.2 159.5-236.5S370 100.1 458.6 62.6C550.3 23.8 647.8 4.1 748.2 4.1c100.5 0 197.9 19.7 289.7 58.5 88.6 37.5 168.2 91.1 236.5 159.5 68.3 68.3 122 147.9 159.5 236.5 38.8 91.7 58.5 189.2 58.5 289.7s-19.7 197.9-58.5 289.7c-37.5 88.6-91.1 168.2-159.5 236.5-68.3 68.3-147.9 122-236.5 159.5-91.7 38.7-189.2 58.4-289.7 58.4zm0-1487.5c-100.4 0-197.7 19.7-289.3 58.4-88.5 37.4-168 91-236.3 159.3S100.8 370.4 63.3 458.9c-38.8 91.6-58.4 189-58.4 289.3 0 100.4 19.7 197.7 58.4 289.3 37.4 88.5 91 168 159.3 236.3 68.3 68.3 147.8 121.9 236.3 159.3 91.6 38.8 189 58.4 289.3 58.4 100.4 0 197.7-19.7 289.3-58.4 88.5-37.4 168-91 236.3-159.3 68.3-68.3 121.9-147.8 159.3-236.3 38.8-91.6 58.4-189 58.4-289.3 0-100.4-19.7-197.7-58.4-289.3-37.4-88.5-91-168-159.3-236.3-68.3-68.3-147.8-121.9-236.3-159.3C946 24.6 848.6 4.9 748.2 4.9z" opacity=".9"/><linearGradient id="a" gradientUnits="userSpaceOnUse" x1="436.234" y1="441.154" x2="748.458" y2="441.154"><stop offset="0" stop-color="#CCE3FD"/><stop offset="1" stop-color="#99C7FB"/></linearGradient><path fill="url(#a)" d="M437 878.1l-.8-.3L747.7 4.2l.8.3z"/><linearGradient id="b" gradientUnits="userSpaceOnUse" x1="747.736" y1="441.154" x2="1059.961" y2="441.154"><stop offset="0" stop-color="#99C7FB"/><stop offset="1" stop-color="#CCE3FD"/></linearGradient><path fill="url(#b)" d="M1059.2 878.1L747.7 4.5l.8-.3L1060 877.8z"/><linearGradient id="c" gradientUnits="userSpaceOnUse" x1="349.617" y1="477.768" x2="960.205" y2="355.761"><stop offset="0" stop-color="#CCE3FD"/><stop offset="1" stop-color="#99C7FB"/></linearGradient><path fill="url(#c)" d="M417.6 815.2l-.6-.4L892.2 18.3l.7.4z"/><linearGradient id="d" gradientUnits="userSpaceOnUse" x1="937.269" y1="481.907" x2="983.692" y2="472.631"><stop offset="0" stop-color="#CCE3FD"/><stop offset="1" stop-color="#99C7FB"/></linearGradient><path fill="url(#d)" d="M1028 936L892.2 18.6l.7-.1 135.9 917.4z"/><linearGradient id="e" gradientUnits="userSpaceOnUse" x1="410.291" y1="404.945" x2="1032.949" y2="404.945"><stop offset="0" stop-color="#CCE3FD"/><stop offset="1" stop-color="#99C7FB"/></linearGradient><path fill="url(#e)" d="M410.9 749.2l-.6-.6 622.1-687.9.5.6z"/><linearGradient id="f" gradientUnits="userSpaceOnUse" x1="985.739" y1="524.152" x2="1033.081" y2="524.152"><stop offset="0" stop-color="#CCE3FD"/><stop offset="1" stop-color="#99C7FB"/></linearGradient><path fill="url(#f)" d="M986.5 987.3h-.8L1032.3 61h.8z"/><linearGradient id="g" gradientUnits="userSpaceOnUse" x1="416.716" y1="406.426" x2="1161.986" y2="406.426"><stop offset="0" stop-color="#CCE3FD"/><stop offset="1" stop-color="#99C7FB"/></linearGradient><path fill="url(#g)" d="M417.2 683.1l-.5-.7 744.8-552.6.5.6z"/><linearGradient id="h" gradientUnits="userSpaceOnUse" x1="934.247" y1="579.713" x2="1162.162" y2="579.713"><stop offset="0" stop-color="#CCE3FD"/><stop offset="1" stop-color="#99C7FB"/></linearGradient><path fill="url(#h)" d="M935 1029.4l-.8-.2L1161.4 130l.8.2z"/><linearGradient id="i" gradientUnits="userSpaceOnUse" x1="435.76" y1="420.963" x2="1274.059" y2="420.963"><stop offset="0" stop-color="#CCE3FD"/><stop offset="1" stop-color="#99C7FB"/></linearGradient><path fill="url(#i)" d="M436.1 620.1l-.3-.8 837.9-397.4.4.7z"/><linearGradient id="j" gradientUnits="userSpaceOnUse" x1="876.078" y1="641.229" x2="1274.271" y2="641.229"><stop offset="0" stop-color="#CCE3FD"/><stop offset="1" stop-color="#99C7FB"/></linearGradient><path fill="url(#j)" d="M876.8 1060.4l-.7-.4 397.4-837.9.8.3z"/><linearGradient id="k" gradientUnits="userSpaceOnUse" x1="466.697" y1="447.957" x2="1366.092" y2="447.957"><stop offset="0" stop-color="#CCE3FD"/><stop offset="1" stop-color="#99C7FB"/></linearGradient><path fill="url(#k)" d="M466.9 561.9l-.2-.8L1365.9 334l.2.8z"/><linearGradient id="l" gradientUnits="userSpaceOnUse" x1="813.031" y1="706.811" x2="1366.333" y2="706.811"><stop offset="0" stop-color="#CCE3FD"/><stop offset="1" stop-color="#99C7FB"/></linearGradient><path fill="url(#l)" d="M813.7 1079.4l-.7-.4 552.7-744.8.6.5z"/><linearGradient id="m" gradientUnits="userSpaceOnUse" x1="508.765" y1="486.77" x2="1435.08" y2="486.77"><stop offset="0" stop-color="#CCE3FD"/><stop offset="1" stop-color="#99C7FB"/></linearGradient><path fill="url(#m)" d="M508.8 510.4v-.8l926.2-46.5.1.8z"/><linearGradient id="n" gradientUnits="userSpaceOnUse" x1="746.918" y1="774.56" x2="1435.341" y2="774.56"><stop offset="0" stop-color="#CCE3FD"/><stop offset="1" stop-color="#99C7FB"/></linearGradient><path fill="url(#n)" d="M747.5 1085.9l-.6-.6 687.9-622.1.5.6z"/><linearGradient id="o" gradientUnits="userSpaceOnUse" x1="559.991" y1="535.711" x2="1477.547" y2="535.711"><stop offset="0" stop-color="#CCE3FD"/><stop offset="1" stop-color="#99C7FB"/></linearGradient><path fill="url(#o)" d="M1477.4 604L560 468.2l.1-.8 917.4 135.8z"/><linearGradient id="p" gradientUnits="userSpaceOnUse" x1="680.847" y1="841.28" x2="1477.699" y2="841.28"><stop offset="0" stop-color="#CCE3FD"/><stop offset="1" stop-color="#99C7FB"/></linearGradient><path fill="url(#p)" d="M681.3 1079.2l-.5-.7 796.5-475.2.4.7z"/><linearGradient id="q" gradientUnits="userSpaceOnUse" x1="618.466" y1="592.883" x2="1491.768" y2="592.883"><stop offset="0" stop-color="#CCE3FD"/><stop offset="1" stop-color="#99C7FB"/></linearGradient><path fill="url(#q)" d="M1491.5 749.8l-873-313 .2-.8 873.1 313z"/><linearGradient id="r" gradientUnits="userSpaceOnUse" x1="617.38" y1="904.384" x2="1491.767" y2="904.384"><stop offset="0" stop-color="#CCE3FD"/><stop offset="1" stop-color="#99C7FB"/></linearGradient><path fill="url(#r)" d="M617.6 1059.7l-.2-.7 874.1-310 .3.8z"/><linearGradient id="s" gradientUnits="userSpaceOnUse" x1="680.809" y1="654.911" x2="1477.661" y2="654.911"><stop offset="0" stop-color="#CCE3FD"/><stop offset="1" stop-color="#99C7FB"/></linearGradient><path fill="url(#s)" d="M1477.3 892.9L680.8 417.6l.4-.6 796.5 475.2z"/><linearGradient id="t" gradientUnits="userSpaceOnUse" x1="559.953" y1="960.481" x2="1477.509" y2="960.481"><stop offset="0" stop-color="#CCE3FD"/><stop offset="1" stop-color="#99C7FB"/></linearGradient><path fill="url(#t)" d="M560.1 1028.8l-.1-.8 917.4-135.8.1.7z"/><linearGradient id="u" gradientUnits="userSpaceOnUse" x1="747.432" y1="722.218" x2="1434.769" y2="722.218"><stop offset="0" stop-color="#CCE3FD"/><stop offset="1" stop-color="#99C7FB"/></linearGradient><path fill="url(#u)" d="M1434.2 1034.1L747.4 410.9l.6-.6 686.8 623.3z"/><linearGradient id="v" gradientUnits="userSpaceOnUse" x1="508.275" y1="1009.8" x2="1434.508" y2="1009.8"><stop offset="0" stop-color="#CCE3FD"/><stop offset="1" stop-color="#99C7FB"/></linearGradient><path fill="url(#v)" d="M1434.5 1034.3l-926.2-48.2v-.8l926.2 48.2z"/><linearGradient id="w" gradientUnits="userSpaceOnUse" x1="812.923" y1="789.351" x2="1366.225" y2="789.351"><stop offset="0" stop-color="#CCE3FD"/><stop offset="1" stop-color="#99C7FB"/></linearGradient><path fill="url(#w)" d="M1365.6 1162L812.9 417.2l.7-.5 552.6 744.8z"/><linearGradient id="x" gradientUnits="userSpaceOnUse" x1="466.589" y1="1048.205" x2="1365.983" y2="1048.205"><stop offset="0" stop-color="#CCE3FD"/><stop offset="1" stop-color="#99C7FB"/></linearGradient><path fill="url(#x)" d="M1365.8 1162.2L466.6 935l.2-.8 899.2 227.2z"/><linearGradient id="y" gradientUnits="userSpaceOnUse" x1="875.94" y1="854.909" x2="1274.133" y2="854.909"><stop offset="0" stop-color="#CCE3FD"/><stop offset="1" stop-color="#99C7FB"/></linearGradient><path fill="url(#y)" d="M1273.4 1274.1l-397.5-838 .8-.3 397.4 837.9z"/><linearGradient id="z" gradientUnits="userSpaceOnUse" x1="435.623" y1="1075.174" x2="1273.921" y2="1075.174"><stop offset="0" stop-color="#CCE3FD"/><stop offset="1" stop-color="#99C7FB"/></linearGradient><path fill="url(#z)" d="M1273.6 1274.3l-838-397.5.4-.7 837.9 397.4z"/><linearGradient id="A" gradientUnits="userSpaceOnUse" x1="934.575" y1="916.918" x2="1160.921" y2="916.918"><stop offset="0" stop-color="#CCE3FD"/><stop offset="1" stop-color="#99C7FB"/></linearGradient><path fill="url(#A)" d="M1160.1 1366.8L934.6 467.2l.8-.2 225.5 899.6z"/><linearGradient id="B" gradientUnits="userSpaceOnUse" x1="416.44" y1="1089.754" x2="1160.746" y2="1089.754"><stop offset="0" stop-color="#CCE3FD"/><stop offset="1" stop-color="#99C7FB"/></linearGradient><path fill="url(#B)" d="M1160.3 1367.1l-743.9-554 .5-.6 743.8 553.9z"/><linearGradient id="C" gradientUnits="userSpaceOnUse" x1="985.56" y1="971.923" x2="1032.9" y2="971.923"><stop offset="0" stop-color="#CCE3FD"/><stop offset="1" stop-color="#99C7FB"/></linearGradient><path fill="url(#C)" d="M1032.1 1435.1l-46.5-926.3h.8l46.5 926.2z"/><linearGradient id="D" gradientUnits="userSpaceOnUse" x1="410.11" y1="1091.13" x2="1032.769" y2="1091.13"><stop offset="0" stop-color="#CCE3FD"/><stop offset="1" stop-color="#99C7FB"/></linearGradient><path fill="url(#D)" d="M1032.2 1435.3L410.1 747.5l.6-.6 622.1 687.9z"/><linearGradient id="E" gradientUnits="userSpaceOnUse" x1="890.69" y1="1019.139" x2="1028.942" y2="1019.139"><stop offset="0" stop-color="#99C7FB"/><stop offset="1" stop-color="#CCE3FD"/></linearGradient><path fill="url(#E)" d="M891.5 1477.8l-.8-.1 137.5-917.2.7.1z"/><linearGradient id="F" gradientUnits="userSpaceOnUse" x1="416.885" y1="1079.11" x2="891.398" y2="1079.11"><stop offset="0" stop-color="#CCE3FD"/><stop offset="1" stop-color="#99C7FB"/></linearGradient><path fill="url(#F)" d="M890.7 1477.9L416.9 680.7l.7-.4 473.8 797.2z"/><linearGradient id="G" gradientUnits="userSpaceOnUse" x1="747.542" y1="1054.846" x2="1059.766" y2="1054.846"><stop offset="0" stop-color="#99C7FB"/><stop offset="1" stop-color="#CCE3FD"/></linearGradient><path fill="url(#G)" d="M748.3 1491.8l-.8-.3L1059 617.9l.8.3z"/><linearGradient id="H" gradientUnits="userSpaceOnUse" x1="436.04" y1="1054.846" x2="748.264" y2="1054.846"><stop offset="0" stop-color="#CCE3FD"/><stop offset="1" stop-color="#99C7FB"/></linearGradient><path fill="url(#H)" d="M747.5 1491.8L436 618.2l.8-.3 311.5 873.6z"/><linearGradient id="I" gradientUnits="userSpaceOnUse" x1="604.41" y1="1079.072" x2="1078.924" y2="1079.072"><stop offset="0" stop-color="#99C7FB"/><stop offset="1" stop-color="#CCE3FD"/></linearGradient><path fill="url(#I)" d="M605.1 1477.9l-.7-.4 473.8-797.3.7.4z"/><linearGradient id="J" gradientUnits="userSpaceOnUse" x1="466.867" y1="1019.102" x2="605.119" y2="1019.102"><stop offset="0" stop-color="#CCE3FD"/><stop offset="1" stop-color="#99C7FB"/></linearGradient><path fill="url(#J)" d="M604.3 1477.8L466.9 560.6l.8-.2 137.4 917.2z"/><linearGradient id="K" gradientUnits="userSpaceOnUse" x1="463.051" y1="1091.054" x2="1085.71" y2="1091.054"><stop offset="0" stop-color="#99C7FB"/><stop offset="1" stop-color="#CCE3FD"/></linearGradient><path fill="url(#K)" d="M463.6 1435.3l-.5-.6 622-687.9.6.6z"/><linearGradient id="L" gradientUnits="userSpaceOnUse" x1="462.919" y1="971.848" x2="510.261" y2="971.848"><stop offset="0" stop-color="#99C7FB"/><stop offset="1" stop-color="#CCE3FD"/></linearGradient><path fill="url(#L)" d="M463.7 1435h-.8l46.6-926.3h.8z"/><linearGradient id="M" gradientUnits="userSpaceOnUse" x1="335.092" y1="1089.646" x2="1079.398" y2="1089.646"><stop offset="0" stop-color="#99C7FB"/><stop offset="1" stop-color="#CCE3FD"/></linearGradient><path fill="url(#M)" d="M335.6 1366.9l-.5-.6 743.8-554 .5.7z"/><linearGradient id="N" gradientUnits="userSpaceOnUse" x1="334.916" y1="916.811" x2="561.263" y2="916.811"><stop offset="0" stop-color="#99C7FB"/><stop offset="1" stop-color="#CCE3FD"/></linearGradient><path fill="url(#N)" d="M335.7 1366.7l-.8-.2 225.6-899.6.8.2z"/><linearGradient id="O" gradientUnits="userSpaceOnUse" x1="222.86" y1="1075.223" x2="1060.464" y2="1075.223"><stop offset="0" stop-color="#99C7FB"/><stop offset="1" stop-color="#CCE3FD"/></linearGradient><path fill="url(#O)" d="M223.2 1275l-.3-.7 837.2-398.9.4.7z"/><linearGradient id="P" gradientUnits="userSpaceOnUse" x1="222.648" y1="855.342" x2="619.378" y2="855.342"><stop offset="0" stop-color="#99C7FB"/><stop offset="1" stop-color="#CCE3FD"/></linearGradient><path fill="url(#P)" d="M223.4 1274.8l-.8-.3 396.1-838.7.7.4z"/><linearGradient id="Q" gradientUnits="userSpaceOnUse" x1="130.63" y1="1048.336" x2="1029.628" y2="1048.336"><stop offset="0" stop-color="#99C7FB"/><stop offset="1" stop-color="#CCE3FD"/></linearGradient><path fill="url(#Q)" d="M130.8 1163.1l-.2-.8 898.8-228.7.2.8z"/><linearGradient id="R" gradientUnits="userSpaceOnUse" x1="130.389" y1="789.786" x2="682.392" y2="789.786"><stop offset="0" stop-color="#99C7FB"/><stop offset="1" stop-color="#CCE3FD"/></linearGradient><path fill="url(#R)" d="M131 1162.9l-.6-.5 551.3-745.7.7.4z"/><linearGradient id="S" gradientUnits="userSpaceOnUse" x1="61.916" y1="1010.01" x2="988.065" y2="1010.01"><stop offset="0" stop-color="#99C7FB"/><stop offset="1" stop-color="#CCE3FD"/></linearGradient><path fill="url(#S)" d="M62 1035.3l-.1-.8L988 984.7l.1.8z"/><linearGradient id="T" gradientUnits="userSpaceOnUse" x1="61.656" y1="722.638" x2="747.905" y2="722.638"><stop offset="0" stop-color="#99C7FB"/><stop offset="1" stop-color="#CCE3FD"/></linearGradient><path fill="url(#T)" d="M62.2 1035.2l-.5-.6 685.7-624.5.5.6z"/><linearGradient id="U" gradientUnits="userSpaceOnUse" x1="18.707" y1="960.762" x2="936.497" y2="960.762"><stop offset="0" stop-color="#99C7FB"/><stop offset="1" stop-color="#CCE3FD"/></linearGradient><path fill="url(#U)" d="M936.4 1028.3L18.7 894l.1-.8 917.7 134.3z"/><linearGradient id="V" gradientUnits="userSpaceOnUse" x1="18.553" y1="655.298" x2="814.575" y2="655.298"><stop offset="0" stop-color="#99C7FB"/><stop offset="1" stop-color="#CCE3FD"/></linearGradient><path fill="url(#V)" d="M19 893.9l-.4-.6 795.6-476.6.4.6z"/><linearGradient id="W" gradientUnits="userSpaceOnUse" x1="4.231" y1="903.654" x2="878.077" y2="903.654"><stop offset="0" stop-color="#99C7FB"/><stop offset="1" stop-color="#CCE3FD"/></linearGradient><path fill="url(#W)" d="M877.8 1059.8L4.2 748.3l.3-.8L878.1 1059z"/><linearGradient id="X" gradientUnits="userSpaceOnUse" x1="4.231" y1="592.152" x2="878.077" y2="592.152"><stop offset="0" stop-color="#99C7FB"/><stop offset="1" stop-color="#CCE3FD"/></linearGradient><path fill="url(#X)" d="M4.5 748.3l-.3-.8L877.8 436l.3.8z"/><linearGradient id="Y" gradientUnits="userSpaceOnUse" x1="18.088" y1="841.667" x2="815.767" y2="841.667"><stop offset="0" stop-color="#99C7FB"/><stop offset="1" stop-color="#CCE3FD"/></linearGradient><path fill="url(#Y)" d="M815.4 1078.9L18.1 605.1l.4-.7 797.3 473.8z"/><linearGradient id="Z" gradientUnits="userSpaceOnUse" x1="18.24" y1="535.993" x2="935.559" y2="535.993"><stop offset="0" stop-color="#99C7FB"/><stop offset="1" stop-color="#CCE3FD"/></linearGradient><path fill="url(#Z)" d="M18.4 605.1l-.2-.8 917.2-137.4.2.8z"/><linearGradient id="aa" gradientUnits="userSpaceOnUse" x1="60.734" y1="774.381" x2="749.156" y2="774.381"><stop offset="0" stop-color="#99C7FB"/><stop offset="1" stop-color="#CCE3FD"/></linearGradient><path fill="url(#aa)" d="M748.6 1085.7L60.7 463.6l.6-.5 687.9 622z"/><linearGradient id="ab" gradientUnits="userSpaceOnUse" x1="60.995" y1="486.59" x2="987.31" y2="486.59"><stop offset="0" stop-color="#99C7FB"/><stop offset="1" stop-color="#CCE3FD"/></linearGradient><path fill="url(#ab)" d="M987.3 510.3L61 463.7v-.8l926.3 46.6z"/><linearGradient id="ac" gradientUnits="userSpaceOnUse" x1="129.775" y1="706.649" x2="683.078" y2="706.649"><stop offset="0" stop-color="#99C7FB"/><stop offset="1" stop-color="#CCE3FD"/></linearGradient><path fill="url(#ac)" d="M682.4 1079.3L129.8 334.5l.6-.5 552.7 744.8z"/><linearGradient id="ad" gradientUnits="userSpaceOnUse" x1="130.016" y1="447.795" x2="1029.41" y2="447.795"><stop offset="0" stop-color="#99C7FB"/><stop offset="1" stop-color="#CCE3FD"/></linearGradient><path fill="url(#ad)" d="M1029.2 561.8L130 334.6l.2-.8L1029.4 561z"/><linearGradient id="ae" gradientUnits="userSpaceOnUse" x1="221.867" y1="641.091" x2="620.06" y2="641.091"><stop offset="0" stop-color="#99C7FB"/><stop offset="1" stop-color="#CCE3FD"/></linearGradient><path fill="url(#ae)" d="M619.3 1060.2L221.9 222.3l.7-.4 397.5 838z"/><linearGradient id="af" gradientUnits="userSpaceOnUse" x1="222.08" y1="420.826" x2="1060.378" y2="420.826"><stop offset="0" stop-color="#99C7FB"/><stop offset="1" stop-color="#CCE3FD"/></linearGradient><path fill="url(#af)" d="M1060 619.9L222.1 222.5l.3-.8 838 397.5z"/><linearGradient id="ag" gradientUnits="userSpaceOnUse" x1="334" y1="579.605" x2="561.915" y2="579.605"><stop offset="0" stop-color="#99C7FB"/><stop offset="1" stop-color="#CCE3FD"/></linearGradient><path fill="url(#ag)" d="M561.1 1029.3L334 130.1l.8-.2 227.1 899.2z"/><linearGradient id="ah" gradientUnits="userSpaceOnUse" x1="334.175" y1="406.318" x2="1079.446" y2="406.318"><stop offset="0" stop-color="#99C7FB"/><stop offset="1" stop-color="#CCE3FD"/></linearGradient><path fill="url(#ah)" d="M1079 683L334.2 130.3l.5-.6 744.7 552.6z"/><linearGradient id="ai" gradientUnits="userSpaceOnUse" x1="461.9" y1="524.534" x2="510.858" y2="524.534"><stop offset="0" stop-color="#99C7FB"/><stop offset="1" stop-color="#CCE3FD"/></linearGradient><path fill="url(#ai)" d="M510.1 987.7L461.9 61.5l.8-.1 48.2 926.2z"/><linearGradient id="aj" gradientUnits="userSpaceOnUse" x1="462.033" y1="404.825" x2="1085.89" y2="404.825"><stop offset="0" stop-color="#99C7FB"/><stop offset="1" stop-color="#CCE3FD"/></linearGradient><path fill="url(#aj)" d="M1085.3 748.5L462 61.7l.6-.5L1085.9 748z"/><linearGradient id="ak" gradientUnits="userSpaceOnUse" x1="467.385" y1="477.231" x2="604.036" y2="477.231"><stop offset="0" stop-color="#CCE3FD"/><stop offset="1" stop-color="#99C7FB"/></linearGradient><path fill="url(#ak)" d="M468.2 936l-.8-.1L603.2 18.5l.8.1z"/><linearGradient id="al" gradientUnits="userSpaceOnUse" x1="603.329" y1="416.727" x2="1079.232" y2="416.727"><stop offset="0" stop-color="#99C7FB"/><stop offset="1" stop-color="#CCE3FD"/></linearGradient><path fill="url(#al)" d="M1078.5 815.2L603.3 18.7l.7-.4 475.2 796.4z"/><g fill="#4A9AF6"><circle cx="436.6" cy="877.1" r="2"/><circle cx="418.3" cy="681.9" r="2"/><circle cx="935" cy="1027.9" r="2"/><circle cx="877" cy="1059.4" r="2"/><circle cx="467.3" cy="561.4" r="2"/><circle cx="748" cy="1084.6" r="2"/><circle cx="682.1" cy="1078" r="2"/><circle cx="619" cy="436.4" r="2"/><circle cx="681.5" cy="417.3" r="2"/><circle cx="560.9" cy="1028.4" r="2"/><circle cx="747.6" cy="410.6" r="2"/><circle cx="509.9" cy="986.2" r="2"/><circle cx="813.8" cy="417.3" r="2"/><circle cx="467.8" cy="935.2" r="2"/><circle cx="877" cy="436.9" r="2"/><circle cx="935" cy="467.3" r="2"/><circle cx="418" cy="813.6" r="2"/><circle cx="986" cy="509.9" r="2"/><circle cx="411" cy="748.2" r="2"/><circle cx="1028.4" cy="561.4" r="2"/><circle cx="1059.4" cy="619" r="2"/><circle cx="437.2" cy="619.5" r="2"/><circle cx="1077.9" cy="681.8" r="2"/><circle cx="1084.7" cy="747.5" r="2"/><circle cx="509.9" cy="509.9" r="2"/><circle cx="1078.6" cy="813.5" r="2"/><circle cx="560.9" cy="467.8" r="2"/><circle cx="1059.4" cy="876.4" r="2"/><circle cx="1028.4" cy="934.6" r="2"/><circle cx="986.6" cy="985.7" r="2"/><circle cx="814.3" cy="1078" r="2"/><circle cx="619" cy="1058.8" r="2"/></g><g fill="#0072F6"><circle cx="748.1" cy="4.4" r="3.5"/><circle cx="748.1" cy="4.4" r="3.5"/><circle cx="892.5" cy="18.5" r="3.5"/><circle cx="892.6" cy="18.5" r="3.5"/><circle cx="1032.7" cy="61" r="3.5"/><circle cx="1032.7" cy="61" r="3.5"/><circle cx="1161.7" cy="130.1" r="3.5"/><circle cx="1161.8" cy="130.1" r="3.5"/><circle cx="1161.7" cy="130.1" r="3.5"/><circle cx="1161.8" cy="130.1" r="3.5"/><circle cx="1161.7" cy="130.1" r="3.5"/><circle cx="1161.8" cy="130.1" r="3.5"/><circle cx="1273.9" cy="222.2" r="3.5"/><circle cx="1273.9" cy="222.3" r="3.5"/><circle cx="1366" cy="334.4" r="3.5"/><circle cx="1366" cy="334.4" r="3.5"/><circle cx="1366" cy="334.4" r="3.5"/><circle cx="1366" cy="334.4" r="3.5"/><circle cx="1435.1" cy="463.5" r="3.5"/><circle cx="1435.1" cy="463.5" r="3.5"/><circle cx="1477.5" cy="603.6" r="3.5"/><circle cx="1477.5" cy="603.7" r="3.5"/><circle cx="1491.6" cy="749.4" r="3.5"/><circle cx="1491.6" cy="749.4" r="3.5"/><circle cx="1477.5" cy="892.5" r="3.5"/><circle cx="1477.5" cy="892.6" r="3.5"/><circle cx="1434.5" cy="1033.9" r="3.5"/><circle cx="1434.5" cy="1033.9" r="3.5"/><circle cx="1365.9" cy="1161.7" r="3.5"/><circle cx="1365.9" cy="1161.8" r="3.5"/><circle cx="1273.8" cy="1273.9" r="3.5"/><circle cx="1273.7" cy="1273.9" r="3.5"/><circle cx="1160.5" cy="1366.7" r="3.5"/><circle cx="1160.5" cy="1366.7" r="3.5"/><circle cx="1032.5" cy="1435.1" r="3.5"/><circle cx="1032.5" cy="1435.1" r="3.5"/><circle cx="891.1" cy="1477.7" r="3.5"/><circle cx="891.1" cy="1477.7" r="3.5"/><circle cx="747.9" cy="1491.6" r="3.5"/><circle cx="747.9" cy="1491.6" r="3.5"/><circle cx="604.8" cy="1477.7" r="3.5"/><circle cx="604.7" cy="1477.7" r="3.5"/><circle cx="463.3" cy="1435" r="3.5"/><circle cx="463.3" cy="1435" r="3.5"/><circle cx="335.3" cy="1366.6" r="3.5"/><circle cx="335.3" cy="1366.6" r="3.5"/><circle cx="223" cy="1274.7" r="3.5"/><circle cx="223" cy="1274.7" r="3.5"/><circle cx="130.7" cy="1162.7" r="3.5"/><circle cx="130.7" cy="1162.7" r="3.5"/><circle cx="61.9" cy="1034.9" r="3.5"/><circle cx="61.9" cy="1034.9" r="3.5"/><circle cx="18.8" cy="893.6" r="3.5"/><circle cx="18.8" cy="893.6" r="3.5"/><circle cx="4.4" cy="747.9" r="3.5"/><circle cx="4.4" cy="747.9" r="3.5"/><circle cx="18.3" cy="604.8" r="3.5"/><circle cx="18.3" cy="604.7" r="3.5"/><circle cx="61" cy="463.3" r="3.5"/><circle cx="61" cy="463.3" r="3.5"/><circle cx="130.1" cy="334.3" r="3.5"/><circle cx="130.1" cy="334.2" r="3.5"/><circle cx="222.2" cy="222.1" r="3.5"/><circle cx="222.3" cy="222.1" r="3.5"/><circle cx="334.4" cy="130" r="3.5"/><circle cx="334.4" cy="130" r="3.5"/><circle cx="462.3" cy="61.4" r="3.5"/><circle cx="462.3" cy="61.4" r="3.5"/><circle cx="603.6" cy="18.5" r="3.5"/><circle cx="603.7" cy="18.5" r="3.5"/></g></svg>