<?xml version="1.0" encoding="UTF-8"?>
<svg width="1147px" height="315px" viewBox="0 0 1147 315" version="1.1" xmlns="http://www.w3.org/2000/svg" xmlns:xlink="http://www.w3.org/1999/xlink">
    <g id="Page-1" stroke="none" stroke-width="1" fill="none" fill-rule="evenodd">
        <g id="Intellectsoft_Full_Logo" fill="#1476F2">
            <g id="Logo-Intellectsoft_fi">
                <path d="M157.5,0.3 C243.9,0.3 314.7,71 314.7,157.5 C314.7,244 244,314.7 157.5,314.7 C71,314.7 0.3,244 0.3,157.5 C0.3,71 71.1,0.3 157.5,0.3 Z M234.9,98.2 C235.3,95 233.7,94.6 230.5,94.6 L169.2,94.6 C164.5,94.6 162.2,97.8 160.6,102.5 C159.1,107.3 136.6,188.6 134.7,196.1 C132.8,203.6 125.9,207.1 121.2,207.1 L86,207.1 C81.2,207.1 78.1,213 78.1,216.8 C78.1,219.2 79.7,220.5 82.8,220.5 L162.2,220.5 C169.2,220.5 170.8,212.6 170.8,212.6 L196.7,114.3 C196.7,114.3 198.3,106.4 204.6,106.4 L228.2,106.4 C231,106.4 234.4,102.7 234.9,98.2 Z M86.8,188.2 C85.2,193.7 86.8,196 90.8,196.1 L116.3,196.1 C119.4,196.1 122.1,193.7 123.7,188.2 C125.3,182.8 146.7,106.5 148.1,101.8 C149.5,97 148.1,93.9 145,93.9 L119.1,93.9 C113.6,93.9 112.8,97.1 111.2,101.8 C109.6,106.5 88.4,183.5 86.8,188.2 Z" id="Combined-Shape"></path>
                <g id="Group" transform="translate(382.000000, 83.000000)">
                    <path d="M0.3,12.1 C0.3,10.5 0.8,9.1 1.9,7.9 C3,6.8 4.4,6.2 6.3,6.2 C8.2,6.2 9.6,6.8 10.7,7.9 C11.8,9 12.3,10.4 12.3,12.1 C12.3,13.8 11.8,15.1 10.7,16.2 C9.6,17.3 8.1,17.9 6.3,17.9 C4.4,17.9 3,17.3 1.9,16.2 C0.8,15.1 0.3,13.7 0.3,12.1 Z M10.6,114.2 L1.8,114.2 L1.8,35 L10.6,35 L10.6,114.2 Z" id="Shape"></path>
                    <path d="M42.8,34.9 L43.1,48.4 C46.1,43.5 49.8,39.8 54.2,37.2 C58.6,34.6 63.5,33.4 68.9,33.4 C77.4,33.4 83.7,35.8 87.9,40.6 C92,45.4 94.1,52.6 94.2,62.1 L94.2,114.1 L85.5,114.1 L85.5,62 C85.5,54.9 83.9,49.6 81,46.2 C78,42.7 73.3,41 66.8,41 C61.4,41 56.6,42.7 52.4,46.1 C48.2,49.5 45.1,54.1 43.1,59.8 L43.1,114.1 L34.4,114.1 L34.4,34.9 L42.8,34.9 Z" id="Shape"></path>
                    <path d="M130.4,14.7 L130.4,35 L146.8,35 L146.8,42.2 L130.4,42.2 L130.4,95 C130.4,99.4 131.2,102.7 132.8,104.8 C134.4,107 137,108 140.7,108 C142.2,108 144.5,107.8 147.8,107.3 L148.2,114.4 C145.9,115.2 142.8,115.6 138.8,115.6 C132.8,115.6 128.4,113.9 125.7,110.4 C123,106.9 121.6,101.8 121.6,95 L121.6,42.1 L107,42.1 L107,34.9 L121.6,34.9 L121.6,14.6 L130.4,14.6 L130.4,14.7 Z" id="Shape"></path>
                    <path d="M195.7,115.7 C189,115.7 182.9,114 177.4,110.7 C172,107.4 167.7,102.8 164.7,96.8 C161.7,90.9 160.2,84.2 160.2,76.8 L160.2,73.7 C160.2,66.1 161.7,59.2 164.6,53.1 C167.6,47 171.7,42.2 176.9,38.7 C182.2,35.2 187.9,33.5 194,33.5 C203.6,33.5 211.2,36.8 216.9,43.4 C222.6,50 225.4,58.9 225.4,70.3 L225.4,75.2 L168.9,75.2 L168.9,76.9 C168.9,85.9 171.5,93.4 176.6,99.3 C181.8,105.3 188.2,108.3 196,108.3 C200.7,108.3 204.8,107.4 208.4,105.7 C212,104 215.2,101.3 218.2,97.5 L223.7,101.7 C217.3,111 207.9,115.7 195.7,115.7 Z M194.1,41 C187.5,41 182,43.4 177.4,48.3 C172.9,53.1 170.1,59.6 169.2,67.8 L216.7,67.8 L216.7,66.8 C216.5,59.2 214.3,53 210.2,48.2 C206.1,43.3 200.7,41 194.1,41 Z" id="Shape"></path>
                    <polygon id="Shape" points="252.3 114.2 243.5 114.2 243.5 1.7 252.3 1.7"></polygon>
                    <polygon id="Shape" points="285.9 114.2 277.1 114.2 277.1 1.7 285.9 1.7"></polygon>
                    <path d="M340.4,115.7 C333.7,115.7 327.6,114 322.1,110.7 C316.7,107.4 312.4,102.8 309.4,96.8 C306.4,90.9 304.9,84.2 304.9,76.8 L304.9,73.7 C304.9,66.1 306.4,59.2 309.3,53.1 C312.3,47 316.4,42.2 321.6,38.7 C326.9,35.2 332.6,33.5 338.7,33.5 C348.3,33.5 355.9,36.8 361.6,43.4 C367.3,50 370.1,58.9 370.1,70.3 L370.1,75.2 L313.6,75.2 L313.6,76.9 C313.6,85.9 316.2,93.4 321.3,99.3 C326.5,105.3 332.9,108.3 340.7,108.3 C345.4,108.3 349.5,107.4 353.1,105.7 C356.7,104 359.9,101.3 362.9,97.5 L368.4,101.7 C362,111 352.7,115.7 340.4,115.7 Z M338.8,41 C332.2,41 326.7,43.4 322.1,48.3 C317.6,53.1 314.8,59.6 313.9,67.8 L361.4,67.8 L361.4,66.8 C361.2,59.2 359,53 354.9,48.2 C350.8,43.3 345.4,41 338.8,41 Z" id="Shape"></path>
                    <path d="M416.5,108.3 C422.6,108.3 427.7,106.6 431.8,103.1 C435.9,99.7 438.2,95.2 438.5,89.7 L446.9,89.7 C446.7,94.5 445.1,98.9 442.4,102.9 C439.7,106.9 435.9,110 431.3,112.2 C426.7,114.4 421.7,115.6 416.5,115.6 C406.1,115.6 397.9,112 391.8,104.8 C385.7,97.6 382.7,87.9 382.7,75.6 L382.7,73 C382.7,65.2 384.1,58.3 386.8,52.3 C389.5,46.3 393.5,41.7 398.6,38.4 C403.7,35.1 409.7,33.5 416.5,33.5 C425.2,33.5 432.4,36.1 438,41.3 C443.6,46.5 446.7,53.3 447,61.7 L438.6,61.7 C438.2,55.5 436,50.5 431.9,46.7 C427.8,42.9 422.7,41 416.5,41 C408.6,41 402.4,43.9 398.1,49.6 C393.7,55.3 391.5,63.3 391.5,73.6 L391.5,76.2 C391.5,86.3 393.7,94.2 398.1,99.9 C402.4,105.4 408.5,108.3 416.5,108.3 Z" id="Shape"></path>
                    <path d="M478.1,14.7 L478.1,35 L494.5,35 L494.5,42.2 L478.1,42.2 L478.1,95 C478.1,99.4 478.9,102.7 480.5,104.8 C482.1,107 484.7,108 488.4,108 C489.9,108 492.2,107.8 495.5,107.3 L495.9,114.4 C493.6,115.2 490.5,115.6 486.5,115.6 C480.5,115.6 476.1,113.9 473.4,110.4 C470.7,106.9 469.3,101.8 469.3,95 L469.3,42.1 L454.7,42.1 L454.7,34.9 L469.3,34.9 L469.3,14.6 L478.1,14.6 L478.1,14.7 Z" id="Shape"></path>
                    <path d="M552.3,92.3 C552.3,89.7 551,87.7 548.5,86.2 C545.9,84.7 541.8,83.4 536.2,82.2 C517.4,78.2 507.9,70.2 507.9,58.2 C507.9,51.2 510.8,45.3 516.7,40.6 C522.5,35.9 530.2,33.5 539.6,33.5 C549.7,33.5 557.7,35.9 563.7,40.6 C569.7,45.3 572.7,51.5 572.7,59.1 L551.5,59.1 C551.5,56.1 550.5,53.6 548.6,51.6 C546.6,49.6 543.6,48.6 539.4,48.6 C535.8,48.6 533.1,49.4 531.1,51 C529.1,52.6 528.2,54.7 528.2,57.2 C528.2,59.5 529.3,61.4 531.5,62.9 C533.7,64.3 537.5,65.6 542.7,66.6 C548,67.7 552.4,68.8 556,70.2 C567.2,74.3 572.8,81.4 572.8,91.5 C572.8,98.7 569.7,104.6 563.5,109 C557.3,113.5 549.3,115.7 539.5,115.7 C532.9,115.7 527,114.5 521.8,112.1 C516.6,109.7 512.6,106.5 509.7,102.4 C506.8,98.3 505.3,93.8 505.3,89 L525.4,89 C525.6,92.8 527,95.6 529.6,97.6 C532.2,99.6 535.7,100.6 540,100.6 C544.1,100.6 547.1,99.8 549.2,98.3 C551.3,96.8 552.3,94.8 552.3,92.3 Z" id="Shape"></path>
                    <path d="M583.2,73.8 C583.2,65.9 584.7,58.9 587.7,52.8 C590.7,46.6 595.1,41.9 600.8,38.5 C606.5,35.1 613.1,33.4 620.6,33.4 C631.3,33.4 640,36.7 646.8,43.2 C653.6,49.7 657.3,58.6 658.1,69.9 L658.2,75.3 C658.2,87.5 654.8,97.2 648,104.6 C641.2,111.9 632.1,115.6 620.7,115.6 C609.3,115.6 600.2,111.9 593.3,104.6 C586.4,97.3 583.1,87.3 583.1,74.7 L583.1,73.8 L583.2,73.8 Z M604.4,75.3 C604.4,82.8 605.8,88.6 608.6,92.6 C611.4,96.6 615.5,98.6 620.8,98.6 C625.9,98.6 629.9,96.6 632.8,92.7 C635.7,88.8 637.1,82.5 637.1,73.8 C637.1,66.4 635.7,60.7 632.8,56.6 C629.9,52.5 625.9,50.5 620.6,50.5 C615.4,50.5 611.4,52.5 608.6,56.6 C605.8,60.6 604.4,66.9 604.4,75.3 Z" id="Shape"></path>
                    <path d="M677.1,114.2 L677.1,50.5 L665.3,50.5 L665.3,35 L677.1,35 L677.1,28.3 C677.1,19.4 679.7,12.5 684.8,7.6 C689.9,2.7 697,0.2 706.2,0.2 C709.1,0.2 712.7,0.7 717,1.7 L716.8,18 C715,17.6 712.9,17.3 710.4,17.3 C702.4,17.3 698.5,21.1 698.5,28.6 L698.5,35 L714.2,35 L714.2,50.5 L698.5,50.5 L698.5,114.2 L677.1,114.2 L677.1,114.2 Z" id="Shape"></path>
                    <path d="M750.4,15.5 L750.4,35 L763.9,35 L763.9,50.5 L750.4,50.5 L750.4,90 C750.4,92.9 751,95 752.1,96.3 C753.2,97.6 755.4,98.2 758.5,98.2 C760.8,98.2 762.9,98 764.7,97.7 L764.7,113.7 C760.5,115 756.3,115.6 751.9,115.6 C737.1,115.6 729.5,108.1 729.2,93.1 L729.2,50.4 L717.6,50.4 L717.6,34.9 L729.2,34.9 L729.2,15.4 L750.4,15.4 L750.4,15.5 Z" id="Shape"></path>
                </g>
            </g>
        </g>
    </g>
</svg>