<?xml version="1.0" encoding="UTF-8" standalone="no"?>
<svg width="332px" height="130px" viewBox="0 0 332 130" version="1.1" xmlns="http://www.w3.org/2000/svg" xmlns:xlink="http://www.w3.org/1999/xlink">
    <!-- Generator: Sketch 41.2 (35397) - http://www.bohemiancoding.com/sketch -->
    <title>Artboard</title>
    <desc>Created with Sketch.</desc>
    <defs></defs>
    <g id="Page-1" stroke="none" stroke-width="1" fill="none" fill-rule="evenodd">
        <g id="Artboard">
            <g id="w_menuLogo" transform="translate(0.000000, 32.000000)">
                <g id="Layer_1">
                    <g id="Group" transform="translate(88.766871, 15.022474)" fill="#222428">
                        <polygon id="Shape" points="28.1609299 0.712020906 28.1609299 33.4276307 23.1363901 33.4276307 4.54559251 7.22175958 4.54559251 33.4276307 0.0235066193 33.4276307 0.0235066193 0.712020906 5.21553116 0.712020906 23.4713594 26.7509756 23.4713594 0.712020906"></polygon>
                        <path d="M54.456022,18.7389895 L54.456022,25.7494774 C54.456022,27.5855575 53.7860833,33.7614634 44.2394575,33.7614634 C34.6928318,33.7614634 33.8554085,27.5855575 33.8554085,25.7494774 C33.8554085,20.9089024 38.2100097,18.071324 45.4118502,18.071324 C46.9192121,18.071324 48.4265741,18.2382404 49.9339361,18.4051568 C49.7664514,14.065331 47.9241201,12.3961672 43.2345496,12.3961672 C40.3873103,12.3961672 38.042525,13.0638328 36.5351631,13.5645819 L36.5351631,9.72550523 C38.3774943,9.05783972 40.8897643,8.39017422 43.9044882,8.39017422 C50.6038747,8.39017422 54.456022,12.0623345 54.456022,18.7389895 Z M49.9339361,21.7434843 C48.7615434,21.5765679 47.2541815,21.4096516 45.5793348,21.4096516 C43.4020342,21.4096516 38.3774943,22.0773171 38.3774943,25.582561 C38.3774943,28.4201394 40.3873103,29.7554704 44.2394575,29.7554704 C47.9241201,29.7554704 49.9339361,28.4201394 49.9339361,25.7494774 L49.9339361,21.7434843 L49.9339361,21.7434843 Z" id="Shape"></path>
                        <polygon id="Shape" points="80.9185986 8.89092334 71.5394575 33.2607143 66.849887 33.2607143 57.4707459 8.89092334 62.3278011 8.89092334 69.1946723 27.9193902 76.0615434 8.89092334"></polygon>
                        <path d="M90.8001937,5.05184669 L85.9431385,5.05184669 L85.9431385,0.378188153 L90.8001937,0.378188153 L90.8001937,5.05184669 Z M86.1106232,8.89092334 L90.6327091,8.89092334 L90.6327091,33.2607143 L86.1106232,33.2607143 L86.1106232,8.89092334 Z" id="Shape"></path>
                        <path d="M116.927801,16.0683275 L116.927801,34.2622125 C116.927801,38.1012892 115.08547,42.7749477 106.208783,42.7749477 C103.529028,42.7749477 101.184243,42.441115 99.0069422,41.7734495 L99.0069422,37.4336237 C101.016758,38.1012892 103.361543,38.435122 105.873813,38.435122 C112.5732,38.435122 112.5732,35.7644599 112.5732,34.0952962 L112.5732,31.9253833 C110.898353,32.4261324 109.223507,32.5930488 107.54866,32.5930488 C100.514304,32.5930488 96.6621569,28.253223 96.6621569,20.5750697 C96.6621569,13.3976655 99.6768809,8.05634146 107.213691,8.05634146 C112.908169,8.39017422 116.927801,11.0608362 116.927801,16.0683275 Z M112.405715,15.9014111 C112.405715,15.0668293 112.405715,12.3961672 107.046206,12.3961672 C104.198967,12.3961672 101.016758,13.3976655 101.016758,20.9089024 C101.016758,27.9193902 104.031482,28.7539721 107.381175,28.7539721 C109.056022,28.7539721 110.730869,28.4201394 112.405715,27.7524739 L112.405715,15.9014111 Z" id="Shape"></path>
                        <path d="M128.316758,5.05184669 L123.459703,5.05184669 L123.459703,0.378188153 L128.316758,0.378188153 L128.316758,5.05184669 Z M123.794672,8.89092334 L128.316758,8.89092334 L128.316758,33.2607143 L123.794672,33.2607143 L123.794672,8.89092334 Z" id="Shape"></path>
                        <path d="M135.686083,33.2607143 L135.686083,10.8939199 C135.853568,10.7270035 140.375654,8.39017422 146.070132,8.39017422 C152.267065,8.39017422 155.951727,11.8954181 155.951727,17.5705749 L155.951727,33.2607143 L151.429642,33.2607143 L151.429642,17.2367422 C151.429642,14.8999129 150.759703,12.5630836 145.902648,12.5630836 C143.725347,12.5630836 141.715531,12.8969164 140.208169,13.3976655 L140.208169,33.2607143 L135.686083,33.2607143 Z" id="Shape"></path>
                        <path d="M181.744366,28.0863066 L181.744366,32.0922997 C179.39958,33.0937979 176.552341,33.7614634 173.035163,33.7614634 C167.843139,33.7614634 161.813691,31.5915505 161.813691,21.4096516 C161.813691,18.2382404 161.813691,8.55709059 172.700194,8.55709059 C179.232096,8.55709059 183.586697,13.2307491 183.586697,20.4081533 C183.586697,21.5765679 183.586697,22.7449826 183.419212,23.7464808 L166.503261,23.7464808 C167.1732,28.7539721 170.187924,29.9223868 173.370132,29.9223868 C176.88731,29.9223868 179.73455,29.0878049 181.744366,28.0863066 Z M166.335777,19.5735714 L178.897126,19.5735714 C178.729642,16.735993 177.389764,12.3961672 172.532709,12.3961672 C168.513077,12.3961672 166.670746,14.3991638 166.335777,19.5735714 Z" id="Shape"></path>
                    </g>
                    <g id="Group">
                        <g transform="translate(1.195899, 1.190592)" id="Oval">
                            <ellipse fill="#3362A3" cx="32.4920245" cy="32.4039547" rx="32.3245399" ry="32.2148606"></ellipse>
                            <ellipse fill="#3363A4" cx="32.4920245" cy="32.4039547" rx="32.1570552" ry="32.0479443"></ellipse>
                            <ellipse fill="#3464A4" cx="32.4920245" cy="32.4039547" rx="31.9895706" ry="31.8810279"></ellipse>
                            <ellipse fill="#3465A5" cx="32.4920245" cy="32.4039547" rx="31.8220859" ry="31.7141115"></ellipse>
                            <ellipse fill="#3466A6" cx="32.4920245" cy="32.4039547" rx="31.6546012" ry="31.5471951"></ellipse>
                            <ellipse fill="#3567A6" cx="32.4920245" cy="32.4039547" rx="31.4871166" ry="31.3802787"></ellipse>
                            <ellipse fill="#3568A7" cx="32.4920245" cy="32.4039547" rx="31.3196319" ry="31.2133624"></ellipse>
                            <ellipse fill="#3569A8" cx="32.4920245" cy="32.4039547" rx="31.1521472" ry="31.046446"></ellipse>
                            <ellipse fill="#366AA8" cx="32.4920245" cy="32.4039547" rx="30.9846626" ry="30.8795296"></ellipse>
                            <ellipse fill="#366BA9" cx="32.4920245" cy="32.4039547" rx="30.8171779" ry="30.7126132"></ellipse>
                            <ellipse fill="#366CAA" cx="32.4920245" cy="32.4039547" rx="30.6496933" ry="30.5456969"></ellipse>
                            <ellipse fill="#376DAA" cx="32.4920245" cy="32.4039547" rx="30.4822086" ry="30.3787805"></ellipse>
                            <ellipse fill="#376EAB" cx="32.4920245" cy="32.4039547" rx="30.3147239" ry="30.2118641"></ellipse>
                            <ellipse fill="#386FAB" cx="32.4920245" cy="32.4039547" rx="30.1472393" ry="30.0449477"></ellipse>
                            <ellipse fill="#3870AC" cx="32.4920245" cy="32.4039547" rx="29.9797546" ry="29.8780314"></ellipse>
                            <ellipse fill="#3871AD" cx="32.4920245" cy="32.4039547" rx="29.8122699" ry="29.711115"></ellipse>
                            <ellipse fill="#3972AD" cx="32.4920245" cy="32.4039547" rx="29.6447853" ry="29.5441986"></ellipse>
                            <ellipse fill="#3973AE" cx="32.4920245" cy="32.4039547" rx="29.4773006" ry="29.3772822"></ellipse>
                            <ellipse fill="#3974AF" cx="32.4920245" cy="32.4039547" rx="29.309816" ry="29.2103659"></ellipse>
                            <ellipse fill="#3A75AF" cx="32.4920245" cy="32.4039547" rx="29.1423313" ry="29.0434495"></ellipse>
                            <ellipse fill="#3A76B0" cx="32.4920245" cy="32.4039547" rx="28.9748466" ry="28.8765331"></ellipse>
                            <ellipse fill="#3A77B1" cx="32.4920245" cy="32.4039547" rx="28.807362" ry="28.7096167"></ellipse>
                            <ellipse fill="#3B78B1" cx="32.4920245" cy="32.4039547" rx="28.6398773" ry="28.5427003"></ellipse>
                            <ellipse fill="#3B79B2" cx="32.4920245" cy="32.4039547" rx="28.4723926" ry="28.375784"></ellipse>
                            <ellipse fill="#3B7AB3" cx="32.4920245" cy="32.4039547" rx="28.304908" ry="28.2088676"></ellipse>
                            <ellipse fill="#3C7BB3" cx="32.4920245" cy="32.4039547" rx="28.1374233" ry="28.0419512"></ellipse>
                            <ellipse fill="#3C7CB4" cx="32.4920245" cy="32.4039547" rx="27.9699387" ry="27.8750348"></ellipse>
                            <ellipse fill="#3C7DB5" cx="32.4920245" cy="32.4039547" rx="27.802454" ry="27.7081185"></ellipse>
                            <ellipse fill="#3D7EB5" cx="32.4920245" cy="32.4039547" rx="27.6349693" ry="27.5412021"></ellipse>
                            <ellipse fill="#3D7FB6" cx="32.4920245" cy="32.4039547" rx="27.3" ry="27.2073693"></ellipse>
                            <ellipse fill="#3D80B7" cx="32.4920245" cy="32.4039547" rx="27.1325153" ry="27.040453"></ellipse>
                            <ellipse fill="#3E81B7" cx="32.4920245" cy="32.4039547" rx="26.9650307" ry="26.8735366"></ellipse>
                            <ellipse fill="#3E82B8" cx="32.4920245" cy="32.4039547" rx="26.797546" ry="26.7066202"></ellipse>
                            <ellipse fill="#3E83B9" cx="32.4920245" cy="32.4039547" rx="26.6300613" ry="26.5397038"></ellipse>
                            <ellipse fill="#3F84B9" cx="32.4920245" cy="32.4039547" rx="26.4625767" ry="26.3727875"></ellipse>
                            <ellipse fill="#3F85BA" cx="32.4920245" cy="32.4039547" rx="26.295092" ry="26.2058711"></ellipse>
                            <ellipse fill="#3F86BB" cx="32.4920245" cy="32.4039547" rx="26.1276074" ry="26.0389547"></ellipse>
                            <ellipse fill="#4087BB" cx="32.4920245" cy="32.4039547" rx="25.9601227" ry="25.8720383"></ellipse>
                            <ellipse fill="#4089BC" cx="32.4920245" cy="32.4039547" rx="25.792638" ry="25.705122"></ellipse>
                            <ellipse fill="#418ABC" cx="32.4920245" cy="32.4039547" rx="25.6251534" ry="25.5382056"></ellipse>
                            <ellipse fill="#418BBD" cx="32.4920245" cy="32.4039547" rx="25.4576687" ry="25.3712892"></ellipse>
                            <ellipse fill="#418CBE" cx="32.4920245" cy="32.4039547" rx="25.290184" ry="25.2043728"></ellipse>
                            <ellipse fill="#428DBE" cx="32.4920245" cy="32.4039547" rx="25.1226994" ry="25.0374564"></ellipse>
                            <ellipse fill="#428EBF" cx="32.4920245" cy="32.4039547" rx="24.9552147" ry="24.8705401"></ellipse>
                            <ellipse fill="#428FC0" cx="32.4920245" cy="32.4039547" rx="24.7877301" ry="24.7036237"></ellipse>
                            <ellipse fill="#4390C0" cx="32.4920245" cy="32.4039547" rx="24.6202454" ry="24.5367073"></ellipse>
                            <ellipse fill="#4391C1" cx="32.4920245" cy="32.4039547" rx="24.4527607" ry="24.3697909"></ellipse>
                            <ellipse fill="#4392C2" cx="32.4920245" cy="32.4039547" rx="24.2852761" ry="24.2028746"></ellipse>
                            <ellipse fill="#4493C2" cx="32.4920245" cy="32.4039547" rx="24.1177914" ry="24.0359582"></ellipse>
                            <ellipse fill="#4494C3" cx="32.4920245" cy="32.4039547" rx="23.9503067" ry="23.8690418"></ellipse>
                            <ellipse fill="#4495C4" cx="32.4920245" cy="32.4039547" rx="23.7828221" ry="23.7021254"></ellipse>
                            <ellipse fill="#4596C4" cx="32.4920245" cy="32.4039547" rx="23.6153374" ry="23.5352091"></ellipse>
                            <ellipse fill="#4597C5" cx="32.4920245" cy="32.4039547" rx="23.4478528" ry="23.3682927"></ellipse>
                            <ellipse fill="#4598C6" cx="32.4920245" cy="32.4039547" rx="23.2803681" ry="23.2013763"></ellipse>
                            <ellipse fill="#4699C6" cx="32.4920245" cy="32.4039547" rx="23.1128834" ry="23.0344599"></ellipse>
                            <ellipse fill="#469AC7" cx="32.4920245" cy="32.4039547" rx="22.9453988" ry="22.8675436"></ellipse>
                            <ellipse fill="#469BC8" cx="32.4920245" cy="32.4039547" rx="22.7779141" ry="22.7006272"></ellipse>
                            <ellipse fill="#479CC8" cx="32.4920245" cy="32.4039547" rx="22.6104294" ry="22.5337108"></ellipse>
                            <ellipse fill="#479DC9" cx="32.4920245" cy="32.4039547" rx="22.4429448" ry="22.3667944"></ellipse>
                            <ellipse fill="#479ECA" cx="32.4920245" cy="32.4039547" rx="22.2754601" ry="22.199878"></ellipse>
                            <ellipse fill="#489FCA" cx="32.4920245" cy="32.4039547" rx="22.1079755" ry="22.0329617"></ellipse>
                            <ellipse fill="#48A0CB" cx="32.4920245" cy="32.4039547" rx="21.9404908" ry="21.8660453"></ellipse>
                            <ellipse fill="#48A1CC" cx="32.4920245" cy="32.4039547" rx="21.7730061" ry="21.6991289"></ellipse>
                            <ellipse fill="#49A2CC" cx="32.4920245" cy="32.4039547" rx="21.6055215" ry="21.5322125"></ellipse>
                            <ellipse fill="#49A3CD" cx="32.4920245" cy="32.4039547" rx="21.4380368" ry="21.3652962"></ellipse>
                            <ellipse fill="#4AA4CD" cx="32.4920245" cy="32.4039547" rx="21.2705521" ry="21.1983798"></ellipse>
                            <ellipse fill="#4AA5CE" cx="32.4920245" cy="32.4039547" rx="21.1030675" ry="21.0314634"></ellipse>
                            <ellipse fill="#4AA6CF" cx="32.4920245" cy="32.4039547" rx="20.9355828" ry="20.864547"></ellipse>
                            <ellipse fill="#4BA7CF" cx="32.4920245" cy="32.4039547" rx="20.7680982" ry="20.6976307"></ellipse>
                            <ellipse fill="#4BA8D0" cx="32.4920245" cy="32.4039547" rx="20.6006135" ry="20.5307143"></ellipse>
                            <ellipse fill="#4BA9D1" cx="32.4920245" cy="32.4039547" rx="20.4331288" ry="20.3637979"></ellipse>
                            <ellipse fill="#4CAAD1" cx="32.4920245" cy="32.4039547" rx="20.2656442" ry="20.1968815"></ellipse>
                            <ellipse fill="#4CABD2" cx="32.4920245" cy="32.4039547" rx="20.0981595" ry="20.0299652"></ellipse>
                            <ellipse fill="#4CACD3" cx="32.4920245" cy="32.4039547" rx="19.9306748" ry="19.8630488"></ellipse>
                            <ellipse fill="#4DADD3" cx="32.4920245" cy="32.4039547" rx="19.7631902" ry="19.6961324"></ellipse>
                            <ellipse fill="#4DAED4" cx="32.4920245" cy="32.4039547" rx="19.4282209" ry="19.3622997"></ellipse>
                        </g>
                        <path d="M67.1848563,33.0937979 L58.9781078,23.0788153 L57.6382305,10.2262544 L56.9682919,9.55858885 C56.9682919,9.55858885 50.4363901,8.89092334 44.0719729,8.22325784 L43.7370036,7.88942509 C39.047433,3.88343206 34.1903778,0.0443554007 34.1903778,0.0443554007 L33.1854698,0.0443554007 C33.1854698,0.0443554007 28.3284146,4.05034843 23.4713594,7.88942509 L23.1363901,8.22325784 C16.9394575,9.05783972 10.4075557,9.72550523 10.240071,9.72550523 L9.57013239,10.3931707 C9.57013239,10.3931707 8.90019374,16.9029094 8.23025509,23.2457317 L7.89528576,23.5795645 C3.87565386,28.253223 0.0235066193,33.0937979 0.0235066193,33.2607143 L0.0235066193,34.0952962 C0.0235066193,34.0952962 3.87565386,38.9358711 7.89528576,43.6095296 L8.39773975,44.1102787 C8.90019374,50.453101 9.57013239,56.7959233 9.57013239,56.9628397 L10.240071,57.6305052 C10.240071,57.6305052 16.7719729,58.2981707 23.1363901,58.7989199 L23.4713594,59.1327526 C28.1609299,63.1387456 33.0179851,66.9778223 33.1854698,66.9778223 L34.1903778,66.9778223 L44.2394575,58.7989199 L57.1357766,57.4635889 L57.8057152,56.7959233 C57.8057152,56.7959233 58.4756539,50.2861847 59.1455925,43.9433624 L59.3130772,43.6095296 C63.3327091,38.9358711 67.1848563,33.9283798 67.352341,33.9283798 L67.1848563,33.0937979 Z M56.1308686,11.2277526 L57.3032612,22.4111498 C55.6284146,21.5765679 52.446206,19.7404878 49.2639974,18.2382404 L49.0965128,17.9044077 C47.4216661,14.8999129 45.9143042,11.8954181 45.0768809,10.2262544 C49.7664514,10.5600871 54.456022,11.0608362 56.1308686,11.2277526 Z M39.3824023,48.7839373 C38.544979,48.4501045 36.8701324,47.9493554 35.0278011,47.4486063 C36.7026477,46.9478571 38.042525,46.2801916 39.047433,45.9463589 C39.7173716,45.6125261 40.8897643,45.111777 42.0621569,44.4441115 C41.057249,46.2801916 40.052341,47.9493554 39.549887,48.7839373 L39.3824023,48.7839373 L39.3824023,48.7839373 Z M27.6584759,48.6170209 C27.156022,47.782439 26.151114,46.1132753 25.146206,44.2771951 C26.3185986,44.9448606 27.4909913,45.4456098 28.1609299,45.7794425 C28.9983532,46.1132753 30.5057152,46.7809408 32.1805618,47.2816899 C30.3382305,47.9493554 28.6633839,48.4501045 27.8259606,48.7839373 L27.8259606,48.6170209 L27.6584759,48.6170209 Z M12.752341,35.0967944 C13.757249,36.2652091 15.2646109,38.2682056 16.9394575,40.2712021 L16.9394575,40.2712021 C17.1069422,42.9418641 17.4419115,45.7794425 17.6093962,47.2816899 L10.0725864,43.2756969 C10.742525,41.9403659 11.747433,38.6020383 12.752341,35.0967944 Z M12.752341,32.259216 C11.5799483,28.7539721 10.5750404,25.4156446 10.240071,24.0803136 C11.4124637,23.4126481 14.5946723,21.7434843 17.7768809,20.0743206 C17.6093962,21.7434843 17.2744269,24.4141463 17.1069422,27.0848084 C15.4320956,29.0878049 13.757249,31.0908014 12.752341,32.259216 Z M17.6093962,38.9358711 C15.7670649,36.7659582 13.9247336,34.5960453 13.254795,33.7614634 L13.254795,33.7614634 C13.9247336,32.9268815 15.7670649,30.7569686 17.6093962,28.5870557 C17.9443655,29.588554 18.6143042,31.7584669 19.2842428,33.7614634 C18.6143042,35.7644599 17.9443655,37.9343728 17.6093962,38.9358711 Z M27.9934453,18.5720732 C28.8308686,18.9059059 30.5057152,19.4066551 32.1805618,19.9074042 C30.5057152,20.4081533 28.9983532,21.0758188 28.1609299,21.4096516 C27.4909913,21.7434843 26.3185986,22.2442334 25.146206,22.911899 C26.151114,21.0758188 27.156022,19.4066551 27.6584759,18.5720732 L27.9934453,18.5720732 L27.9934453,18.5720732 Z M39.7173716,18.5720732 C40.2198256,19.4066551 41.2247336,21.0758188 42.2296416,22.911899 C41.057249,22.2442334 40.052341,21.7434843 39.2149177,21.4096516 C38.3774943,21.0758188 36.8701324,20.4081533 35.1952858,19.9074042 C37.037617,19.2397387 38.544979,18.7389895 39.3824023,18.5720732 L39.3824023,18.7389895 L39.7173716,18.5720732 Z M36.7026477,41.7734495 C36.3676784,41.6065331 35.6977397,41.4396167 34.8603164,41.105784 C35.5302551,40.9388676 36.2001937,40.6050348 36.5351631,40.4381185 C36.8701324,40.2712021 37.2051017,40.1042857 37.7075557,39.770453 C37.3725864,40.6050348 37.037617,41.2727003 36.7026477,41.7734495 Z M29.5008072,39.770453 C30.0032612,39.9373693 30.3382305,40.2712021 30.6731999,40.4381185 C31.0081692,40.6050348 31.6781078,40.7719512 32.3480465,41.105784 C31.5106232,41.4396167 30.8406845,41.6065331 30.5057152,41.7734495 C30.3382305,41.2727003 30.0032612,40.6050348 29.5008072,39.770453 Z M30.5057152,25.582561 C30.8406845,25.7494774 31.5106232,25.9163937 32.3480465,26.2502265 C31.6781078,26.5840592 31.0081692,26.7509756 30.5057152,26.917892 C30.1707459,27.0848084 29.8357766,27.2517247 29.3333226,27.4186411 C30.0032612,26.7509756 30.3382305,25.9163937 30.5057152,25.582561 Z M37.8750404,27.4186411 C37.3725864,27.2517247 37.037617,26.917892 36.7026477,26.917892 C36.3676784,26.7509756 35.6977397,26.4171429 34.8603164,26.2502265 C35.6977397,25.9163937 36.3676784,25.7494774 36.7026477,25.582561 C37.037617,25.9163937 37.3725864,26.7509756 37.8750404,27.4186411 Z M36.0327091,39.6035366 C35.6977397,39.4366202 35.1952858,39.2697038 34.5253471,39.1027875 C35.0278011,38.9358711 35.6977397,38.7689547 35.8652244,38.6020383 C36.2001937,38.435122 36.5351631,38.2682056 36.8701324,38.1012892 C36.5351631,38.7689547 36.0327091,39.2697038 36.0327091,39.6035366 Z M30.5057152,38.1012892 C30.8406845,38.2682056 31.3431385,38.435122 31.5106232,38.6020383 C31.8455925,38.7689547 32.3480465,38.9358711 32.8505005,39.1027875 C32.1805618,39.2697038 31.5106232,39.4366202 31.3431385,39.6035366 C31.1756539,39.2697038 30.8406845,38.7689547 30.5057152,38.1012892 Z M31.3431385,27.7524739 C31.6781078,27.9193902 32.1805618,28.0863066 32.8505005,28.253223 C32.3480465,28.4201394 31.6781078,28.5870557 31.3431385,28.7539721 C31.0081692,28.9208885 30.6731999,29.0878049 30.3382305,29.2547213 C30.8406845,28.5870557 31.1756539,27.9193902 31.3431385,27.7524739 Z M36.8701324,29.2547213 C36.5351631,29.0878049 36.0327091,28.9208885 35.8652244,28.7539721 C35.5302551,28.5870557 35.0278011,28.4201394 34.3578624,28.253223 C35.0278011,28.0863066 35.6977397,27.7524739 35.8652244,27.7524739 C36.0327091,27.9193902 36.5351631,28.5870557 36.8701324,29.2547213 Z M36.8701324,36.0982927 C37.037617,35.7644599 37.2051017,35.4306272 37.2051017,35.2637108 C37.3725864,34.929878 37.540071,34.5960453 37.7075557,34.0952962 C37.8750404,34.5960453 38.042525,35.0967944 38.042525,35.2637108 C38.042525,35.5975436 37.540071,35.7644599 36.8701324,36.0982927 Z M35.3627704,38.1012892 C35.1952858,38.1012892 34.6928318,37.9343728 34.1903778,37.7674564 C34.6928318,37.6005401 35.0278011,37.4336237 35.3627704,37.2667073 C35.5302551,37.0997909 35.8652244,37.0997909 36.2001937,36.7659582 C35.8652244,37.4336237 35.5302551,37.9343728 35.3627704,38.1012892 Z M31.1756539,36.9328746 C31.5106232,37.0997909 31.8455925,37.2667073 32.0130772,37.4336237 C32.3480465,37.6005401 32.6830158,37.7674564 33.1854698,37.9343728 C32.6830158,38.1012892 32.1805618,38.2682056 32.0130772,38.2682056 C31.8455925,37.9343728 31.5106232,37.4336237 31.1756539,36.9328746 Z M29.1658379,35.4306272 C29.1658379,35.2637108 29.3333226,34.7629617 29.5008072,34.2622125 C29.6682919,34.7629617 29.8357766,35.0967944 30.0032612,35.4306272 C30.1707459,35.5975436 30.1707459,35.9313763 30.3382305,36.2652091 C29.8357766,35.7644599 29.3333226,35.5975436 29.1658379,35.4306272 Z M30.3382305,31.2577178 C30.1707459,31.5915505 30.0032612,31.9253833 30.0032612,32.0922997 C29.8357766,32.4261324 29.6682919,32.7599652 29.5008072,33.2607143 C29.3333226,32.7599652 29.1658379,32.259216 29.1658379,32.0922997 C29.3333226,31.7584669 29.8357766,31.5915505 30.3382305,31.2577178 Z M31.8455925,29.0878049 C32.0130772,29.0878049 32.5155312,29.2547213 33.0179851,29.4216376 C32.5155312,29.588554 32.1805618,29.7554704 31.8455925,29.9223868 C31.6781078,30.0893031 31.3431385,30.0893031 31.0081692,30.2562195 C31.5106232,29.9223868 31.8455925,29.4216376 31.8455925,29.0878049 Z M36.0327091,30.4231359 C35.6977397,30.2562195 35.3627704,30.0893031 35.1952858,30.0893031 C34.8603164,29.9223868 34.5253471,29.7554704 34.0228931,29.588554 C34.5253471,29.4216376 35.0278011,29.2547213 35.1952858,29.2547213 C35.5302551,29.4216376 35.8652244,29.9223868 36.0327091,30.4231359 Z M36.2001937,34.7629617 C36.0327091,34.929878 35.8652244,35.2637108 35.6977397,35.5975436 C35.3627704,35.7644599 35.0278011,35.9313763 34.6928318,36.0982927 C34.5253471,36.2652091 34.0228931,36.4321254 33.5204391,36.4321254 C33.0179851,36.2652091 32.6830158,36.0982927 32.3480465,36.0982927 C32.1805618,35.9313763 31.8455925,35.7644599 31.3431385,35.5975436 C31.1756539,35.2637108 31.0081692,34.929878 30.8406845,34.7629617 C30.6731999,34.5960453 30.5057152,34.0952962 30.5057152,33.594547 C30.6731999,33.0937979 30.8406845,32.7599652 30.8406845,32.4261324 C31.0081692,32.259216 31.1756539,31.9253833 31.3431385,31.5915505 C31.6781078,31.4246341 32.0130772,31.2577178 32.1805618,31.0908014 C32.3480465,30.923885 32.8505005,30.7569686 33.3529545,30.7569686 C33.8554085,30.923885 34.1903778,31.0908014 34.5253471,31.0908014 C34.6928318,31.2577178 35.0278011,31.4246341 35.3627704,31.5915505 C35.5302551,31.9253833 35.6977397,32.259216 35.8652244,32.4261324 C36.0327091,32.5930488 36.2001937,33.0937979 36.2001937,33.594547 C36.3676784,34.0952962 36.2001937,34.5960453 36.2001937,34.7629617 Z M36.7026477,33.9283798 C36.8701324,34.4291289 37.037617,34.7629617 37.037617,34.929878 C36.8701324,35.0967944 36.3676784,35.2637108 36.0327091,35.5975436 C36.2001937,35.2637108 36.3676784,35.0967944 36.3676784,34.929878 C36.3676784,34.5960453 36.5351631,34.2622125 36.7026477,33.9283798 Z M35.5302551,35.9313763 C35.1952858,36.4321254 35.0278011,36.7659582 34.8603164,36.9328746 C34.6928318,36.9328746 34.3578624,36.7659582 33.8554085,36.5990418 C34.1903778,36.4321254 34.5253471,36.2652091 34.6928318,36.2652091 C35.0278011,36.2652091 35.1952858,36.0982927 35.5302551,35.9313763 Z M33.3529545,36.5990418 C32.8505005,36.7659582 32.5155312,36.9328746 32.3480465,36.9328746 C32.1805618,36.7659582 32.0130772,36.2652091 31.6781078,35.9313763 C32.0130772,36.0982927 32.1805618,36.2652091 32.3480465,36.2652091 C32.6830158,36.4321254 33.0179851,36.5990418 33.3529545,36.5990418 Z M31.3431385,35.5975436 C30.8406845,35.2637108 30.5057152,35.0967944 30.3382305,34.929878 C30.3382305,34.7629617 30.5057152,34.4291289 30.6731999,33.9283798 C30.8406845,34.2622125 31.0081692,34.5960453 31.0081692,34.929878 L31.3431385,35.5975436 Z M30.6731999,33.4276307 C30.5057152,32.9268815 30.3382305,32.5930488 30.3382305,32.4261324 C30.5057152,32.259216 30.8406845,32.0922997 31.3431385,31.7584669 C31.1756539,32.0922997 31.0081692,32.259216 31.0081692,32.4261324 C30.8406845,32.7599652 30.8406845,33.0937979 30.6731999,33.4276307 Z M31.8455925,31.4246341 C32.1805618,30.923885 32.3480465,30.5900523 32.5155312,30.4231359 C32.6830158,30.4231359 33.0179851,30.5900523 33.5204391,30.7569686 C33.1854698,30.923885 32.8505005,31.0908014 32.5155312,31.0908014 C32.3480465,31.0908014 32.0130772,31.2577178 31.8455925,31.4246341 Z M33.8554085,30.7569686 C34.3578624,30.5900523 34.6928318,30.4231359 34.8603164,30.4231359 C35.0278011,30.5900523 35.1952858,31.0908014 35.5302551,31.4246341 C35.1952858,31.2577178 35.0278011,31.0908014 34.8603164,31.0908014 C34.6928318,30.923885 34.1903778,30.7569686 33.8554085,30.7569686 Z M36.3676784,32.4261324 C36.3676784,32.259216 36.2001937,31.9253833 36.0327091,31.7584669 C36.5351631,32.0922997 36.8701324,32.259216 37.037617,32.4261324 C37.037617,32.5930488 36.8701324,32.9268815 36.7026477,33.4276307 C36.5351631,33.0937979 36.3676784,32.7599652 36.3676784,32.4261324 Z M35.8652244,31.5915505 C35.5302551,31.0908014 35.1952858,30.4231359 35.1952858,30.2562195 L35.3627704,30.2562195 C35.6977397,30.4231359 36.0327091,30.5900523 36.5351631,30.923885 C36.8701324,31.4246341 37.037617,31.9253833 37.2051017,32.0922997 C37.2051017,32.0922997 37.2051017,32.0922997 37.2051017,32.259216 C36.8701324,32.0922997 36.3676784,31.7584669 35.8652244,31.5915505 Z M34.8603164,30.2562195 C34.6928318,30.2562195 34.1903778,30.4231359 33.6879238,30.5900523 C33.1854698,30.4231359 32.5155312,30.2562195 32.5155312,30.2562195 C32.8505005,30.0893031 33.3529545,29.9223868 33.6879238,29.7554704 C34.1903778,29.9223868 34.5253471,30.0893031 34.8603164,30.2562195 Z M32.1805618,30.2562195 L32.1805618,30.2562195 C32.1805618,30.4231359 31.8455925,30.923885 31.5106232,31.4246341 C31.0081692,31.7584669 30.3382305,32.0922997 30.1707459,32.0922997 C30.1707459,32.0922997 30.1707459,32.0922997 30.1707459,31.9253833 C30.3382305,31.5915505 30.5057152,31.2577178 30.8406845,30.7569686 C31.3431385,30.5900523 31.8455925,30.4231359 32.1805618,30.2562195 Z M30.1707459,32.4261324 C30.1707459,32.5930488 30.3382305,33.0937979 30.5057152,33.594547 C30.3382305,34.0952962 30.1707459,34.7629617 30.1707459,34.7629617 C30.0032612,34.4291289 29.8357766,33.9283798 29.6682919,33.594547 C29.8357766,33.2607143 30.0032612,32.7599652 30.1707459,32.4261324 Z M30.3382305,35.0967944 C30.1707459,35.0967944 30.1707459,35.0967944 30.3382305,35.0967944 C30.5057152,35.0967944 31.0081692,35.4306272 31.5106232,35.7644599 C31.8455925,36.2652091 32.1805618,36.9328746 32.1805618,37.0997909 L32.1805618,37.0997909 C31.8455925,36.9328746 31.3431385,36.7659582 30.8406845,36.4321254 C30.6731999,35.9313763 30.3382305,35.4306272 30.3382305,35.0967944 Z M32.3480465,37.0997909 C32.5155312,37.0997909 33.0179851,36.9328746 33.5204391,36.7659582 C34.0228931,36.9328746 34.6928318,37.0997909 34.6928318,37.0997909 C34.3578624,37.2667073 33.8554085,37.4336237 33.5204391,37.6005401 C33.1854698,37.4336237 32.6830158,37.2667073 32.3480465,37.0997909 Z M35.1952858,37.0997909 C35.1952858,37.0997909 35.0278011,37.0997909 35.1952858,37.0997909 C35.1952858,36.9328746 35.5302551,36.4321254 35.8652244,35.9313763 C36.3676784,35.5975436 37.037617,35.2637108 37.2051017,35.2637108 C37.2051017,35.2637108 37.2051017,35.2637108 37.2051017,35.4306272 C37.037617,35.7644599 36.8701324,36.0982927 36.5351631,36.5990418 C35.8652244,36.5990418 35.3627704,36.9328746 35.1952858,37.0997909 Z M37.2051017,34.929878 C37.2051017,34.7629617 37.037617,34.2622125 36.8701324,33.7614634 C37.037617,33.2607143 37.2051017,32.5930488 37.2051017,32.5930488 C37.3725864,32.9268815 37.540071,33.4276307 37.7075557,33.7614634 C37.3725864,34.0952962 37.2051017,34.5960453 37.2051017,34.929878 Z M37.3725864,32.0922997 C37.2051017,31.9253833 37.2051017,31.5915505 37.037617,31.2577178 C37.540071,31.5915505 38.042525,31.9253833 38.2100097,31.9253833 C38.2100097,32.0922997 38.042525,32.5930488 37.8750404,33.0937979 C37.540071,32.7599652 37.3725864,32.259216 37.3725864,32.0922997 Z M36.7026477,30.7569686 C36.3676784,30.2562195 36.0327091,29.7554704 35.8652244,29.4216376 C36.2001937,29.588554 36.7026477,29.9223868 37.3725864,30.0893031 C37.7075557,30.5900523 37.8750404,31.0908014 38.042525,31.5915505 C37.7075557,31.2577178 37.2051017,30.923885 36.7026477,30.7569686 Z M35.0278011,28.9208885 C34.6928318,29.0878049 34.1903778,29.2547213 33.6879238,29.4216376 C33.1854698,29.2547213 32.6830158,29.0878049 32.3480465,28.9208885 C32.6830158,28.7539721 33.1854698,28.5870557 33.6879238,28.4201394 C34.1903778,28.5870557 34.5253471,28.7539721 35.0278011,28.9208885 Z M31.5106232,29.2547213 C31.3431385,29.588554 31.0081692,30.0893031 30.6731999,30.5900523 C30.1707459,30.923885 29.6682919,31.2577178 29.3333226,31.4246341 C29.5008072,31.0908014 29.8357766,30.5900523 30.0032612,29.9223868 C30.5057152,29.7554704 31.0081692,29.4216376 31.5106232,29.2547213 Z M28.6633839,31.4246341 C28.4958993,31.7584669 28.3284146,32.259216 28.1609299,32.9268815 C27.9934453,32.259216 27.8259606,31.5915505 27.6584759,31.4246341 C27.9934453,31.2577178 28.4958993,30.923885 29.1658379,30.5900523 C28.9983532,30.923885 28.8308686,31.2577178 28.6633839,31.4246341 Z M28.8308686,32.259216 C28.9983532,32.5930488 29.1658379,33.0937979 29.3333226,33.594547 C29.1658379,34.0952962 28.9983532,34.5960453 28.8308686,34.929878 C28.6633839,34.5960453 28.4958993,34.0952962 28.3284146,33.594547 C28.6633839,33.2607143 28.8308686,32.7599652 28.8308686,32.259216 Z M28.6633839,35.7644599 C28.8308686,36.0982927 28.9983532,36.4321254 29.1658379,36.7659582 C28.4958993,36.4321254 27.8259606,36.0982927 27.6584759,35.9313763 C27.8259606,35.5975436 27.9934453,35.0967944 28.1609299,34.4291289 C28.3284146,34.929878 28.4958993,35.5975436 28.6633839,35.7644599 Z M29.3333226,35.9313763 C29.6682919,36.0982927 30.1707459,36.4321254 30.6731999,36.7659582 C31.0081692,37.2667073 31.3431385,37.7674564 31.5106232,38.1012892 C31.1756539,37.9343728 30.6731999,37.6005401 30.0032612,37.2667073 C29.6682919,36.7659582 29.5008072,36.2652091 29.3333226,35.9313763 Z M32.3480465,38.435122 C32.6830158,38.2682056 33.1854698,38.1012892 33.6879238,37.9343728 C34.1903778,38.1012892 34.6928318,38.2682056 35.0278011,38.435122 C34.6928318,38.6020383 34.1903778,38.7689547 33.6879238,38.9358711 C33.1854698,38.7689547 32.6830158,38.6020383 32.3480465,38.435122 Z M35.8652244,38.1012892 C36.0327091,37.7674564 36.3676784,37.2667073 36.7026477,36.7659582 C37.2051017,36.4321254 37.7075557,36.0982927 38.042525,35.9313763 C37.8750404,36.2652091 37.540071,36.7659582 37.3725864,37.4336237 C36.7026477,37.6005401 36.2001937,37.9343728 35.8652244,38.1012892 Z M38.544979,35.7644599 C38.7124637,35.4306272 38.8799483,34.929878 39.047433,34.2622125 C39.2149177,34.929878 39.3824023,35.5975436 39.549887,35.7644599 C39.2149177,35.9313763 38.7124637,36.2652091 38.042525,36.5990418 C38.2100097,36.4321254 38.3774943,36.0982927 38.544979,35.7644599 Z M38.3774943,34.929878 C38.2100097,34.5960453 38.042525,34.0952962 37.8750404,33.594547 C38.042525,33.0937979 38.2100097,32.5930488 38.3774943,32.259216 C38.544979,32.5930488 38.7124637,33.0937979 38.8799483,33.594547 C38.7124637,34.0952962 38.544979,34.5960453 38.3774943,34.929878 Z M38.544979,31.4246341 C38.3774943,31.0908014 38.2100097,30.7569686 38.042525,30.4231359 C38.7124637,30.7569686 39.3824023,31.0908014 39.549887,31.2577178 C39.3824023,31.5915505 39.2149177,32.0922997 39.047433,32.7599652 C38.8799483,32.259216 38.7124637,31.7584669 38.544979,31.4246341 Z M37.7075557,29.7554704 C37.3725864,29.0878049 36.8701324,28.253223 36.5351631,27.7524739 C37.037617,27.9193902 37.7075557,28.4201394 38.544979,28.7539721 C38.8799483,29.588554 39.3824023,30.2562195 39.549887,30.7569686 C39.047433,30.5900523 38.3774943,30.0893031 37.7075557,29.7554704 Z M35.5302551,27.2517247 C35.0278011,27.4186411 34.3578624,27.5855575 33.6879238,27.9193902 C33.0179851,27.7524739 32.1805618,27.4186411 31.8455925,27.2517247 C32.3480465,27.0848084 33.0179851,26.7509756 33.6879238,26.5840592 C34.3578624,26.917892 35.0278011,27.0848084 35.5302551,27.2517247 Z M30.6731999,27.7524739 C30.3382305,28.253223 30.0032612,28.9208885 29.5008072,29.7554704 C28.8308686,30.0893031 27.9934453,30.5900523 27.4909913,30.923885 C27.6584759,30.4231359 28.1609299,29.7554704 28.4958993,28.9208885 C29.5008072,28.4201394 30.1707459,27.9193902 30.6731999,27.7524739 Z M26.8210526,30.5900523 C26.653568,30.923885 26.3185986,31.5915505 26.151114,32.4261324 C25.8161447,31.5915505 25.64866,30.923885 25.4811753,30.5900523 C25.8161447,30.4231359 26.4860833,29.9223868 27.3235066,29.588554 C27.156022,29.9223868 26.9885373,30.4231359 26.8210526,30.5900523 Z M27.3235066,31.7584669 C27.4909913,32.259216 27.6584759,32.9268815 27.9934453,33.594547 C27.8259606,34.2622125 27.4909913,35.0967944 27.3235066,35.4306272 C27.156022,34.929878 26.8210526,34.2622125 26.653568,33.594547 C26.8210526,32.9268815 27.156022,32.259216 27.3235066,31.7584669 Z M26.8210526,36.5990418 C26.9885373,36.9328746 27.156022,37.2667073 27.3235066,37.7674564 C26.4860833,37.2667073 25.8161447,36.9328746 25.4811753,36.7659582 C25.64866,36.4321254 25.8161447,35.7644599 26.151114,34.929878 C26.4860833,35.5975436 26.653568,36.2652091 26.8210526,36.5990418 Z M27.6584759,36.5990418 C28.1609299,36.9328746 28.8308686,37.2667073 29.6682919,37.7674564 C30.0032612,38.435122 30.5057152,39.2697038 30.8406845,39.770453 C30.3382305,39.6035366 29.6682919,39.1027875 28.8308686,38.7689547 C28.3284146,37.7674564 27.9934453,37.0997909 27.6584759,36.5990418 Z M31.8455925,39.9373693 C32.3480465,39.770453 33.0179851,39.6035366 33.6879238,39.2697038 C34.3578624,39.4366202 35.1952858,39.770453 35.5302551,39.9373693 C35.0278011,40.1042857 34.3578624,40.4381185 33.6879238,40.6050348 C33.0179851,40.4381185 32.3480465,40.2712021 31.8455925,39.9373693 Z M36.5351631,39.6035366 C36.8701324,39.1027875 37.2051017,38.435122 37.7075557,37.6005401 C38.3774943,37.2667073 39.2149177,36.7659582 39.7173716,36.4321254 C39.549887,36.9328746 39.047433,37.6005401 38.7124637,38.435122 C37.7075557,38.9358711 37.037617,39.2697038 36.5351631,39.6035366 Z M40.3873103,36.5990418 C40.554795,36.2652091 40.8897643,35.5975436 41.057249,34.7629617 C41.3922183,35.5975436 41.5597029,36.2652091 41.7271876,36.5990418 C41.3922183,36.7659582 40.7222796,37.2667073 39.8848563,37.6005401 C40.052341,37.4336237 40.2198256,36.9328746 40.3873103,36.5990418 Z M40.052341,35.5975436 C39.8848563,35.0967944 39.7173716,34.4291289 39.3824023,33.7614634 C39.549887,33.0937979 39.8848563,32.259216 40.052341,31.9253833 C40.2198256,32.4261324 40.554795,33.0937979 40.7222796,33.7614634 C40.3873103,34.2622125 40.2198256,34.929878 40.052341,35.5975436 Z M40.3873103,30.5900523 C40.2198256,30.2562195 40.052341,29.9223868 39.8848563,29.4216376 C40.7222796,29.9223868 41.3922183,30.2562195 41.7271876,30.4231359 C41.5597029,30.7569686 41.3922183,31.4246341 41.057249,32.259216 C40.8897643,31.7584669 40.554795,31.0908014 40.3873103,30.5900523 Z M39.2149177,28.253223 C38.7124637,27.4186411 38.2100097,26.5840592 37.8750404,25.9163937 C38.544979,26.2502265 39.3824023,26.7509756 40.3873103,27.2517247 C40.8897643,28.0863066 41.3922183,29.0878049 41.7271876,29.7554704 C40.8897643,29.0878049 40.052341,28.5870557 39.2149177,28.253223 Z M37.7075557,24.7479791 C37.2051017,24.4141463 36.2001937,24.0803136 35.1952858,23.7464808 C36.3676784,23.4126481 37.3725864,23.0788153 37.8750404,22.911899 C38.2100097,23.4126481 38.7124637,24.4141463 39.3824023,25.582561 C38.7124637,25.2487282 38.042525,24.9148955 37.7075557,24.7479791 Z M35.8652244,25.0818118 C35.1952858,25.2487282 34.3578624,25.582561 33.5204391,25.9163937 C32.6830158,25.582561 31.8455925,25.4156446 31.1756539,25.0818118 C31.8455925,24.7479791 32.6830158,24.5810627 33.5204391,24.24723 C34.5253471,24.5810627 35.1952858,24.7479791 35.8652244,25.0818118 Z M29.6682919,24.7479791 C29.1658379,24.9148955 28.6633839,25.2487282 27.9934453,25.582561 C28.6633839,24.4141463 29.1658379,23.4126481 29.5008072,22.911899 C30.0032612,23.0788153 31.0081692,23.4126481 32.1805618,23.7464808 C31.1756539,24.0803136 30.1707459,24.4141463 29.6682919,24.7479791 Z M29.5008072,25.7494774 C29.1658379,26.4171429 28.6633839,27.2517247 28.1609299,28.0863066 C27.3235066,28.5870557 26.4860833,29.0878049 25.8161447,29.4216376 C26.151114,28.7539721 26.653568,27.9193902 27.156022,26.917892 C27.9934453,26.5840592 28.8308686,26.0833101 29.5008072,25.7494774 Z M24.643752,29.588554 C24.3087827,30.0893031 23.9738134,31.0908014 23.638844,32.0922997 C23.3038747,30.923885 22.9689054,29.9223868 22.8014207,29.4216376 C23.3038747,29.0878049 24.3087827,28.5870557 25.4811753,27.9193902 C25.146206,28.5870557 24.8112367,29.2547213 24.643752,29.588554 Z M24.9787213,31.4246341 C25.146206,32.0922997 25.4811753,32.9268815 25.8161447,33.7614634 C25.4811753,34.5960453 25.3136907,35.4306272 24.9787213,36.0982927 C24.643752,35.4306272 24.4762674,34.5960453 24.141298,33.7614634 C24.4762674,32.9268815 24.8112367,32.0922997 24.9787213,31.4246341 Z M24.643752,37.6005401 C24.8112367,38.1012892 25.146206,38.6020383 25.4811753,39.2697038 C24.3087827,38.6020383 23.3038747,38.1012892 22.8014207,37.7674564 C22.9689054,37.2667073 23.3038747,36.2652091 23.638844,35.0967944 C23.9738134,36.0982927 24.3087827,37.0997909 24.643752,37.6005401 Z M25.8161447,37.7674564 C26.4860833,38.1012892 27.3235066,38.6020383 28.1609299,39.1027875 C28.6633839,39.9373693 29.1658379,40.7719512 29.5008072,41.4396167 C28.8308686,41.105784 27.9934453,40.6050348 26.9885373,40.1042857 C26.4860833,39.2697038 26.151114,38.435122 25.8161447,37.7674564 Z M29.6682919,42.6080314 C30.1707459,42.9418641 31.1756539,43.2756969 32.1805618,43.6095296 C31.0081692,43.9433624 30.0032612,44.2771951 29.5008072,44.4441115 C29.1658379,43.9433624 28.6633839,42.9418641 27.9934453,41.7734495 C28.6633839,42.1072822 29.1658379,42.441115 29.6682919,42.6080314 Z M31.3431385,42.2741986 C32.0130772,42.1072822 32.8505005,41.7734495 33.6879238,41.4396167 C34.5253471,41.7734495 35.3627704,41.9403659 36.0327091,42.2741986 C35.3627704,42.6080314 34.5253471,42.7749477 33.6879238,43.1087805 C32.8505005,42.7749477 32.0130772,42.6080314 31.3431385,42.2741986 Z M37.540071,42.6080314 C38.042525,42.441115 38.544979,42.1072822 39.2149177,41.7734495 C38.544979,42.9418641 38.042525,43.9433624 37.7075557,44.4441115 C37.2051017,44.2771951 36.2001937,43.9433624 35.0278011,43.6095296 C36.2001937,43.2756969 37.037617,42.9418641 37.540071,42.6080314 Z M37.8750404,41.4396167 C38.2100097,40.7719512 38.7124637,39.9373693 39.2149177,39.1027875 C40.052341,38.6020383 40.8897643,38.1012892 41.5597029,37.7674564 C41.2247336,38.435122 40.7222796,39.2697038 40.2198256,40.2712021 C39.3824023,40.7719512 38.544979,41.105784 37.8750404,41.4396167 Z M42.7320956,37.6005401 C43.0670649,37.0997909 43.4020342,36.0982927 43.7370036,35.0967944 C44.0719729,36.2652091 44.4069422,37.2667073 44.5744269,37.7674564 C44.0719729,38.1012892 43.0670649,38.6020383 41.8946723,39.2697038 C42.2296416,38.6020383 42.3971263,38.1012892 42.7320956,37.6005401 Z M42.2296416,35.9313763 C42.0621569,35.2637108 41.7271876,34.4291289 41.3922183,33.594547 C41.7271876,32.7599652 41.8946723,31.9253833 42.2296416,31.2577178 C42.5646109,31.9253833 42.7320956,32.7599652 43.0670649,33.594547 C42.8995802,34.4291289 42.5646109,35.2637108 42.2296416,35.9313763 Z M42.7320956,29.588554 C42.5646109,29.0878049 42.2296416,28.5870557 41.8946723,27.9193902 C43.0670649,28.5870557 44.0719729,29.0878049 44.5744269,29.4216376 C44.4069422,29.9223868 44.0719729,30.923885 43.7370036,32.0922997 C43.2345496,31.0908014 42.8995802,30.2562195 42.7320956,29.588554 Z M40.8897643,26.4171429 C39.8848563,24.5810627 38.8799483,22.7449826 38.544979,22.2442334 L38.7124637,22.2442334 C39.7173716,22.7449826 41.2247336,23.5795645 42.8995802,24.4141463 C43.7370036,26.0833101 44.5744269,27.5855575 45.0768809,28.5870557 L45.0768809,28.7539721 C44.5744269,28.4201394 42.7320956,27.4186411 40.8897643,26.4171429 Z M33.6879238,23.2457317 C31.8455925,22.5780662 30.1707459,22.0773171 29.6682919,21.9104007 C30.8406845,21.4096516 32.1805618,20.9089024 33.6879238,20.4081533 C35.1952858,20.9089024 36.7026477,21.4096516 37.7075557,21.9104007 C37.2051017,22.0773171 35.3627704,22.5780662 33.6879238,23.2457317 Z M26.3185986,26.4171429 C24.4762674,27.4186411 22.6339361,28.4201394 22.1314821,28.7539721 L22.1314821,28.5870557 C22.6339361,27.5855575 23.4713594,26.0833101 24.3087827,24.4141463 C25.9836293,23.5795645 27.4909913,22.7449826 28.4958993,22.2442334 L28.6633839,22.2442334 C28.3284146,22.7449826 27.3235066,24.5810627 26.3185986,26.4171429 Z M21.7965128,29.588554 C21.9639974,30.0893031 22.4664514,31.9253833 23.1363901,33.594547 C22.4664514,35.4306272 21.9639974,37.0997909 21.7965128,37.6005401 C21.2940588,36.4321254 20.7916048,35.0967944 20.2891508,33.594547 C20.7916048,32.0922997 21.2940588,30.7569686 21.7965128,29.588554 Z M26.3185986,40.9388676 C27.3235066,42.7749477 28.3284146,44.6110279 28.6633839,45.111777 C28.6633839,45.111777 28.6633839,45.111777 28.4958993,45.111777 C27.4909913,44.6110279 25.9836293,43.776446 24.3087827,42.9418641 C23.4713594,41.2727003 22.6339361,39.770453 22.1314821,38.7689547 L22.1314821,38.6020383 C22.6339361,38.9358711 24.4762674,39.9373693 26.3185986,40.9388676 Z M33.6879238,44.1102787 C35.5302551,44.7779443 37.2051017,45.2786934 37.7075557,45.4456098 C36.5351631,45.9463589 35.1952858,46.447108 33.6879238,46.9478571 C32.1805618,46.447108 30.6731999,45.9463589 29.6682919,45.4456098 C30.1707459,45.2786934 31.8455925,44.7779443 33.6879238,44.1102787 Z M40.8897643,40.9388676 C42.7320956,39.9373693 44.5744269,38.9358711 45.0768809,38.6020383 L45.0768809,38.7689547 C44.5744269,39.770453 43.7370036,41.2727003 42.8995802,42.9418641 C41.2247336,43.776446 39.549887,44.7779443 38.7124637,45.111777 C38.7124637,45.111777 38.7124637,45.111777 38.544979,45.111777 C38.8799483,44.6110279 39.8848563,42.7749477 40.8897643,40.9388676 Z M45.4118502,37.7674564 C45.2443655,37.2667073 44.7419115,35.4306272 44.0719729,33.7614634 C44.7419115,31.9253833 45.2443655,30.2562195 45.4118502,29.7554704 C45.9143042,30.923885 46.4167582,32.259216 46.9192121,33.7614634 C46.4167582,35.0967944 45.9143042,36.5990418 45.4118502,37.7674564 Z M45.9143042,28.253223 C45.5793348,27.5855575 45.0768809,26.4171429 44.4069422,25.2487282 C46.2492735,26.2502265 47.9241201,27.2517247 48.7615434,27.7524739 L48.7615434,27.9193902 L48.9290281,27.9193902 C48.7615434,28.7539721 48.0916048,30.4231359 47.4216661,32.259216 C46.9192121,30.5900523 46.4167582,29.0878049 45.9143042,28.253223 Z M43.5695189,23.7464808 C42.5646109,21.9104007 41.3922183,19.9074042 40.7222796,18.7389895 C43.7370036,19.0728223 46.5842428,19.2397387 47.9241201,19.4066551 L48.5940588,26.5840592 C47.4216661,25.9163937 45.5793348,24.7479791 43.5695189,23.7464808 Z M33.6879238,19.4066551 C31.5106232,18.7389895 29.5008072,18.071324 28.4958993,17.7374913 C30.6731999,15.9014111 32.8505005,14.065331 33.6879238,13.3976655 L33.6879238,13.3976655 C34.5253471,14.065331 36.7026477,15.9014111 38.8799483,17.7374913 C37.8750404,18.071324 35.6977397,18.7389895 33.6879238,19.4066551 Z M23.638844,23.7464808 C21.7965128,24.7479791 19.7866968,25.9163937 18.6143042,26.5840592 C18.9492735,23.5795645 19.1167582,20.7419861 19.2842428,19.4066551 C20.4566355,19.2397387 23.4713594,18.9059059 26.4860833,18.7389895 C25.8161447,19.9074042 24.8112367,21.9104007 23.638844,23.7464808 Z M22.8014207,25.2487282 C22.1314821,26.4171429 21.6290281,27.4186411 21.2940588,28.253223 C20.9590894,29.0878049 20.2891508,30.5900523 19.7866968,32.259216 C19.2842428,30.5900523 18.6143042,28.9208885 18.4468195,28.0863066 L18.4468195,28.0863066 L18.4468195,27.5855575 C19.4517275,27.2517247 21.1265741,26.2502265 22.8014207,25.2487282 Z M19.7866968,35.0967944 C20.2891508,36.7659582 20.9590894,38.2682056 21.2940588,39.1027875 C21.6290281,39.770453 22.1314821,40.9388676 22.8014207,42.1072822 C20.9590894,41.105784 19.2842428,40.1042857 18.4468195,39.6035366 L18.4468195,39.1027875 L18.4468195,39.1027875 C18.7817888,38.2682056 19.2842428,36.7659582 19.7866968,35.0967944 Z M23.638844,43.6095296 C24.643752,45.4456098 25.8161447,47.4486063 26.4860833,48.6170209 C23.4713594,48.2831882 20.6241201,48.1162718 19.2842428,47.9493554 C19.1167582,46.7809408 18.7817888,43.776446 18.6143042,40.7719512 C19.7866968,41.4396167 21.7965128,42.6080314 23.638844,43.6095296 Z M33.6879238,47.9493554 C35.8652244,48.6170209 37.8750404,49.2846864 38.8799483,49.6185192 L33.6879238,53.9583449 L33.6879238,53.9583449 C32.8505005,53.2906794 30.6731999,51.4545993 28.4958993,49.6185192 C29.5008072,49.2846864 31.5106232,48.6170209 33.6879238,47.9493554 Z M43.5695189,43.6095296 C45.4118502,42.6080314 47.4216661,41.4396167 48.5940588,40.7719512 C48.2590894,43.776446 48.0916048,46.6140244 47.9241201,47.9493554 L40.7222796,48.6170209 C41.3922183,47.4486063 42.5646109,45.4456098 43.5695189,43.6095296 Z M44.4069422,42.1072822 C45.0768809,40.9388676 45.5793348,39.9373693 45.9143042,39.1027875 C46.2492735,38.2682056 46.9192121,36.7659582 47.4216661,35.0967944 C48.0916048,36.9328746 48.5940588,38.435122 48.7615434,39.2697038 L48.5940588,39.2697038 L48.5940588,39.6035366 C47.9241201,40.1042857 46.2492735,41.105784 44.4069422,42.1072822 Z M47.9241201,33.594547 C48.5940588,31.4246341 49.2639974,29.4216376 49.5989667,28.4201394 L53.953568,33.594547 L53.953568,33.594547 C53.2836293,34.4291289 51.441298,36.5990418 49.5989667,38.7689547 C49.4314821,37.9343728 48.7615434,35.7644599 47.9241201,33.594547 Z M50.1014207,40.2712021 C51.7762674,38.2682056 53.451114,36.2652091 54.456022,35.0967944 C55.6284146,38.6020383 56.6333226,41.9403659 56.9682919,43.2756969 L49.4314821,47.2816899 C49.5989667,45.6125261 49.9339361,42.9418641 50.1014207,40.2712021 Z M54.456022,32.259216 L50.2689054,27.0848084 L49.5989667,19.9074042 C52.7811753,21.5765679 55.7958993,23.2457317 57.1357766,23.9133972 C56.6333226,25.4156446 55.6284146,28.7539721 54.456022,32.259216 Z M47.2541815,17.9044077 C45.5793348,17.7374913 42.8995802,17.4036585 40.2198256,17.2367422 L40.2198256,17.2367422 C38.2100097,15.5675784 36.2001937,13.8984146 35.0278011,13.0638328 C38.544979,11.8954181 41.8946723,10.8939199 43.2345496,10.5600871 C43.9044882,11.5615854 45.5793348,14.7329965 47.2541815,17.9044077 Z M33.6879238,1.88043554 C35.0278011,2.8819338 38.7124637,5.88642857 42.3971263,8.89092334 C40.7222796,9.39167247 37.3725864,10.3931707 34.0228931,11.394669 L33.6879238,11.5615854 C30.3382305,10.5600871 26.8210526,9.39167247 24.9787213,8.89092334 C28.6633839,5.88642857 32.3480465,3.04885017 33.6879238,1.88043554 Z M23.9738134,10.3931707 C25.3136907,10.7270035 28.8308686,11.7285017 32.3480465,12.8969164 C31.1756539,13.8984146 29.1658379,15.5675784 27.156022,17.2367422 C24.4762674,17.4036585 21.6290281,17.7374913 20.1216661,17.9044077 C21.6290281,14.7329965 23.3038747,11.5615854 23.9738134,10.3931707 Z M11.0774943,11.2277526 C12.752341,11.0608362 17.4419115,10.5600871 22.2989667,10.059338 C21.4615434,11.7285017 19.6192121,14.8999129 18.1118502,18.071324 L17.7768809,18.2382404 C14.7621569,19.9074042 11.5799483,21.5765679 10.0725864,22.4111498 C10.4075557,17.5705749 10.9100097,12.8969164 11.0774943,11.2277526 Z M8.90019374,42.2741986 C5.71798515,38.6020383 2.87074588,34.929878 1.69835325,33.594547 C2.70326122,32.259216 5.71798515,28.5870557 8.73270907,24.9148955 C9.23516306,26.5840592 10.240071,29.9223868 11.244979,33.2607143 L11.4124637,33.594547 C10.5750404,37.0997909 9.40264772,40.6050348 8.90019374,42.2741986 Z M11.0774943,56.1282578 C10.9100097,54.4590941 10.4075557,49.7854355 9.90510171,44.9448606 L17.9443655,49.2846864 L22.2989667,57.2966725 C17.6093962,56.7959233 12.752341,56.2951742 11.0774943,56.1282578 Z M19.9541815,49.4516028 C21.4615434,49.6185192 24.3087827,49.9523519 26.9885373,50.1192683 L27.156022,50.1192683 C29.1658379,51.7884321 31.1756539,53.4575958 32.3480465,54.4590941 C28.8308686,55.6275087 25.4811753,56.629007 24.141298,56.9628397 L19.9541815,49.4516028 Z M33.6879238,65.4755749 C32.3480465,64.4740767 28.6633839,61.4695819 24.9787213,58.4650871 C26.653568,57.964338 30.1707459,56.9628397 33.5204391,55.7944251 L33.6879238,55.7944251 C37.037617,56.7959233 40.554795,57.964338 42.3971263,58.4650871 L33.6879238,65.4755749 Z M43.4020342,56.9628397 C42.0621569,56.629007 38.544979,55.6275087 35.0278011,54.4590941 L40.2198256,50.2861847 L47.2541815,49.6185192 L43.4020342,56.9628397 Z M56.1308686,56.1282578 L44.9093962,57.2966725 L49.2639974,49.2846864 L57.3032612,44.9448606 C56.8008072,49.7854355 56.2983532,54.4590941 56.1308686,56.1282578 Z M58.3081692,42.2741986 C57.8057152,40.6050348 56.8008072,37.2667073 55.7958993,33.9283798 L55.6284146,33.594547 C56.6333226,30.2562195 57.8057152,26.7509756 58.3081692,24.9148955 L65.5100097,33.594547 C64.5051017,34.929878 61.4903778,38.6020383 58.3081692,42.2741986 Z" id="Shape" fill="#FFFFFF"></path>
                        <path d="M35.5302551,35.4306272 C35.5302551,35.4306272 34.1903778,35.5975436 33.6879238,35.5975436 C33.1854698,35.5975436 31.8455925,35.4306272 31.8455925,35.4306272 C31.8455925,35.4306272 31.6781078,34.0952962 31.6781078,33.594547 C31.6781078,33.0937979 31.8455925,31.7584669 31.8455925,31.7584669 C31.8455925,31.7584669 33.1854698,31.5915505 33.6879238,31.5915505 C34.1903778,31.5915505 35.5302551,31.7584669 35.5302551,31.7584669 C35.5302551,31.7584669 35.6977397,33.0937979 35.6977397,33.594547 C35.6977397,34.0952962 35.5302551,35.4306272 35.5302551,35.4306272 Z" id="Shape" fill="#FFFFFF"></path>
                    </g>
                </g>
            </g>
        </g>
    </g>
</svg>