<?xml version="1.0" encoding="UTF-8"?>
<svg width="60px" height="20px" viewBox="0 0 60 20" version="1.1" xmlns="http://www.w3.org/2000/svg" xmlns:xlink="http://www.w3.org/1999/xlink">
    <g id="Page-1" stroke="none" stroke-width="1" fill="none" fill-rule="evenodd">
        <g id="Ebook/mail" transform="translate(-440.000000, -68.000000)" fill="#1FD08F">
            <path d="M440,68 L500,68 L500,88 L440,88 L440,68 Z M456.456,82 L456.456,80.5 L452.496,80.5 L452.496,78.676 L456.372,78.676 L456.372,77.176 L452.496,77.176 L452.496,75.496 L456.456,75.496 L456.456,73.996 L450.792,73.996 L450.792,82 L456.456,82 Z M462.132,82 C463.668,82 464.46,81.04 464.46,79.828 C464.46,78.832 463.788,78.004 462.924,77.872 C463.68,77.716 464.304,77.032 464.304,76.036 C464.304,74.968 463.524,73.996 462,73.996 L457.788,73.996 L457.788,82 L462.132,82 Z M461.628,77.176 L459.492,77.176 L459.492,75.496 L461.628,75.496 C462.204,75.496 462.564,75.844 462.564,76.336 C462.564,76.852 462.204,77.176 461.628,77.176 Z M461.7,80.5 L459.492,80.5 L459.492,78.676 L461.7,78.676 C462.36,78.676 462.72,79.084 462.72,79.588 C462.72,80.164 462.336,80.5 461.7,80.5 Z M469.548,82.144 C471.96,82.144 473.724,80.416 473.724,78.004 C473.724,75.592 471.96,73.864 469.548,73.864 C467.124,73.864 465.36,75.592 465.36,78.004 C465.36,80.416 467.124,82.144 469.548,82.144 Z M469.548,80.632 C468.06,80.632 467.112,79.492 467.112,78.004 C467.112,76.504 468.06,75.376 469.548,75.376 C471.024,75.376 471.972,76.504 471.972,78.004 C471.972,79.492 471.024,80.632 469.548,80.632 Z M478.728,82.144 C481.14,82.144 482.904,80.416 482.904,78.004 C482.904,75.592 481.14,73.864 478.728,73.864 C476.304,73.864 474.54,75.592 474.54,78.004 C474.54,80.416 476.304,82.144 478.728,82.144 Z M478.728,80.632 C477.24,80.632 476.292,79.492 476.292,78.004 C476.292,76.504 477.24,75.376 478.728,75.376 C480.204,75.376 481.152,76.504 481.152,78.004 C481.152,79.492 480.204,80.632 478.728,80.632 Z M490.956,82 L487.56,77.752 L490.74,73.996 L488.64,73.996 L485.808,77.56 L485.808,73.996 L484.104,73.996 L484.104,82 L485.808,82 L485.808,79.54 L486.432,78.784 L488.856,82 L490.956,82 Z" id="Combined-Shape"></path>
        </g>
    </g>
</svg>