<?xml version="1.0" encoding="UTF-8"?>
<svg width="95px" height="20px" viewBox="0 0 95 20" version="1.1" xmlns="http://www.w3.org/2000/svg" xmlns:xlink="http://www.w3.org/1999/xlink">
    <!-- Generator: sketchtool 42 (36781) - http://www.bohemiancoding.com/sketch -->
    <title>4544D79C-9B2E-4897-B6B8-49CA49E7DA2F</title>
    <desc>Created with sketchtool.</desc>
    <defs></defs>
    <g id="Page-1" stroke="none" stroke-width="1" fill="none" fill-rule="evenodd">
        <g id="Ebook/mail" transform="translate(-80.000000, -490.000000)" fill="#F8C800">
            <path d="M80,490 L175,490 L175,510 L80,510 L80,490 Z M97.956,504 L97.956,495.996 L96.252,495.996 L96.252,501.024 L92.544,495.996 L90.792,495.996 L90.792,504 L92.496,504 L92.496,498.78 L96.312,504 L97.956,504 Z M105.204,504 L105.204,502.5 L101.244,502.5 L101.244,500.676 L105.12,500.676 L105.12,499.176 L101.244,499.176 L101.244,497.496 L105.204,497.496 L105.204,495.996 L99.54,495.996 L99.54,504 L105.204,504 Z M114.468,504 L116.748,495.996 L114.84,495.996 L113.436,501.78 L111.924,495.996 L110.592,495.996 L109.068,501.78 L107.664,495.996 L105.756,495.996 L108.048,504 L109.86,504 L111.252,498.504 L112.656,504 L114.468,504 Z M120.408,504.144 C122.556,504.144 123.612,503.04 123.612,501.576 C123.612,498.588 119.016,499.44 119.016,498.18 C119.016,497.7 119.424,497.388 120.144,497.388 C120.96,497.388 121.824,497.664 122.472,498.264 L123.42,496.992 C122.628,496.26 121.572,495.876 120.3,495.876 C118.416,495.876 117.264,496.98 117.264,498.312 C117.264,501.324 121.872,500.352 121.872,501.744 C121.872,502.212 121.428,502.632 120.48,502.632 C119.376,502.632 118.5,502.128 117.936,501.54 L117,502.872 C117.756,503.628 118.86,504.144 120.408,504.144 Z M129.78,504 L129.78,502.5 L126.396,502.5 L126.396,495.996 L124.68,495.996 L124.68,504 L129.78,504 Z M136.596,504 L136.596,502.5 L132.636,502.5 L132.636,500.676 L136.512,500.676 L136.512,499.176 L132.636,499.176 L132.636,497.496 L136.596,497.496 L136.596,495.996 L130.932,495.996 L130.932,504 L136.596,504 Z M141.492,504 L141.492,497.496 L143.82,497.496 L143.82,495.996 L137.436,495.996 L137.436,497.496 L139.776,497.496 L139.776,504 L141.492,504 Z M148.476,504 L148.476,497.496 L150.804,497.496 L150.804,495.996 L144.42,495.996 L144.42,497.496 L146.76,497.496 L146.76,504 L148.476,504 Z M157.56,504 L157.56,502.5 L153.6,502.5 L153.6,500.676 L157.476,500.676 L157.476,499.176 L153.6,499.176 L153.6,497.496 L157.56,497.496 L157.56,495.996 L151.896,495.996 L151.896,504 L157.56,504 Z M165.384,504 L163.572,500.952 C164.436,500.748 165.336,499.98 165.336,498.576 C165.336,497.088 164.304,495.996 162.636,495.996 L158.892,495.996 L158.892,504 L160.596,504 L160.596,501.156 L161.844,501.156 L163.416,504 L165.384,504 Z M162.396,499.656 L160.596,499.656 L160.596,497.496 L162.396,497.496 C163.068,497.496 163.584,497.904 163.584,498.564 C163.584,499.248 163.068,499.656 162.396,499.656 Z" id="Combined-Shape"></path>
        </g>
    </g>
</svg>