<?xml version="1.0" encoding="UTF-8"?>
<svg width="144px" height="75px" viewBox="0 0 144 75" version="1.1" xmlns="http://www.w3.org/2000/svg" xmlns:xlink="http://www.w3.org/1999/xlink">
    <!-- Generator: sketchtool 46.2 (44496) - http://www.bohemiancoding.com/sketch -->
    <title>1CA98CFF-EB83-4293-BC70-E3C454D89074</title>
    <desc>Created with sketchtool.</desc>
    <defs></defs>
    <g id="Page-2" stroke="none" stroke-width="1" fill="none" fill-rule="evenodd">
        <g id="IS_Case-studies-Blockchain" transform="translate(-528.000000, -254.000000)" fill="#FFFFFF">
            <g id="MAIN1">
                <g id="eurostar-copy" transform="translate(520.000000, 212.000000)">
                    <g id="Page-1" transform="translate(8.000000, 42.000000)">
                        <path d="M89.6891836,37.716137 L104.907638,31.1040981 L104.907638,46.4652624 L89.6891836,37.716137 Z M106.093887,31.1040981 L121.312341,37.716137 L106.093887,46.4652624 L106.093887,31.1040981 Z M104.907638,11.2953602 L104.907638,29.8583516 L89,36.770039 L104.907638,11.2953602 Z M106.093887,29.8583516 L106.093887,11.2953602 L122,36.770039 L106.093887,29.8583516 Z" id="Combined-Shape"></path>
                        <path d="M105.5,51.1699378 L122,41 L105.5,65 L89,41 L105.5,51.1699378 Z" id="Fill-2"></path>
                        <g id="Clip-7" transform="translate(21.000000, 14.000000)">
                            <path d="M4.781,5.35604675 L4.8188,0.33431039 L12.7568,0.396081818 L12.7162,5.41360649 L16.2946,5.44308831 L16.3338,0.422755844 L24.2718,0.483123377 L24.2326,5.5904974 C27.2986,5.99060779 29.9684,7.80163377 31.4622,10.5308078 C33.1184,13.5632234 33.0372,17.2835481 31.248,20.2359416 C30.597,21.3141338 29.7402,22.2505325 28.7336,22.9974052 C30.5886,23.9281883 32.1188,25.3938558 33.1184,27.2203247 C34.874,30.4310351 34.7872,34.3703675 32.893,37.5010558 C31.5252,39.7571169 29.3706,41.3842325 26.8254,42.0777571 C26.1366,42.2658792 25.4296,42.3809987 24.717,42.4203078 L24.7156,42.444174 L23.9302,42.4455779 L23.7482,46.8804857 L15.8102,46.8187143 L15.9922,42.3838065 L12.4166,42.3571325 L12.2332,46.7934442 L4.2952,46.7316727 L4.4786,42.2967649 L0,42.2644753 L0.0574,34.5472584 L2.555,34.5641052 L2.7174,13.0564169 L0.2212,13.0381662 L0.28,5.32094935 L4.781,5.35604675 Z M13.8865,21.9 L17.2225,21.9242857 C17.653,21.9257143 18.0805,21.8742857 18.4915,21.77 C20.5105,21.2442857 21.9325,19.4857143 21.949,17.4914286 L21.9505,17.2642857 C21.97,14.8014286 19.882,12.7828571 17.2975,12.7642857 L13.9585,12.74 L13.8865,21.9 Z M13.7328571,36.8854625 L18.0342857,36.92025 C18.4842857,36.923275 18.9314286,36.8612625 19.3628571,36.73875 C21.4771429,36.130725 22.9628571,34.0828 22.98,31.762625 L22.9814286,31.4934 C23.0014286,28.6272125 20.8171429,26.2798125 18.11,26.257125 L13.8085714,26.22385 L13.7328571,36.8854625 Z" id="Combined-Shape"></path>
                        </g>
                        <path d="M0,37.5 C0,16.7886792 16.7886792,0 37.5,0 C58.2113208,0 75,16.7886792 75,37.5 C75,58.2113208 58.2113208,75 37.5,75 C16.7886792,75 0,58.2113208 0,37.5 Z M1.41509434,37.5 C1.41509434,57.4287736 17.5712264,73.5849057 37.5,73.5849057 C57.4287736,73.5849057 73.5849057,57.4287736 73.5849057,37.5 C73.5849057,17.5712264 57.4287736,1.41509434 37.5,1.41509434 C17.5712264,1.41509434 1.41509434,17.5712264 1.41509434,37.5 Z" id="Clip-13"></path>
                        <path d="M105.999156,0 C93.8016027,0 82.9534374,5.67877358 76,14.4948113 C76.2652889,14.9306604 76.5205399,15.3721698 76.7700548,15.8179245 C83.4438633,7.07122642 94.0511177,1.41509434 105.999156,1.41509434 C126.194095,1.41509434 142.566006,17.5712264 142.566006,37.5 C142.566006,57.4287736 126.194095,73.5849057 105.999156,73.5849057 C94.0511177,73.5849057 83.4438633,67.9287736 76.7700548,59.1820755 C76.5205399,59.6278302 76.2652889,60.0693396 76,60.5051887 C82.9534374,69.3212264 93.8016027,75 105.999156,75 C126.987094,75 144,58.2113208 144,37.5 C144,16.7886792 126.987094,0 105.999156,0" id="Fill-15"></path>
                    </g>
                </g>
            </g>
        </g>
    </g>
</svg>