<svg xmlns="http://www.w3.org/2000/svg" preserveAspectRatio="xMidYMid" width="150" height="32.5" viewBox="0 0 150 32.5"><defs><style>.cls-1{fill:#171717;fill-rule:evenodd}</style></defs><path d="M147.888 31.053c-.429 1.059-.916 1.445-1.675 1.445-.419 0-.731-.089-1.071-.258l.253-.603c.243.128.467.187.789.187.448 0 .73-.237 1.032-.959l-2.288-5.097h.828l1.829 4.266 1.617-4.266H150l-2.112 5.285zm-5.523-1.623c0 .623.341.851.847.851.253 0 .467-.05.73-.179v.653a1.855 1.855 0 0 1-.905.218c-.809 0-1.422-.404-1.422-1.444v-3.088h-.7v-.673h.7v-1.545h.75v1.545h1.598v.673h-1.598v2.989zm-5.048-13.65v-1.286c0-2.157-.426-2.719-1.606-2.719h-1.282v7.624h-4.875V.372h7.627c3.728 0 5.134 2.133 5.134 5.067 0 2.53-.961 4.179-3.191 4.531v.051c2.365.21 3.067 1.726 3.067 4.268v1.621c0 .982 0 2.26.238 2.642.127.205.24.425.544.577v.27h-5.187c-.469-1.01-.469-2.824-.469-3.619zm-1.943-11.834h-.945v4.478h.967c1.396 0 2.051-.905 2.051-2.269 0-1.543-.606-2.209-2.073-2.209zm-3.677 24.366v.019c0 1.673-1.188 2.663-2.405 2.663-.935 0-1.538-.516-1.927-1.089v.98h-.751V23.66h.751v3.138c.409-.614 1.001-1.139 1.927-1.139 1.207 0 2.405.97 2.405 2.653zm-2.542-1.971c-.934 0-1.821.802-1.821 1.971v.019c0 1.189.887 1.979 1.821 1.979.974 0 1.773-.731 1.773-1.969v-.02c0-1.207-.818-1.98-1.773-1.98zM116.454.372h11.083v4.051h-6.217v3.252h5.822v3.892h-5.822v3.783h6.452v4.049h-11.318V.372zm1.945 27.346v3.167h-.75v-2.989c0-.99-.487-1.544-1.305-1.544-.759 0-1.383.574-1.383 1.583v2.95h-.749v-3.009c0-.961-.497-1.524-1.296-1.524-.797 0-1.4.673-1.4 1.613v2.92h-.751v-5.117h.751v.861c.33-.505.777-.97 1.624-.97.818 0 1.345.445 1.617 1.019.361-.564.897-1.019 1.773-1.019 1.157 0 1.869.792 1.869 2.059zM109.388.372h4.871v19.027h-4.871V.372zm-7.892 19.027h-7.072V.372h7.072c5.64 0 5.93 4.531 5.93 9.513 0 4.991-.29 9.514-5.93 9.514zm-1.222-15.453h-.972v11.888h.972c1.888 0 2.122-.804 2.122-5.949 0-5.135-.234-5.939-2.122-5.939zM87.3 15.78v-1.286c0-2.157-.425-2.719-1.597-2.719h-1.29v7.624h-4.875V.372h7.635c3.717 0 5.137 2.133 5.137 5.067 0 2.53-.978 4.179-3.2 4.531v.051c2.358.21 3.062 1.726 3.062 4.268v1.621c0 .982 0 2.26.241 2.642.135.205.237.425.55.577v.27h-5.196c-.467-1.01-.467-2.824-.467-3.619zM85.352 3.946h-.939v4.478h.975c1.385 0 2.037-.905 2.037-2.269 0-1.543-.6-2.209-2.073-2.209zm-5.303 20.703h-.856v-.841h.856v.841zm-7.535-8.585h-3.879l-.495 3.335h-5.188L67.514.372h6.13l4.562 19.027h-5.192l-.5-3.335zM70.605 4.268h-.052l-1.34 8.069h2.735l-1.343-8.069zm-7.917 9.51c0 3.305-1.58 5.621-5.64 5.621h-7.372V.372h7.372c3.482 0 5.113 1.899 5.113 4.748 0 2.02-.865 3.833-2.939 4.263v.053c2.462.241 3.466 2.373 3.466 4.342zM55.74 3.946h-1.18v3.892h1.18c.993 0 1.547-.904 1.547-1.919 0-1.066-.554-1.973-1.547-1.973zm.18 7.249h-1.36v4.639h1.36c.889 0 1.734-.804 1.734-2.349 0-1.469-.845-2.29-1.734-2.29zm-5.261 14.464c1.489 0 2.346 1.207 2.346 2.702 0 .1 0 .158-.01.247h-3.991c.107 1.108.876 1.732 1.772 1.732.691 0 1.177-.287 1.587-.722l.468.425c-.507.575-1.121.961-2.074.961-1.383 0-2.512-1.081-2.512-2.663v-.02c0-1.474 1.021-2.662 2.414-2.662zm1.588 2.386c-.079-.931-.604-1.743-1.608-1.743-.875 0-1.537.742-1.635 1.743h3.243zM42.978 5.223h-.061l-2.589 14.176h-3.515L34.221 5.223h-.056v14.176h-4.559V.372h6.969l1.97 11.274h.051L40.568.372h6.969v19.027h-4.559V5.223zm-13.369 19h.751v1.545h1.597v.673H30.36v2.989c0 .623.341.851.847.851.252 0 .466-.05.729-.179v.653a1.852 1.852 0 0 1-.905.218c-.808 0-1.422-.404-1.422-1.444v-3.088h-.7v-.673h.7v-1.545zm-8.523-4.445c-4.98 0-6.682-2.77-6.682-9.893C14.404 2.771 16.106 0 21.086 0c4.986 0 6.685 2.771 6.685 9.885 0 7.123-1.699 9.893-6.685 9.893zm0-16.42c-1.497 0-1.646 1.392-1.646 6.527 0 5.145.149 6.535 1.646 6.535 1.494 0 1.656-1.39 1.656-6.535 0-5.135-.162-6.527-1.656-6.527zm-8.085 10.42c0 3.305-1.57 5.621-5.639 5.621H0V.372h7.362c3.492 0 5.114 1.899 5.114 4.748 0 2.02-.868 3.833-2.94 4.263v.053c2.468.241 3.465 2.373 3.465 4.342zM6.057 3.946H4.874v3.892h1.183c.992 0 1.542-.904 1.542-1.919 0-1.066-.55-1.973-1.542-1.973zm.182 7.249H4.874v4.639h1.365c.89 0 1.727-.804 1.727-2.349 0-1.469-.837-2.29-1.727-2.29zm27.939 15.463c.331-.554.857-.999 1.723-.999 1.218 0 1.928.831 1.928 2.048v3.178h-.749v-2.989c0-.951-.507-1.544-1.393-1.544-.866 0-1.509.644-1.509 1.603v2.93h-.75V23.66h.75v2.998zm7.5-.999c1.49 0 2.346 1.207 2.346 2.702 0 .1 0 .158-.01.247h-3.991c.108 1.108.876 1.732 1.773 1.732.69 0 1.177-.287 1.586-.722l.468.425c-.507.575-1.12.961-2.074.961-1.383 0-2.512-1.081-2.512-2.663v-.02c0-1.474 1.021-2.662 2.414-2.662zm1.588 2.386c-.079-.931-.604-1.743-1.607-1.743-.876 0-1.538.742-1.636 1.743h3.243zm12.986 1.968l1.703-4.245h.809l-2.192 5.156h-.661l-2.181-5.156h.828l1.694 4.245zm5.863-4.354c1.509 0 2.62 1.207 2.62 2.653v.019c0 1.446-1.12 2.673-2.639 2.673-1.508 0-2.608-1.208-2.608-2.653v-.02c0-1.445 1.109-2.672 2.627-2.672zm-1.859 2.672c0 1.099.798 1.988 1.859 1.988 1.091 0 1.851-.889 1.851-1.968v-.02c0-1.098-.809-1.999-1.87-1.999-1.09 0-1.84.901-1.84 1.98v.019zm6.799 2.554h-.75V23.66h.75v7.225zm2.562-2.128c0 .95.507 1.543 1.392 1.543.857 0 1.509-.643 1.509-1.602v-2.93h.741v5.117h-.741v-.891c-.34.553-.856 1-1.723 1-1.217 0-1.927-.831-1.927-2.049v-3.177h.749v2.989zm5.738-4.534h.75v1.545h1.597v.673h-1.597v2.989c0 .623.341.851.847.851.253 0 .467-.05.731-.179v.653a1.862 1.862 0 0 1-.906.218c-.809 0-1.422-.404-1.422-1.444v-3.088h-.701v-.673h.701v-1.545zm4.637 6.662h-.751v-5.117h.751v5.117zm4.205-5.226c1.509 0 2.62 1.207 2.62 2.653v.019c0 1.446-1.12 2.673-2.639 2.673-1.509 0-2.609-1.208-2.609-2.653v-.02c0-1.445 1.11-2.672 2.628-2.672zm-1.859 2.672c0 1.099.798 1.988 1.859 1.988 1.09 0 1.85-.889 1.85-1.968v-.02c0-1.098-.808-1.999-1.869-1.999-1.09 0-1.84.901-1.84 1.98v.019zm6.732-1.673c.331-.554.857-.999 1.723-.999 1.218 0 1.928.831 1.928 2.048v3.178h-.749v-2.989c0-.951-.507-1.544-1.393-1.544-.866 0-1.509.644-1.509 1.603v2.93h-.75v-5.117h.75v.89zm10.783-.999c1.509 0 2.62 1.207 2.62 2.653v.019c0 1.446-1.121 2.673-2.639 2.673-1.509 0-2.609-1.208-2.609-2.653v-.02c0-1.445 1.109-2.672 2.628-2.672zm-1.86 2.672c0 1.099.799 1.988 1.86 1.988 1.09 0 1.85-.889 1.85-1.968v-.02c0-1.098-.808-1.999-1.869-1.999-1.091 0-1.841.901-1.841 1.98v.019zm6.263-2.998c0-.584.156-1.029.438-1.317.254-.257.625-.395 1.082-.395.35 0 .584.039.828.128v.662c-.274-.078-.478-.128-.731-.128-.585 0-.876.356-.876 1.089v.416h1.597v.653h-1.588v4.444h-.75v-4.444h-.691v-.663h.691v-.445zm18.237.326c1.509 0 2.619 1.207 2.619 2.653v.019c0 1.446-1.12 2.673-2.639 2.673-1.508 0-2.608-1.208-2.608-2.653v-.02c0-1.445 1.109-2.672 2.628-2.672zm-1.86 2.672c0 1.099.799 1.988 1.86 1.988 1.09 0 1.85-.889 1.85-1.968v-.02c0-1.098-.809-1.999-1.87-1.999-1.09 0-1.84.901-1.84 1.98v.019zm13.473-3.682h-.857v-.841h.857v.841zm-.059 6.236h-.749v-5.117h.749v5.117zm2.709 0h-.751V23.66h.751v7.225zm2.766-6.236h-.857v-.841h.857v.841zm-.058 6.236h-.751v-5.117h.751v5.117z" class="cls-1"/></svg>