<?xml version="1.0" encoding="UTF-8"?>
<svg width="96px" height="98px" viewBox="0 0 96 98" version="1.1" xmlns="http://www.w3.org/2000/svg" xmlns:xlink="http://www.w3.org/1999/xlink">
    <!-- Generator: sketchtool 46.2 (44496) - http://www.bohemiancoding.com/sketch -->
    <title>1CA98CFF-EB83-4293-BC70-E3C454D89074</title>
    <desc>Created with sketchtool.</desc>
    <defs></defs>
    <g id="Page-2" stroke="none" stroke-width="1" fill="none" fill-rule="evenodd">
        <g id="IS_Joeful" transform="translate(-552.000000, -243.000000)" fill-rule="nonzero" fill="#FFFFFF">
            <g id="MAIN1">
                <g id="eurostar-copy" transform="translate(520.000000, 212.000000)">
                    <g id="joiful-logo" transform="translate(32.000000, 31.000000)">
                        <path d="M47.7103729,82.1338 C43.4655621,82.1423635 40.0301791,85.6012794 40.0344446,89.8623094 C40.03871,94.1233394 43.4810112,97.5753177 47.7258305,97.5753177 C51.9706498,97.5753177 55.412951,94.1233394 55.4172165,89.8623094 C55.4214819,85.6012794 51.9860989,82.1423635 47.7412881,82.1338 L47.7103729,82.1338" id="Shape"></path>
                        <path d="M23.0221017,82.5290667 C21.6856078,85.3420221 22.1689671,88.6861788 24.246747,91.0018633 C26.3245268,93.3175478 29.5874469,94.1486175 32.5137216,93.1074718 C35.4399963,92.0663262 37.4532091,89.3580495 37.6144225,86.2457487 C37.775636,83.1334478 36.0530942,80.2301826 33.2501695,78.89 C32.1991283,78.3841897 31.0492353,78.1191895 29.883661,78.1141667 C26.9347777,78.1223695 24.2582336,79.8464367 23.0221017,82.5339667" id="Shape"></path>
                        <path d="M62.1233898,78.7658667 C59.3504869,80.133212 57.671266,83.0427635 57.8688504,86.1376194 C58.0664348,89.2324753 60.1019071,91.9030552 63.0260023,92.9039043 C65.9500975,93.9047535 69.1868689,93.0387391 71.2268124,90.7097365 C73.2667559,88.3807339 73.7080724,85.0474768 72.3449492,82.2644667 C71.0997672,79.6321378 68.4530212,77.9576065 65.5501017,77.9655333 C64.362231,77.9684242 63.1905266,78.2420842 62.1233898,78.7658667" id="Shape"></path>
                        <path d="M10.875661,68.5085333 C7.5844185,71.1890198 7.08103489,76.0402532 9.75132223,79.3440665 C12.4216096,82.6478798 17.2543844,83.1531862 20.5456271,80.4727 C23.0402852,78.4014414 23.9796554,74.9860601 22.8970429,71.9233749 C21.8144304,68.8606897 18.9406012,66.8035324 15.703322,66.7739333 C13.9437513,66.7804092 12.2396609,67.3926964 10.875661,68.5085333" id="Shape"></path>
                        <path d="M73.6515254,69.4754667 C71.5053007,72.2698526 71.5599588,76.1802358 73.7834412,78.9130759 C76.0069237,81.645916 79.8130181,82.4807103 82.9693521,80.9278306 C86.1256861,79.3749509 87.8001045,75.8438077 87.0105179,72.4055075 C86.2209313,68.9672072 83.1755111,66.5282443 79.6604746,66.5191333 C77.3122761,66.5293002 75.098095,67.6186516 73.6515254,69.4754667" id="Shape"></path>
                        <path d="M5.952,50.5696333 C1.82817414,51.5515313 -0.721890388,55.7033067 0.256271409,59.8428833 C1.23443321,63.9824599 5.37041137,66.5422644 9.49423729,65.5603667 C13.2568276,64.6416461 15.749534,61.0547896 15.3092527,57.192905 C14.8689714,53.3310203 11.6334355,50.4022209 7.76135593,50.3605667 C7.15234367,50.3604563 6.5453046,50.4300502 5.952,50.568" id="Shape"></path>
                        <path d="M80.0216949,56.0788667 C79.1119133,60.2126287 81.7120211,64.3042375 85.8297954,65.2186705 C89.9475698,66.1331035 94.0243502,63.5242294 94.9364759,59.3909879 C95.8486015,55.2577464 93.2508144,51.1646525 89.1335593,50.2478667 C88.5651125,50.117145 87.9838502,50.0508526 87.400678,50.0502333 C83.8349336,50.0664574 80.7633471,52.5770526 80.0249492,56.0788667" id="Shape"></path>
                        <path d="M0.190372881,38.1432333 C0.0718866525,38.6759189 0.00809578134,39.2193913 -8.8817842e-16,39.7651333 L-8.8817842e-16,39.9725667 C0.0184265844,43.5430001 2.52257964,46.6138081 6.00569492,47.3372667 C9.0394878,48.0220007 12.1853166,46.8036107 13.9747335,44.2508314 C15.7641505,41.698052 15.8442975,38.3142699 14.1777627,35.6790076 C12.5112279,33.0437454 9.42663779,31.6766544 6.36385459,32.215882 C3.30107139,32.7551096 0.864050103,35.0943246 0.190372881,38.1416" id="Shape"></path>
                        <path d="M85.6856949,31.9921 C81.8248505,32.9604475 79.381561,36.7777282 80.10879,40.7051944 C80.8360191,44.6326606 84.4825671,47.3136867 88.4321802,46.8247427 C92.3817934,46.3357986 95.2701962,42.8457755 95.0250739,38.8586266 C94.7799517,34.8714778 91.4859745,31.7644445 87.5064407,31.7667 C86.8926644,31.7674219 86.2812559,31.8431115 85.6856949,31.9921" id="Shape"></path>
                        <path d="M9.43728814,18.5563 C7.70688172,20.7027628 7.25968038,23.6173422 8.2664638,26.1870027 C9.27324723,28.7566632 11.5785381,30.5845727 14.3019793,30.9726792 C17.0254206,31.3607857 19.7464318,30.249154 21.4258983,28.0623 C23.2514005,25.7601227 23.6053763,22.6130696 22.337204,19.9602572 C21.0690317,17.3074449 18.4018736,15.6156931 15.4706441,15.6048667 C13.1145925,15.6058584 10.8898199,16.6941861 9.43728814,18.5563" id="Shape"></path>
                        <path d="M74.6847458,17.0716 C72.2588737,19.0152013 71.2383115,22.2343775 72.098995,25.2278763 C72.9596785,28.2213751 75.532089,30.3996023 78.6165911,30.7467485 C81.7010933,31.0938948 84.6901691,29.541587 86.1898727,26.8137387 C87.6895763,24.0858904 87.4045287,20.7197739 85.467661,18.2851667 C84.0085808,16.4344289 81.7887465,15.3521399 79.4375593,15.3451667 C77.7007074,15.3438417 76.0185564,15.9548737 74.6847458,17.0716" id="Shape"></path>
                        <path d="M26.2128814,4.97023333 C22.7454811,6.70014241 21.1188026,10.7629742 22.4291954,14.420459 C23.7395883,18.0779438 27.571469,20.1701314 31.3422244,19.2869279 C35.1129798,18.4037245 37.6267366,14.8252329 37.1892715,10.963287 C36.7518063,7.10134114 33.5018589,4.18073482 29.6298305,4.1699 C28.4447325,4.16972439 27.2755209,4.44358243 26.2128814,4.97023333" id="Shape"></path>
                        <path d="M58.3452203,8.4084 C56.5117745,12.2435936 58.1225097,16.8446174 61.9429863,18.6853263 C65.7634629,20.5260352 70.3470895,18.9094603 72.181054,15.0745165 C74.0150185,11.2395728 72.4049056,6.63832953 68.584678,4.7971 C67.5306862,4.28611395 66.3756306,4.01983284 65.2051525,4.018 C62.257787,4.00158616 59.5742503,5.72011315 58.3468475,8.41003333" id="Shape"></path>
                        <path d="M47.2385085,-4.26620002e-16 C45.1954308,-0.0109372651 43.2344142,0.806241655 41.7997086,2.26641251 C40.365003,3.72658337 39.578035,5.70616439 39.6170847,7.7567 C39.7029365,11.9846505 43.1676524,15.3529102 47.3801044,15.3036003 C51.5925564,15.2542905 54.9780839,11.8058438 54.9656949,7.57703333 C54.9307882,3.36994208 51.5143125,-0.0172338842 47.3231186,-4.26620002e-16 L47.2385085,-4.26620002e-16 Z" id="Shape"></path>
                        <path d="M51.579661,33.7201667 C52.0705493,32.6662569 53.1467449,32.0141366 54.3044427,32.0690863 C55.4621405,32.1240359 56.4722365,32.8751812 56.8618692,33.9708845 C57.251502,35.0665879 56.9435645,36.2900137 56.0822133,37.0684334 C55.2208621,37.846853 53.9765552,38.0262201 52.9317966,37.5225667 C52.2459111,37.2030439 51.7164964,36.6205291 51.4622929,35.9056723 C51.2080895,35.1908155 51.2503734,34.4034484 51.579661,33.7201667" id="Shape"></path>
                        <path d="M57.6585763,36.946 C58.5565595,36.2120425 59.807063,36.094747 60.8249605,36.6489975 C61.8428581,37.2032479 62.4268307,38.3194251 62.3036302,39.4752557 C62.1804297,40.6310863 61.3744226,41.597971 60.2627498,41.9234923 C59.151077,42.2490136 57.9536042,41.8687902 57.2306441,40.9607333 C56.7519521,40.3734391 56.527741,39.6180448 56.6081654,38.8635273 C56.6885897,38.1090098 57.0669381,37.4183341 57.6585763,36.946" id="Shape"></path>
                        <path d="M61.7540339,42.5009667 C62.8802453,42.2284672 64.0589079,42.6655649 64.73814,43.6075989 C65.4173721,44.549633 65.4627235,45.8101329 64.8529594,46.7988985 C64.2431954,47.7876642 63.0990153,48.3089749 61.9561552,48.1187389 C60.8132951,47.9285029 59.8979778,47.0643763 59.6387797,45.9309667 C59.4600362,45.1941547 59.5832986,44.416159 59.9809377,43.7713655 C60.3785767,43.1265721 61.0173342,42.6689112 61.7540339,42.5009667" id="Shape"></path>
                        <path d="M63.0362034,49.2989 C64.1681795,49.5448364 65.0402764,50.4524044 65.2443214,51.5968294 C65.4483665,52.7412543 64.9439905,53.8961186 63.9672596,54.520904 C62.9905287,55.1456894 61.7346833,55.1167859 60.7875044,54.4477214 C59.8403255,53.7786569 59.3892068,52.6018017 59.6452881,51.4679667 C59.8030802,50.7259352 60.2508785,50.0784878 60.8883179,49.670737 C61.5257574,49.2629861 62.2995275,49.1290328 63.0362034,49.2989" id="Shape"></path>
                        <path d="M61.2658983,55.9776 C62.1802658,56.6913854 62.5748584,57.888697 62.2649584,59.0090466 C61.9550584,60.1293963 61.0019918,60.9510788 59.8519102,61.0894463 C58.7018286,61.2278138 57.5823209,60.6554848 57.0174535,59.6403793 C56.4525862,58.6252738 56.5541403,57.3682702 57.2745763,56.4578 C57.7375645,55.8587059 58.4202982,55.4707105 59.1702755,55.3804799 C59.9202529,55.2902494 60.6749888,55.5053014 61.2658983,55.9776" id="Shape"></path>
                        <path d="M56.7864407,61.2173333 C57.3009468,62.2587255 57.1383942,63.5088701 56.3748433,64.3828083 C55.6112924,65.2567466 54.397758,65.5816316 53.3020684,65.2054453 C52.2063788,64.8292591 51.4452389,63.8264035 51.3747959,62.6661278 C51.3043528,61.505852 51.9385389,60.4176346 52.9806102,59.9106667 C53.6569601,59.5714456 54.4405983,59.5187397 55.1559845,59.7643552 C55.8713707,60.0099708 56.4587122,60.5333792 56.7864407,61.2173333" id="Shape"></path>
                        <path d="M50.4829831,63.9989 C50.4988066,65.1614932 49.8138482,66.2186509 48.7487358,66.675519 C47.6836235,67.1323871 46.4491183,66.8985619 45.6230904,66.0834968 C44.7970625,65.2684317 44.5429637,64.0334092 44.9797373,62.9565414 C45.4165108,61.8796737 46.4577294,61.174048 47.616,61.1699667 C48.3715865,61.1577171 49.1004878,61.450243 49.639406,61.9820088 C50.1783241,62.5137746 50.48221,63.2403291 50.4829831,63.9989" id="Shape"></path>
                        <path d="M43.5937627,63.7588 C43.1056106,64.8128239 42.031987,65.4668775 40.8752049,65.4149506 C39.7184228,65.3630237 38.707242,64.6153853 38.3147604,63.5218305 C37.9222789,62.4282758 38.226112,61.205061 39.0841062,60.4244878 C39.9421004,59.6439147 41.1845829,59.4603457 42.2302373,59.9596667 C42.9176037,60.2767628 43.4492195,60.8578009 43.7056267,61.5722173 C43.9620338,62.2866337 43.9217267,63.0745084 43.5937627,63.7588" id="Shape"></path>
                        <path d="M37.5002034,60.5493 C36.6041727,61.286195 35.3535904,61.4071212 34.3339088,60.8554678 C33.3142271,60.3038144 32.7272416,59.1887538 32.8477459,58.0322948 C32.9682503,56.8758358 33.7723965,55.9068421 34.8837286,55.5789422 C35.9950607,55.2510423 37.1936455,55.6291276 37.9183729,56.5362 C38.3989319,57.1216403 38.6252865,57.8762092 38.5466704,58.630674 C38.4680544,59.3851387 38.0910473,60.0763555 37.5002034,60.5493" id="Shape"></path>
                        <path d="M33.3868475,54.9976 C32.2606361,55.2700995 31.0819735,54.8330018 30.4027414,53.8909677 C29.7235093,52.9489337 29.6781579,51.6884338 30.2879219,50.6996681 C30.897686,49.7109025 32.0418661,49.1895918 33.1847262,49.3798278 C34.3275863,49.5700638 35.2429036,50.4341903 35.5021017,51.5676 C35.6794614,52.3043255 35.5556069,53.0816638 35.1581836,53.7261074 C34.7607603,54.370551 34.1228531,54.8284507 33.3868475,54.9976" id="Shape"></path>
                        <path d="M32.0867797,48.2143667 C30.9541321,47.9719684 30.079275,47.0672263 29.8716232,45.9235406 C29.6639713,44.779855 30.1646012,43.623463 31.1392285,42.9955318 C32.1138558,42.3676005 33.3696855,42.3923436 34.3190158,43.0581819 C35.2683461,43.7240201 35.723386,44.8992413 35.4711864,46.0338667 C35.3158926,46.7765947 34.8701495,47.4256888 34.233901,47.8356099 C33.5976525,48.245531 32.8241329,48.3819815 32.0867797,48.2143667" id="Shape"></path>
                        <path d="M33.8440678,41.5275 C32.9283125,40.815756 32.531163,39.6194937 32.8384931,38.4985875 C33.1458232,37.3776812 34.096832,36.553886 35.2464288,36.4127542 C36.3960255,36.2716224 37.5167791,36.841075 38.0841549,37.8545968 C38.6515306,38.8681186 38.5532814,40.1251992 37.8353898,41.0375 C37.3743747,41.638839 36.6922583,42.0293307 35.9419407,42.1214445 C35.1916231,42.2135582 34.4358629,41.9995893 33.8440678,41.5275" id="Shape"></path>
                        <path d="M38.3007458,36.2763333 C37.7813266,35.2370919 37.9383294,33.9858868 38.698261,33.1084086 C39.4581926,32.2309303 40.6706791,31.9008127 41.7681542,32.2725841 C42.8656294,32.6443555 43.6309268,33.6444505 43.70581,34.8047235 C43.7806932,35.9649966 43.1503444,37.0558549 42.1098305,37.5666667 C41.4352356,37.9085124 40.6522262,37.964424 39.936219,37.7218754 C39.2202119,37.4793269 38.6310583,36.958593 38.3007458,36.2763333" id="Shape"></path>
                        <path d="M44.6025763,33.4833333 C44.5841473,32.3212393 45.2661868,31.2628615 46.3296464,30.8032937 C47.3931061,30.3437259 48.6277265,30.5738305 49.4559699,31.3859679 C50.2842134,32.1981054 50.5423257,33.4317058 50.1095657,34.5097086 C49.6768056,35.5877114 48.6387353,36.2969818 47.4809492,36.3057333 C46.7245333,36.3210667 45.9936742,36.0308056 45.4524633,35.5001192 C44.9112524,34.9694327 44.6050399,34.2427891 44.6025763,33.4833333" id="Shape"></path>
                        <path d="M48.7842712,20.9066667 C48.0471864,23.5902333 51.2965424,30.4861667 51.3746441,30.6495 L51.3746441,30.6495 C51.579661,30.5106667 57.847322,26.2966667 58.5762712,23.618 C59.2198949,20.9417883 57.6317779,18.2357596 54.9878973,17.5036884 C52.3440168,16.7716172 49.59846,18.2776832 48.7842712,20.9066667" id="Shape"></path>
                        <path d="M60.7989153,24.2697 C58.9651525,26.3930333 58.9781695,34.1840333 58.9781695,34.1840333 C58.9781695,34.1840333 66.651661,33.0652 68.4870508,30.9353333 C69.7031168,29.5606075 70.0878396,27.6352105 69.4939711,25.8960652 C68.9001026,24.1569198 67.4195987,22.8733191 65.6191047,22.5365461 C63.8186107,22.199773 61.9769191,22.8619742 60.7989153,24.2697" id="Shape"></path>
                        <path d="M69.9449492,32.5033333 C67.3692203,33.614 63.9848136,40.6193667 63.9848136,40.6193667 C63.9848136,40.6193667 71.3703051,42.9893333 73.9492881,41.8819333 C76.481649,40.7429162 77.6360327,37.7756891 76.5428721,35.2153871 C75.4497114,32.6550852 72.5130279,31.4479715 69.9449492,32.5033333" id="Shape"></path>
                        <path d="M65.9812881,48.7991 C65.9812881,48.7991 71.6452881,54.1139667 74.4423051,54.2234 C77.2209914,54.2904717 79.5377673,52.1040383 79.6423527,49.3159085 C79.7469381,46.5277787 77.6005207,44.1726453 74.824678,44.0297667 L74.7335593,44.0297667 C71.8909831,44.0297667 65.9731525,48.8023667 65.9731525,48.8023667" id="Shape"></path>
                        <path d="M64.3655593,56.5754 C64.3655593,56.5754 67.1137627,63.8551667 69.5869831,65.1879667 C71.1855952,66.051305 73.1216067,65.9929556 74.6657409,65.0348982 C76.209875,64.0768409 77.127541,62.3646272 77.0730629,60.5432315 C77.0185849,58.7218358 76.0002393,57.0679716 74.4016271,56.2046333 C73.4463115,55.8078637 72.4136746,55.6341693 71.3816949,55.6966667 C69.0206092,55.7737431 66.6715297,56.0678845 64.3639322,56.5754" id="Shape"></path>
                        <path d="M60.2749831,73.2566333 C61.9374538,75.5262291 65.1180229,76.0132538 67.3789831,74.3444333 C69.6399432,72.6756129 70.1251148,69.4828958 68.4626441,67.2133 C66.8013559,64.9413333 59.2352542,63.2247 59.2352542,63.2247 C59.2352542,63.2247 58.6136949,70.9846667 60.2749831,73.2517333" id="Shape"></path>
                        <path d="M48.4263051,76.1721333 C48.9317861,78.9432773 51.5794678,80.7783949 54.3400678,80.2709833 C57.1006678,79.7635717 58.9288029,77.1057773 58.423322,74.3346333 C57.9172881,71.5579667 51.8627797,66.6988 51.8627797,66.6988 C51.8627797,66.6988 47.9202712,73.3954667 48.4263051,76.1721333" id="Shape"></path>
                        <path d="M36.3319322,73.9148667 C35.6053876,76.636397 37.2142486,79.4338636 39.9254238,80.1631832 C42.6365989,80.8925028 45.4234214,79.277497 46.1499661,76.5559667 C46.8772881,73.8364667 43.4863729,66.8343667 43.4863729,66.8343667 C43.4863729,66.8343667 37.0592542,71.1904667 36.3270508,73.9132333" id="Shape"></path>
                        <path d="M26.7075254,66.689 C25.527459,68.0740175 25.1731192,69.9857889 25.7779824,71.7041685 C26.3828457,73.4225481 27.8550189,74.6864731 29.6399486,75.0198352 C31.4248783,75.3531973 33.2513912,74.7053509 34.4314576,73.3203333 C36.2587119,71.1790333 36.2017627,63.3945667 36.2017627,63.3945667 C36.2017627,63.3945667 28.5315254,64.5509667 26.7075254,66.689" id="Shape"></path>
                        <path d="M20.8271186,55.8485667 C18.2660151,56.9977976 17.1179215,60.0135478 18.2627797,62.5844333 C19.4076379,65.1553188 22.4119134,66.3077976 24.9730169,65.1585667 C27.5341017,64.0152333 30.8127458,56.9543333 30.8127458,56.9543333 C28.2355888,56.1703235 25.5763952,55.6896212 22.888678,55.5219 C22.1860557,55.490279 21.4843063,55.6013878 20.8254915,55.8485667" id="Shape"></path>
                        <path d="M15.4185763,48.3646333 C15.370256,49.7165641 15.8592507,51.0323339 16.7778653,52.0221612 C17.69648,53.0119886 18.9693721,53.5946901 20.3162034,53.6419333 C23.1164746,53.7448333 29.1530847,48.8562667 29.1530847,48.8562667 C29.1530847,48.8562667 23.4825763,43.5512 20.6741695,43.4483 C20.6107119,43.4483 20.5505085,43.4483 20.488678,43.4483 C17.7547593,43.4519012 15.5140247,45.6268433 15.4185763,48.3695333" id="Shape"></path>
                        <path d="M18.5491525,34.6691333 C17.927995,35.8697371 17.8079145,37.2690052 18.215375,38.5585571 C18.6228356,39.8481091 19.5243931,40.922099 20.7213559,41.5438333 C23.2124746,42.8423333 30.7492881,41.0260667 30.7492881,41.0260667 C30.7492881,41.0260667 27.8920678,33.7887667 25.4009492,32.4935333 C24.2051062,31.8690511 22.8109875,31.7474572 21.5257688,32.1555431 C20.2405501,32.563629 19.1696951,33.4679077 18.5491525,34.6691333" id="Shape"></path>
                        <path d="M27.7488814,23.3109333 C25.4991226,24.9931716 25.0323334,28.1869175 26.7058983,30.4469667 C28.3785763,32.7075 35.9511864,34.3865667 35.9511864,34.3865667 C35.9511864,34.3865667 36.5385763,26.6200667 34.8626441,24.3628 C34.0590422,23.2758056 32.857869,22.5541464 31.5238056,22.3568419 C30.1897422,22.1595373 28.8322691,22.5027792 27.7505085,23.3109333" id="Shape"></path>
                        <path d="M40.6649492,17.2627 C37.914429,17.8136999 36.1282897,20.4969291 36.6736271,23.2586667 C37.2219661,26.0206333 43.3448136,30.7965 43.3448136,30.7965 C43.3448136,30.7965 47.1848136,24.0345 46.6364746,21.2725333 C46.3755973,19.9448736 45.5992121,18.7759602 44.478614,18.0236921 C43.3580159,17.2714241 41.9852968,16.9976237 40.663322,17.2627" id="Shape"></path>
                    </g>
                </g>
            </g>
        </g>
    </g>
</svg>