<svg xmlns="http://www.w3.org/2000/svg" preserveAspectRatio="xMidYMid" width="96.24" height="38.75" viewBox="0 0 96.24 38.75"><defs><style>.cls-1{fill:#171717;fill-rule:evenodd}</style></defs><path d="M-.004 38.755V-.005h96.247v38.76H-.004zm30.79-35.02l-4.401 21.634h-.089L19.87 3.735H9.408L2.711 34.933h7.907l4.36-21.587h.089l6.555 21.587h10.427l6.644-31.198h-7.907zm29.333 0L57.646 15.67h-9.925l2.467-11.935h-8.397l-6.514 31.198h8.396l2.785-13.362h9.931l-2.785 13.362h8.397l6.515-31.198h-8.397zM83.025 3.2c-6.874 0-13.973 2.413-13.973 10.463 0 8.8 12.174 6.921 12.174 11.929 0 3.218-4.084 3.711-6.692 3.711-2.738 0-6.066-.717-7.724-1.79l-1.976 6.346c2.738.851 6.467 1.615 9.7 1.615 7.276 0 15.319-2.238 15.319-10.862 0-9.476-12.174-7.826-12.174-12.247 0-2.507 2.697-2.994 6.019-2.994 3.098 0 5.299.67 6.916 1.427l2.024-6.211C90.525 3.606 86.89 3.2 83.025 3.2z" class="cls-1"/></svg>