<svg xmlns="http://www.w3.org/2000/svg" preserveAspectRatio="xMidYMid" width="82" height="50" viewBox="0 0 82 50"><defs><style>.cls-1{fill:#000;fill-rule:evenodd}</style></defs><path d="M67.612 28.379c-3.254 0-6.32-1.043-8.871-3.016-2.551 1.973-5.617 3.016-8.871 3.016a14.378 14.378 0 0 1-8.871-3.016c-2.551 1.973-5.617 3.016-8.87 3.016a14.377 14.377 0 0 1-8.872-3.016c-2.551 1.973-5.617 3.016-8.87 3.016-7.934 0-14.389-6.363-14.389-14.185S6.453.008 14.387.008c3.251 0 6.317 1.043 8.87 3.017A14.374 14.374 0 0 1 32.129.008c3.253 0 6.319 1.043 8.87 3.017A14.373 14.373 0 0 1 49.87.008c3.254 0 6.32 1.043 8.871 3.017A14.373 14.373 0 0 1 67.612.008c7.934 0 14.389 6.364 14.389 14.186s-6.455 14.185-14.389 14.185zm-44.355-4.66v-.001.001zm-2.458-18.27a11.196 11.196 0 0 0-6.412-2.047C8.351 3.402 3.44 8.243 3.44 14.194s4.911 10.792 10.947 10.792c2.273 0 4.547-.726 6.412-2.047a14.144 14.144 0 0 1-3.059-8.745 13.89 13.89 0 0 1 3.059-8.745zm2.458 2.422a10.59 10.59 0 0 0-2.075 6.323c0 2.292.717 4.476 2.075 6.323a10.593 10.593 0 0 0 2.077-6.323c0-2.294-.718-4.478-2.077-6.323zm15.285-2.422a10.972 10.972 0 0 0-6.421-2.044c-2.32 0-4.533.706-6.405 2.044a13.89 13.89 0 0 1 3.059 8.745 14.14 14.14 0 0 1-3.059 8.745 10.94 10.94 0 0 0 6.405 2.043c2.331 0 4.549-.705 6.421-2.043a14.137 14.137 0 0 1-3.061-8.745c0-3.21 1.058-6.233 3.061-8.745zm2.457 2.422a10.59 10.59 0 0 0-2.075 6.323c0 2.292.717 4.476 2.075 6.323a10.598 10.598 0 0 0 2.077-6.323c0-2.294-.718-4.478-2.077-6.323zm15.283-2.422a10.962 10.962 0 0 0-6.419-2.044c-2.32 0-4.533.706-6.405 2.043a13.896 13.896 0 0 1 3.06 8.746c0 3.151-1.087 6.253-3.06 8.745a10.943 10.943 0 0 0 6.405 2.043c2.331 0 4.549-.705 6.419-2.043a14.15 14.15 0 0 1-3.059-8.745c0-3.21 1.058-6.233 3.059-8.745zm2.459 2.422a10.586 10.586 0 0 0-2.076 6.323c0 2.291.717 4.475 2.076 6.323a10.599 10.599 0 0 0 2.076-6.323 10.59 10.59 0 0 0-2.076-6.323zm8.871-4.469c-2.271 0-4.544.726-6.412 2.047a13.892 13.892 0 0 1 3.059 8.745 14.15 14.15 0 0 1-3.059 8.745 11.182 11.182 0 0 0 6.412 2.047c6.036 0 10.947-4.841 10.947-10.792S73.648 3.402 67.612 3.402zm11.642 15.736h1.652v-.001h-1.652v.001zM16.803 35h5.556l9.902 14.643H27.09l-1.524-2.413h-9.442l-1.494 2.413H9.624l8.714-12.853L16.803 35zm1.033 9.372h5.984l-3.002-4.851-2.982 4.851zm13.655-5.359h4.401v4.691c0 .407-.027.787 0 1.139.027.326.055.651.137.949.275.895.963 1.465 2.449 1.465 1.072 0 2.117-.434 2.42-1.41.082-.353.138-.732.138-2.088v-4.746h4.346v6.183c0 1.546-.523 2.44-1.238 3.118-1.375 1.329-3.301 1.681-5.804 1.681-2.063 0-4.291-.379-5.611-1.654-.771-.705-1.238-1.735-1.238-3.118v-6.21zm17.769.895c1.54-.841 3.273-1.194 4.978-1.194.716 0 1.623.163 2.338.569 0 0-.632-.487-1.127-1.029L52.505 35h5.172l3.713 4.637c1.54 1.926 2.035 3.308 2.035 4.502 0 1.681-.687 2.955-1.705 3.876-1.733 1.546-4.786 1.98-6.739 1.98-1.321 0-4.923-.189-6.904-2.142-.88-.895-1.568-2.061-1.568-3.579 0-1.98 1.1-3.472 2.751-4.366zm3.218 6.752c.77.38 1.705.542 2.503.542s1.706-.108 2.475-.515c.936-.461 1.678-1.302 1.678-2.413 0-1.058-.825-2.034-2.063-2.549-.687-.272-1.568-.353-2.172-.353-.633 0-1.431.108-2.091.407-1.073.461-1.981 1.383-1.981 2.549 0 .976.716 1.872 1.651 2.332zm16.641 2.983h-4.484v-10.63h4.484v10.63z" class="cls-1"/></svg>