<svg xmlns="http://www.w3.org/2000/svg" preserveAspectRatio="xMidYMid" width="121.88" height="31.875" viewBox="0 0 121.88 31.875"><defs><style>.cls-1{fill:#171717;fill-rule:evenodd}</style></defs><path d="M.008 31.873v-.618h121.866v.618H.008zm116.413-7.795c.769.055 3.804.496 5.247-1.668l-.243 1.521s-.038 1.339-1.818 1.339h-11.262s1.012-.752 1.012-2.806V11.222s.094-2.952-.599-5.502c0 0 8.394.147 12.723-.348v2.769s-.413-1.559-3.654-1.21l-5.378.587v6.859h8.526v1.522h-8.564v7.813l4.01.366zM93.43 5.537v14.965s-.038 4.035 4.722 4.035c4.759 0 5.64-3.943 5.64-6.364V8.802s.15-2.256-1.274-3.265h3.41s-.319 1.247-.319 2.879v11.389s.675 6.125-7.72 6.125c-8.376 0-7.926-4.676-7.926-6.235V8.875s.056-1.706-.712-3.338h4.179zM82.861 26.315c1.331 1.046 2.005 2.275 3.879 2.275v.917s-1.874.165-3.879-.697c-1.686-.753-3.035-2.238-6.239-3.155-7.196-.256-9.594-4.786-9.594-10.288 0-5.667 2.679-10.307 10.231-10.307 7.551 0 10.231 4.64 10.231 10.307 0 4.805-3.298 8.858-7.739 9.995 1.03.074 2.342.348 3.11.953zm1.424-10.857c0-4.951-1.93-9.004-6.951-9.004-5.041 0-6.971 4.053-6.971 9.004 0 4.952 2.192 8.987 6.971 8.987 4.759 0 6.951-4.035 6.951-8.987zm-19.356-9.94s-.6 3.027-.6 6.86v9.518s-.037 2.696.206 3.301h-3.597s.262-1.853.262-3.869v-8.07s.262-4.604-.581-7.74h4.31zM40.551 25.051V8.141s-.019-1.338-.806-2.733h4.141l10.606 13.993.899-11.388s.375-1.614-1.274-2.549h2.736v19.587h-2.174L42.987 9.957l-.769 11.829s-.393 2.127 1.031 3.265h-2.698zM37.196 5.518s-.599 3.027-.599 6.86v9.518s-.038 2.696.225 3.301h-3.636s.282-1.853.282-3.869v-8.07s.262-4.604-.581-7.74h4.309zm-14.053.147s-.337 6.42-.337 8.437v9.444s1.93.514 4.384.514c2.455 0 3.429-.771 4.254-2.072 0 0-.094 1.999-1.068 3.135H19.245s.413-2.402.413-5.263v-8.766s.112-3.081-.525-5.429h4.01zM.008-.001h121.866v.633H.008v-.633zm10.88 24.428c4.179 0 5.846-2.898 5.846-2.898s.469 2.788-2.023 3.686c0 0-2.418.44-3.729.44-1.312 0-10.981.624-10.981-10.178 0-10.783 8.938-10.435 10.718-10.435 0 0 3.561.055 5.603.936v2.31s-1.536-1.779-5.453-1.779c-3.916 0-7.645 2.751-7.645 8.858 0 6.107 3.504 9.06 7.664 9.06z" class="cls-1"/></svg>