<svg xmlns="http://www.w3.org/2000/svg" preserveAspectRatio="xMidYMid" width="137" height="26" viewBox="0 0 137 26"><defs><style>.cls-1{fill:#000;fill-rule:evenodd}</style></defs><path d="M135.635 6.618h-6.658l-4.495 11.104h-7.058l4.428-11.137h-6.792l1.532-3.976H137l-1.365 4.009zm-33.992 11.17l-4.328-8.542-3.795 8.542h-6.992l6.226-15.146h8.723l4.028 8.082 3.496-8.082h6.825L109.7 17.788h-8.057zm-13.35 3.614c.499.295.632.755.432 1.314h-1.231a.571.571 0 0 0-.1-.559c-.2-.23-.566-.361-1.132-.328-.6.033-1.132.295-1.565.755l-.533.822c-.166.427-.233.755-.199 1.018.066.296.266.526.566.657l.466.066.532-.066c.566-.098 1.032-.394 1.332-.854h1.232c-.233.559-.699 1.019-1.365 1.314-.566.296-1.265.427-2.031.46-.699 0-1.199-.164-1.565-.46-.366-.295-.499-.69-.466-1.215.034-.263.1-.526.233-.822l.5-.92c.832-1.018 1.964-1.544 3.362-1.544.666 0 1.166.132 1.532.362zm-10.721-5.388h-8.123l-1.632 1.774h-7.69L74.776 2.642h9.289l1.597 15.146h-7.723l-.367-1.774zm-.166-8.805l-4.195 4.862 4.361-.033-.166-4.829zM52.17 17.788l6.159-15.179h7.424l-6.159 15.179H52.17zM46.343 7.307c-.232-.821-.769-1.509-1.664-1.642-1.314-.196-2.819-.047-4.228.164-1.479.222-2.564 1.216-3.43 2.398-1.198 1.742-1.531 3.22-1.031 4.501.799.887 1.93 1.347 3.429 1.413 1.165.033 2.43-.197 3.762-.657.732-.263 1.331-.756 1.764-1.446h-2.996l1.265-3.285h10.687l-3.529 8.509c-1.764-.788-3.995-.92-6.692-.361l-3.329.723-3.463.328c-2.23-.066-3.928-.263-5.06-.624-1.765-.526-3.03-1.512-3.796-2.924-.366-1.971-.033-3.91.999-5.783.932-1.675 2.331-3.153 4.195-4.435 2.364-1.445 5.36-2.267 8.956-2.464a31.042 31.042 0 0 1 9.522.986c.832.329 1.465.723 1.897 1.15.899.755 1.166 1.905.766 3.449h-8.024zm-28.765 3.746c-1.664.361-3.229 1.051-4.694 2.037v-.033c1.199-1.774 2.83-2.99 4.861-3.647 2.164-.69 4.195-.525 6.093.427.233 1.117.266 1.971.133 2.53-2.364-1.15-4.495-1.61-6.393-1.314zm-.366-4.206c-2.164.296-4.095 1.118-5.726 2.432L9.089 11.48c-.933.821-1.798 1.478-2.564 1.905-2.064 1.183-4.095 1.38-6.092.559-.2-.23-.3-.624-.333-1.15L0 11.611a11.39 11.39 0 0 1 1.964-6.308C3.262 3.332 4.96 1.887 7.025.999 8.789.211 10.753-.118 12.917.047c2.164.164 4.062.723 5.66 1.741 1.765 1.15 3.063 2.464 3.962 3.975l.866 2.005c-1.865-.921-3.929-1.216-6.193-.921zM7.224 17.624c2.531.098 4.595-.493 6.226-1.709l1.299-.985 1.198-1.117c.966-.855 1.931-1.282 2.863-1.282 1.632-.066 3.263.394 4.894 1.413-.266 1.84-1.165 3.581-2.73 5.191-1.465 1.511-3.129 2.562-4.994 3.187a12.398 12.398 0 0 1-6.392.427c-2.197-.427-4.095-1.314-5.66-2.694a9.844 9.844 0 0 1-2.929-4.14c1.897 1.051 3.961 1.61 6.225 1.709zm68.584 3.482c1.431 0 2.031.427 1.764 1.249-.199.394-.532.722-.999.952.367.296.467.723.234 1.216-.167.361-.5.723-1.066 1.018-.433.197-.965.296-1.631.296h-2.797l1.931-4.731h2.564zm.466 1.347c.166-.361-.033-.526-.566-.526h-1.532l-.432 1.052h1.464c.567 0 .9-.165 1.066-.526zm-1.865 2.563c.633 0 1.066-.197 1.233-.625.166-.394 0-.591-.467-.591h-1.764l-.5 1.216h1.498zm7.325-3.91l-1.931 4.731h-1.298l1.964-4.731h1.265zm10.82 0l.433 2.037 2.031-2.037h1.431l-3.229 2.99-.699 1.741h-1.298l.732-1.741-.832-2.99h1.431zm5.161 1.478c.832-1.018 1.964-1.544 3.362-1.544.666 0 1.165.132 1.532.362.499.295.632.755.432 1.314h-1.231c.166-.624-.267-.92-1.232-.887-.599.033-1.132.295-1.565.755l-.533.822c-.166.427-.233.755-.199 1.018a.89.89 0 0 0 .532.657l.5.066.532-.066c.433-.098.733-.23.966-.427l.366-.427h1.232c-.233.559-.699.986-1.365 1.314-.566.296-1.265.427-2.031.46-.699 0-1.232-.164-1.598-.46-.333-.295-.466-.69-.433-1.215.033-.263.1-.526.2-.822.166-.328.333-.624.533-.92zm9.455-1.478l-1.631 3.91h2.996l-.3.821h-4.295l1.965-4.731h1.265zm9.655 0l-.3.821h-3.263l-.432 1.052h2.996l-.333.821h-2.996l-.5 1.216h3.396l-.333.821h-4.661l1.931-4.731h4.495zm1.898 3.318c-.101.165-.067.329.066.493.166.23.533.296 1.065.263l1.066-.197.399-.362c.1-.164.067-.328-.033-.427-.1-.131-.433-.23-.965-.295l-1.266-.23c-.765-.23-.965-.69-.599-1.314.499-.888 1.465-1.315 2.897-1.315.965 0 1.598.197 1.831.592.2.295.2.591 0 .92h-1.199c.233-.493-.1-.723-.999-.756-.699 0-1.165.197-1.365.559-.099.229-.033.394.233.459l1.432.296c.633.099 1.065.23 1.265.46.233.296.233.657-.066 1.117-.3.427-.666.756-1.166.953-.499.23-1.198.361-2.097.361-.633 0-1.065-.131-1.365-.361-.433-.263-.566-.657-.4-1.216h1.266zm11.652-10.349c.5 0 .932.197 1.299.559.366.361.532.788.532 1.281 0 .493-.166.92-.532 1.281a1.77 1.77 0 0 1-1.299.526c-.533 0-.966-.164-1.332-.526a1.723 1.723 0 0 1-.532-1.281c0-.493.166-.92.532-1.281a1.82 1.82 0 0 1 1.332-.559zm-1.099 2.859c.3.295.666.46 1.099.46.4 0 .766-.165 1.065-.46.267-.296.4-.625.4-1.019 0-.427-.133-.755-.4-1.051-.299-.296-.665-.46-1.065-.46a1.52 1.52 0 0 0-1.099.46 1.38 1.38 0 0 0-.432 1.051c0 .394.133.723.432 1.019zm1.831-1.906c.183.066.234.263.234.493 0 .361-.2.525-.566.559l.499.788h-.466l-.433-.788h-.4v.788h-.366V14.93h.992c.139 0 .333.036.506.098zm-1.132.197v.559h.6c.233 0 .366-.099.366-.296 0-.164-.166-.263-.466-.263h-.5z" class="cls-1"/></svg>