<svg xmlns="http://www.w3.org/2000/svg" preserveAspectRatio="xMidYMid" width="106.25" height="55" viewBox="0 0 106.25 55"><defs><style>.cls-1{fill:#171717;fill-rule:evenodd}</style></defs><path d="M105.186 38.356a1.072 1.072 0 1 1 0-2.143 1.072 1.072 0 0 1 0 2.143zm0-1.934a.859.859 0 0 0-.869.858.86.86 0 0 0 .869.867.862.862 0 1 0 0-1.725zm.154.896l.326.497h-.183l-.309-.497h-.19v.497h-.159v-1.083h.471a.55.55 0 0 1 .264.05c.08.048.12.145.12.237 0 .212-.15.292-.34.299zm-.075-.463h-.281v.326h.176c.151 0 .358.028.358-.166 0-.14-.119-.16-.253-.16zm-4.944 7.043c2.778 1.864 3.636 3.212 3.636 5.536 0 3.414-2.377 5.508-5.87 5.508-2.463 0-3.894-.773-4.668-.773v-4.018h.401c.344 1.751 2.148 2.956 4.066 2.956 1.633 0 2.922-.862 2.922-2.583 0-1.176-.573-2.209-2.062-3.241l-2.091-1.435c-1.804-1.233-3.321-2.639-3.321-5.164 0-2.984 2.004-4.906 5.325-4.906 1.977 0 2.807.46 3.953.574v3.471h-.401c-.259-1.319-1.632-2.381-3.465-2.381-1.719 0-2.492.948-2.492 2.209 0 1.091.659 1.951 2.263 3.041l1.804 1.206zm-11.77 0c2.778 1.864 3.637 3.212 3.637 5.536 0 3.414-2.377 5.508-5.87 5.508-2.464 0-3.895-.773-4.669-.773v-4.018h.402c.343 1.751 2.147 2.956 4.065 2.956 1.634 0 2.922-.862 2.922-2.583 0-1.176-.573-2.209-2.062-3.241l-2.091-1.435c-1.804-1.233-3.321-2.639-3.321-5.164 0-2.984 2.004-4.906 5.327-4.906 1.975 0 2.805.46 3.951.574v3.471h-.401c-.258-1.319-1.633-2.381-3.465-2.381-1.718 0-2.491.948-2.491 2.209 0 1.091.658 1.951 2.262 3.041l1.804 1.206zM70.28 54.282c.144-.142.173-.889.173-1.29V38.36c0-1.204-.401-1.835-.831-1.921v-.373h10.051v2.524h-.372c-.086-.43-.944-.717-1.489-.717h-3.808v6.369h3.206c.43 0 1.433-.116 1.547-.402h.373v2.41h-.373c-.144-.144-.945-.201-1.432-.201h-3.321v6.799h3.779c1.032 0 1.662-.402 1.776-.86h.372v2.668H70.28v-.374zm-2.322-24.986l.003-.213c.695.026 1.086-.385 1.099-1.063-.063.106-.245.21-.44.231-.522.054-.844-.21-.883-.682-.043-.507.283-.932.776-.974.654-.058 1.013.366 1.039 1.064.045 1.22-.711 1.75-1.594 1.637zm.651-2.495c-.337 0-.369.43-.37.615-.001.336.09.582.366.582.368 0 .37-.46.37-.613.001-.185-.059-.584-.366-.584zM55.534 37.873c-.316-.575-.917-1.348-1.461-1.434v-.373h4.581l6.615 11.876V38.36c0-1.204-.315-1.835-.716-1.921v-.373h2.721v18.59h-2.263l-9.477-16.783zm10.969-9.499c0 .522-.399.936-1.052.936-.192 0-.395-.027-.572-.109l.01-.221c.157.059.342.103.555.077a.618.618 0 0 0 .549-.622c0-.372-.236-.576-.601-.576-.154 0-.298.025-.434.08l.092-1.302h1.341v.344a1.065 1.065 0 0 0-.278-.036h-.648l-.038.662c.102-.014.191-.026.321-.019.465.025.755.343.755.786zm-.394-21.615h-.031l-.306 1.168h-.185l-.306-1.168v1.168h-.246V6.451h.368l.276 1.046.276-1.046h.368v1.476h-.214V6.759zm-1.626 1.168h-.276V6.698h-.367v-.247h1.011v.247h-.368v1.229zm-7.88-1.121c-1.724-.086-3.282-.52-5.456-1.482a35.836 35.836 0 0 1-2.424-1.205c-.008.049-.232 1.068-.831 2.369-.582 1.307-1.198 2.145-1.232 2.187l.774 1.706c.013-.068.299-1.311 1.034-2.905.716-1.61 1.464-2.646 1.502-2.695-.011.061-.297 1.308-1.034 2.907-.715 1.606-1.46 2.641-1.502 2.694l.826 1.821c.015-.081.359-1.59 1.251-3.528.87-1.954 1.781-3.21 1.827-3.268-.013.073-.357 1.587-1.252 3.53-.868 1.95-1.776 3.204-1.825 3.267l.889 1.958c.019-.099.44-1.905 1.51-4.227 1.044-2.345 2.131-3.856 2.185-3.926-.016.087-.438 1.9-1.513 4.232-1.041 2.337-2.122 3.846-2.182 3.923l.955 2.102c.024-.119.53-2.276 1.809-5.054 1.253-2.806 2.547-4.614 2.612-4.698-.019.105-.526 2.27-1.811 5.059-1.249 2.798-2.537 4.602-2.609 4.694l1.037 2.284c.03-.149.653-2.746 2.194-6.088 1.505-3.378 3.055-5.563 3.133-5.664-.024.126-.645 2.734-2.191 6.092-1.502 3.369-3.05 5.551-3.135 5.662l1.121 2.465c.035-.168.833-3.323 2.712-7.41 1.838-4.12 3.69-6.802 3.783-6.926-.032.151-.828 3.315-2.711 7.412-1.835 4.112-3.684 6.791-3.784 6.925l.655 1.441c.215.492.584.798.983.86-.737 1.076-3.133 3.472-3.684 3.841L43.134 7.619a2.794 2.794 0 0 1-1.135.247c-1.718 0-3.037-1.322-3.037-3.257C38.962 2.243 40.986 0 44.943 0c1.503 0 3.312.337 5.367 1.105C55.59 3.103 59.975 2.212 62.797 0l1.595 4.147c-1.674 1.578-4.883 2.804-7.789 2.659zM41.907 3.871c-.614 0-1.135.522-1.135 1.137s.521 1.137 1.135 1.137c.613 0 1.134-.522 1.134-1.137s-.521-1.137-1.134-1.137zm4.58-.903c-1.024-.415-2.244-.464-2.984-.201.618.333 1.004 1.088 1.469 2.165.084.194.443.99.957 2.128.008-.044.173-.845.643-1.862.456-1.026.95-1.68.976-1.712a12.115 12.115 0 0 0-1.061-.518zm1.062.518c-.007.041-.172.844-.643 1.863-.456 1.026-.949 1.679-.976 1.712l.73 1.614c.01-.055.233-1.071.831-2.368.583-1.31 1.201-2.149 1.232-2.188-.429-.23-.82-.444-1.174-.633zm-9.17 23.343c-.271 0-.464.139-.485.345-.01.099.023.2.109.285.074.075.192.134.377.224.483.21.675.43.675.83 0 .399-.277.799-.921.799-.278 0-.531-.089-.675-.205v-.256c.191.128.398.212.677.193.236-.016.434-.158.446-.391.012-.234-.135-.355-.448-.509-.488-.225-.681-.406-.675-.799.007-.414.324-.756.829-.768.226-.005.448.039.603.129l-.002.276a.92.92 0 0 0-.51-.153zm-.92 27.827h-4.037v-.374c.114-.085.2-.889.2-1.377V38.36c0-1.204-.401-1.835-.83-1.921v-.373h4.352v16.525c0 1.061.2 1.662.315 1.691v.374zm-2.483-25.835v-1.813c0-.155 0-.216-.031-.369h1.441v.339a1.451 1.451 0 0 0-.318-.032h-.571v.8h.429c.061 0 .174-.004.276-.024v.352a1.49 1.49 0 0 0-.276-.022h-.429v.891h.675c.122 0 .189-.02.276-.043v.35h-1.503c.031-.154.031-.307.031-.429zM24.659 54.942c-4.353 0-6.186-2.438-6.186-6.168V38.36c0-1.204-.401-1.835-.83-1.921v-.373h4.41V48.86c0 1.234.143 1.894.401 2.41.572 1.119 1.603 1.464 2.721 1.464 1.174 0 2.29-.345 2.863-1.464.258-.516.401-1.176.401-2.553V38.36c0-1.204-.401-1.835-.831-1.921v-.373h2.95v12.393c0 1.462-.114 2.266-.343 2.983-.688 2.324-2.549 3.5-5.556 3.5zm-9.049-.861c-.201.088-2.721.919-6.043.919C4.384 55 .003 51.242.003 43.382c0-6.8 3.837-11.305 9.392-11.305 2.721 0 4.009.689 4.812.689.114 0 .171-.029.2-.058h.286v4.62h-.458c-.544-2.352-2.348-3.385-4.353-3.385-3.264 0-5.928 2.725-5.928 9.295 0 7.028 2.95 9.811 6.043 9.811.888 0 1.517-.115 1.919-.286v-6.714c0-.975-.258-2.209-1.318-2.439v-.401h5.212v.373c-.143.086-.2 1.405-.2 1.98v8.519zm24.518-27.104c-.091 0-.184 0-.276.031v-.369h1.932v.369c-.092-.031-.184-.031-.276-.031h-.429v1.844c0 .122 0 .275.03.429h-.582c.03-.154.03-.307.03-.429v-1.845l-.429.001zm10.075 20.965V38.36c0-1.204-.315-1.835-.716-1.921v-.373h2.722v18.59h-2.264l-9.478-16.783c-.316-.575-.917-1.348-1.461-1.434v-.373h4.582l6.615 11.876zm-9.937-7.918l2.004 3.701v9.038c0 .717.144 1.434.287 1.519v.374h-2.463v-.374c.143-.142.172-1.233.172-1.434V40.024zm3.604-11.072v.322a.533.533 0 0 0-.184-.024h-.307c-.061 0-.135 0-.184.021v-.319a.628.628 0 0 0 .184.022h.307a.82.82 0 0 0 .184-.022zm-1.013-.654v-1.506c0-.031 0-.092-.03-.153h.675c.613 0 .981.214.981.86 0 .553-.368.953-.889.953h-.767c.03-.062.03-.123.03-.154zm.43-.088h.184c.337 0 .552-.196.552-.717 0-.424-.215-.619-.491-.619h-.245v1.336zm18.849-1.225v-.348h1.707l-1.195 2.612h-.543l1.103-2.303h-.796a.752.752 0 0 0-.276.039zm-13.789 3.74L42.091 9.494c-.062-.215-.184-.615-.184-.799 0-.246.184-.399.429-.399.184 0 .338.092.399.277l6.717 20.555c7.18-5.808 11.014-12.997 10.339-21.877.982-.215 2.239-.677 2.974-1.106 1.687 9.463-1.471 18.128-9.139 24.58h-5.279zm11.604-3.909l.694-.24v2.243c0 .122 0 .276.031.43h-.548c.03-.154.03-.308.03-.43v-1.606a.459.459 0 0 0-.207-.397zm-4.619 13.208l2.005 3.701v9.038c0 .717.143 1.434.286 1.519v.374h-2.462v-.374c.143-.142.171-1.233.171-1.434V40.024z" class="cls-1"/></svg>