<svg xmlns="http://www.w3.org/2000/svg" preserveAspectRatio="xMidYMid" width="115" height="32.624" viewBox="0 0 115 32.624"><defs><style>.cls-1{fill:#000;fill-rule:evenodd}</style></defs><path d="M15.87 20.603h-5.697v-7.57H4.882v19.278h5.291v-7.469h5.697v7.469h5.29V13.033h-5.29v7.57m19.534-1.211c-.611-.606-1.425-1.212-2.34-1.514-1.018-.303-2.035-.606-3.256-.606-1.221 0-2.34.202-3.256.606-1.017.302-1.729.908-2.339 1.514-.611.605-1.12 1.413-1.425 2.422-.305 1.009-.508 2.019-.508 3.129 0 1.11.203 2.221.508 3.129.305.908.814 1.716 1.425 2.422.61.606 1.424 1.212 2.339 1.514 1.018.303 2.035.606 3.256.606 1.221 0 2.34-.202 3.154-.606.916-.302 1.729-.908 2.34-1.514.61-.605 1.119-1.413 1.424-2.422a9.612 9.612 0 0 0 .509-3.129 9.612 9.612 0 0 0-.509-3.129c-.305-1.009-.712-1.817-1.322-2.422zm-3.663 8.68c-.305.707-1.017 1.009-1.933 1.009-1.017 0-1.526-.302-1.933-1.009-.305-.707-.509-1.817-.509-3.129 0-1.413.204-2.422.509-3.129.305-.707 1.017-1.009 1.933-1.009 1.017 0 1.526.302 1.933 1.009.305.707.509 1.817.509 3.129-.102 1.312-.204 2.422-.509 3.129zm19.534-8.68c-.611-.606-1.425-1.212-2.34-1.514-1.018-.303-2.035-.606-3.256-.606-1.221 0-2.34.101-3.357.505-1.018.302-1.73.908-2.34 1.514-.611.605-1.119 1.413-1.424 2.422-.306 1.009-.509 2.019-.509 3.129 0 1.11.203 2.221.509 3.129.305.908.813 1.716 1.424 2.423.61.605 1.424 1.211 2.34 1.514 1.017.302 2.035.605 3.255.605 1.221 0 2.34-.202 3.154-.605.916-.303 1.73-.909 2.34-1.514.611-.606 1.119-1.414 1.425-2.423a9.613 9.613 0 0 0 .508-3.129 9.613 9.613 0 0 0-.508-3.129c-.102-.908-.611-1.716-1.221-2.321zm-3.663 8.68c-.305.707-1.017 1.009-1.933 1.009-1.017 0-1.526-.302-1.933-1.009-.305-.707-.509-1.817-.509-3.129 0-1.413.204-2.422.509-3.129.305-.707 1.018-1.009 1.933-1.009 1.018 0 1.526.302 1.933 1.009.407.707.509 1.817.509 3.129s-.204 2.422-.509 3.129zm16.889-4.037c-.611-.303-1.119-.606-1.832-.707-.61-.202-1.221-.303-1.831-.404-.61-.202-1.017-.202-1.424-.403-.407-.202-.611-.505-.611-.808 0-.404.204-.606.712-.807.509-.202 1.018-.202 1.527-.202.61 0 1.322.101 2.034.202.713.101 1.425.302 1.933.605v-3.533c-.305-.1-.61-.201-1.017-.201-.407-.101-.712-.202-1.119-.202-.204-.202-.611-.202-1.017-.303-.408 0-.713-.101-1.018-.101-.814 0-1.526.101-2.34.202-.814.101-1.424.505-2.136.807a5.432 5.432 0 0 0-1.526 1.514c-.407.606-.611 1.413-.611 2.322 0 1.009.204 1.716.611 2.321.407.606.813 1.01 1.424 1.413.61.303 1.119.606 1.933.707.61.202 1.322.303 1.933.404.61.101 1.017.202 1.424.404.407.201.611.403.611.706 0 .303-.204.606-.611.707-.305.201-.814.201-1.424.201-.407 0-.814 0-1.323-.1-.508-.101-.915-.202-1.424-.303-.509-.101-.916-.202-1.323-.404-.407-.202-.813-.303-1.119-.606l-.203 3.735c.814.303 1.831.606 2.848.807 1.018.202 2.035.202 2.951.202.814 0 1.526-.101 2.34-.202a12.118 12.118 0 0 0 2.035-.807c.61-.404 1.017-.908 1.424-1.514.305-.606.61-1.413.61-2.322 0-.908-.203-1.715-.61-2.321-.712-.303-1.221-.707-1.831-1.009zm16.278-5.451a3.99 3.99 0 0 0-1.628-1.009c-.611-.202-1.323-.303-2.035-.303-.814 0-1.526.202-2.238.404-.61.202-1.221.605-1.628 1.211v-7.368h-6.918v3.532h1.831v16.655c.407.101.814.202 1.323.302.508.101 1.017.202 1.628.202.61.101 1.119.202 1.729.202.611.101 1.119.101 1.73.101 1.322 0 2.441-.202 3.561-.404 1.119-.201 1.933-.807 2.746-1.514.611-.605 1.12-1.413 1.425-2.523.305-1.009.509-2.12.509-3.331 0-1.413-.204-2.725-.509-3.734-.305-1.111-.814-1.918-1.526-2.423zm-3.358 8.378c-.203.605-.407 1.11-.814 1.514-.203.202-.61.504-.915.605a3.679 3.679 0 0 1-1.119.202c-.204 0-.509 0-.712-.101-.204 0-.407-.101-.611-.101v-5.753c0-.707.204-1.312.509-1.716.305-.404.814-.605 1.526-.605.916 0 1.424.302 1.831 1.009.305.706.509 1.615.509 2.725.102.909 0 1.716-.204 2.221zm20.551 2.22c-.508 0-.712-.202-.712-.807v-5.653c0-.908-.101-1.615-.305-2.321a3.58 3.58 0 0 0-1.119-1.615c-.61-.505-1.424-.908-2.34-1.11-.916-.202-1.933-.303-3.256-.303-1.017 0-1.933.101-2.95.303-1.017.202-1.831.403-2.543.706v3.331c.61-.303 1.424-.606 2.238-.807.915-.202 1.729-.303 2.441-.303.509 0 .916.101 1.221.202.407.101.611.202.916.504.203.202.305.505.407.808.102.303.102.605.102 1.009v.404c-.916-.303-1.933-.505-2.951-.505a9.3 9.3 0 0 0-2.34.303c-.61.202-1.322.505-1.831.908-.509.404-.916.909-1.119 1.514-.204.606-.407 1.313-.407 2.12 0 1.514.509 2.725 1.424 3.533.916.807 2.238 1.211 3.765 1.211.813 0 1.627-.202 2.339-.404.713-.302 1.323-.706 1.73-1.211.203.606.611 1.009 1.017 1.211.509.202 1.12.404 1.832.404.61 0 1.221-.101 1.831-.202.61-.202 1.017-.404 1.424-.605l.204-2.726c-.102.101-.305.202-.611.202 0-.202-.203-.101-.407-.101zm-5.799-1.615c0 .606-.203 1.01-.508 1.312-.204.303-.611.505-1.221.505-.611 0-1.018-.202-1.323-.505-.305-.302-.508-.807-.508-1.413 0-.605.203-1.009.406-1.413.306-.403.713-.605 1.425-.605.305 0 .61 0 .915.101.306.101.509.201.713.201l.101 1.817zm22.484 1.413c-.203.101-.508.202-.712.202-.508 0-.712-.202-.712-.807v-5.653c0-.908-.102-1.615-.305-2.321a3.595 3.595 0 0 0-1.119-1.615c-.611-.505-1.425-.908-2.34-1.11-.916-.202-2.035-.303-3.358-.303-1.017 0-1.933.101-2.95.303-1.017.202-1.831.403-2.543.706v3.331c.61-.303 1.424-.606 2.238-.807.915-.202 1.729-.303 2.442-.303.508 0 .915.101 1.22.202.407.101.611.202.916.504.204.202.305.505.407.808.102.303.102.605.102 1.009v.404c-.916-.303-1.933-.505-2.951-.505a9.3 9.3 0 0 0-2.34.303c-.61.202-1.322.505-1.831.908-.509.404-.916.909-1.119 1.514-.204.606-.407 1.313-.407 2.12 0 1.514.509 2.725 1.424 3.533.916.807 2.239 1.211 3.765 1.211.814 0 1.627-.202 2.34-.404.712-.302 1.322-.706 1.729-1.211.204.606.611 1.009 1.018 1.211.508.202 1.119.404 1.831.404.61 0 1.221-.101 1.933-.202.61-.202 1.017-.404 1.424-.605l.204-2.726c.101-.202-.102-.101-.306-.101zm-6.511-1.413c0 .606-.203 1.01-.508 1.312-.204.303-.611.505-1.12.505-.61 0-1.017-.202-1.322-.505-.305-.302-.509-.807-.509-1.413 0-.605.204-1.009.407-1.413.305-.403.712-.605 1.424-.605.306 0 .611 0 .916.101.305.101.509.201.712.201v1.817zM12.92.012L-.001 13.033h4.782l8.139-8.176 8.139 8.176h4.781L12.92.012z" class="cls-1"/></svg>