<svg xmlns="http://www.w3.org/2000/svg" preserveAspectRatio="xMidYMid" width="123.124" height="65.625" viewBox="0 0 123.124 65.625"><defs><style>.cls-1{fill:#171717;fill-rule:evenodd}</style></defs><path d="M104.751 56.278c-12.901 6.739-28.789 9.357-43.196 9.357-14.41 0-30.292-2.625-43.197-9.357C9.534 51.667-.006 43.799-.006 32.815c0-10.987 9.54-18.851 18.364-23.458C31.263 2.617 47.145-.009 61.555-.009c14.407 0 30.293 2.624 43.196 9.366 8.829 4.607 18.37 12.471 18.37 23.458 0 10.984-9.541 18.852-18.37 23.463zm-1.552-43.885C92.115 6.602 77.334 3.418 61.562 3.418c-15.765 0-30.56 3.184-41.65 8.975C9.254 17.962 3.377 25.21 3.377 32.815c0 7.601 5.877 14.855 16.535 20.424.692.361 1.4.711 2.12 1.053l.003.002c10.818 5.118 24.738 7.922 39.52 7.922 15.77 0 30.56-3.188 41.644-8.977 9.331-4.872 14.994-11.035 16.266-17.592.113-.586.19-1.174.233-1.769.007-.117.017-.235.021-.353.011-.236.017-.472.017-.71 0-7.605-5.873-14.853-16.537-20.422zM61.555 60.168c-13.512 0-28.58-2.422-40.689-8.743a41.87 41.87 0 0 1-1.294-.7c-.22-.123-.441-.246-.659-.375a33.688 33.688 0 0 1-.602-.353c-.196-.118-.392-.236-.587-.356l-.585-.367h-.003C11.28 45.533 5.435 39.935 5.435 32.832c0-8.637 8.63-15.038 15.431-18.589C32.975 7.92 48.04 5.494 61.555 5.494c13.513 0 28.583 2.419 40.694 8.749 5.489 2.866 12.176 7.591 14.55 13.851.077.204.148.407.215.615.07.215.136.433.195.654.03.108.058.221.087.33a12.8 12.8 0 0 1 .325 1.95 11.929 11.929 0 0 1 .057 1.189c0 8.633-8.629 15.039-15.429 18.593-12.111 6.324-27.183 8.743-40.694 8.743zm0-53.308c-30.248 0-54.93 12.378-54.93 25.972 0 13.536 24.682 25.97 54.93 25.97s54.93-12.434 54.93-25.97c0-13.594-24.682-25.972-54.93-25.972zm36.15 35.001c-.551.502-1.108.819-2.212 1.003l1.903 5.228h-4.049l-1.521-5.113h-1.363l-1.724 5.113h-4.033l4.412-12.881c.233-.682.247-1.001-.023-1.266l-.255-.251.126-.384h6.313c2.248 0 3.433.635 3.996 1.484.406.617.792 1.82.155 3.925-.433 1.453-.96 2.44-1.725 3.142zm-2.773-5.178h-2.33l-1.042 3.055h1.927c.493 0 1.004-.031 1.254-.133.357-.149.636-.3.887-.934.173-.45.296-.935.29-1.205-.005-.417-.293-.783-.986-.783zm-11.224-8.646l.472-1.261 7.658-2.627h-6.742l1.266-3.519h9.733l-1.349 3.74-11.038 3.667zm-9.955 2.074h-6.444l4.365-12.881c.235-.682.244-1-.026-1.266l-.251-.251.123-.384h5.852c3.371 0 4.974 1.637 5.019 4.142.048 2.455-1.421 6.916-3.024 8.634-1.278 1.389-2.854 2.006-5.614 2.006zm3.026-11.275h-1.567l-2.644 7.749h1.301c1.388 0 1.995-.218 2.447-.702.568-.616.966-1.45 1.466-2.904.564-1.622.714-2.374.706-2.924-.018-.853-.62-1.219-1.709-1.219zm-15.58 11.268l-1.873-9.566-3.197 9.566h-3.668l4.358-12.874c.234-.682.245-1-.027-1.266l-.251-.251.126-.384h5.173l1.524 8.033 2.671-8.033 3.835-.005-5.001 14.78h-3.67zm-13.612-3.268h-4.394l-1.839 3.268h-4.249L44 18.435c1.122-1.806 1.248-2.238.945-2.541l-.186-.181.124-.384h5.767l.835 14.775h-3.854l-.044-3.268zm-.129-7.422h-.133l-2.493 4.465h2.695l-.069-4.465zM36.025 30.109l-9.981.002 4.364-12.881c.237-.682.245-1-.024-1.266l-.251-.251.121-.384h5.008l-3.831 11.256h5.8l-1.206 3.524zm-5.464 6.367L22.903 39.1h6.741l-1.265 3.523h-9.733l1.352-3.741 11.037-3.667-.474 1.261zm4.474-2.531l-.252-.251.127-.384h6.311c2.247 0 3.435.635 3.995 1.484.409.617.795 1.82.156 3.925-.436 1.453-.959 2.44-1.724 3.142-.551.502-1.107.819-2.212 1.003l1.9 5.228h-4.047l-1.519-5.113-1.365-.004-1.722 5.117H30.65l4.41-12.881c.236-.682.248-1.001-.025-1.266zm4.386 5.793c.501 0 1.014-.031 1.26-.133.361-.149.64-.3.89-.934.174-.45.297-.935.291-1.205-.007-.417-.296-.783-.99-.783h-2.328l-1.047 3.055h1.924zm15.348-6.612h.463c3.372 0 4.975 1.738 5.005 4.242.031 2.454-1.45 7.098-3.053 8.818-1.296 1.388-2.871 2.137-5.627 2.137h-.497c-3.371 0-4.975-1.734-5.005-4.24-.03-2.456 1.484-7.1 3.088-8.82 1.294-1.387 2.865-2.137 5.626-2.137zm-3.232 11.677c1.39 0 1.994-.356 2.448-.839.585-.616.978-1.551 1.478-3.004.581-1.622.73-2.456.722-3.009 0-.85-.606-1.304-1.697-1.304-1.388 0-1.993.352-2.444.838-.583.616-.978 1.552-1.481 3.006-.58 1.62-.73 2.454-.721 3.007 0 .85.605 1.305 1.695 1.305zM65.664 33.31l.268 10.621h.115l5.35-10.621h4.165l-8.049 14.782h-4.99l-.607-12.896c-.049-.736-.15-1.005-.52-1.269l-.384-.233.173-.384h4.479zm11.243.674l-.254-.251.147-.433h10.512l-1.223 3.411h-5.57l-.796 2.361h5.139l-1.115 3.09h-5.075l-.843 2.488h5.734l-1.189 3.438h-9.821l4.377-12.834c.235-.686.247-1.004-.023-1.27z" class="cls-1"/></svg>