<svg xmlns="http://www.w3.org/2000/svg" preserveAspectRatio="xMidYMid" width="137.5" height="36.25" viewBox="0 0 137.5 36.25"><defs><style>.cls-1{fill:#171717;fill-rule:evenodd}</style></defs><path d="M136.1 12.68h-11.913a.646.646 0 0 1-.646-.646v-.863c0-.357.241-.7.671-.749.37-.042 11.887-1.178 11.887-1.178.539-.054.985.44.985.987v1.461a.986.986 0 0 1-.984.988zm-6.065 1.924c5.181 0 7.462 3.868 7.462 7.74 0 .823-.397 1.307-1.284 1.307h-9.632c.103 1.743 1.478 3.314 3.463 3.314 1.404 0 2.353-.508 3.001-1.463.202-.298.539-.496.95-.496l2.265-.001c.521.002.771.49.691.862-.59 2.757-3.715 4.436-6.886 4.436-4.631 0-7.509-3.726-7.509-7.959 0-3.972 2.687-7.74 7.479-7.74zm3.449 6.085c-.154-1.713-1.682-2.977-3.449-2.977-1.77 0-3.27 1.265-3.426 2.977h6.875zm-13.31 9.331h-1.727a1.17 1.17 0 0 1-1.166-1.174V10.691c0-.649.52-1.176 1.166-1.176h1.726c.646 0 1.166.525 1.166 1.173v18.155a1.17 1.17 0 0 1-1.165 1.177zm-4.525-12.037l-2.628-.001.003 6.72c0 1.318.795 2.22 2.215 2.22l.239-.002a.89.89 0 0 1 .891.89v1.32a.89.89 0 0 1-.889.892h-1.585c-2.963 0-4.829-2.26-4.829-4.775l-.002-7.265h-.849a.817.817 0 0 1-.817-.82v-1.216a.82.82 0 0 1 .82-.82l.846.001-.002-4.466a1.14 1.14 0 0 1 1.137-1.144l1.685-.001c.628 0 1.137.516 1.137 1.149v4.462h2.626c.452 0 .82.365.82.819v1.217c0 .454-.367.82-.818.82zm-9.29 1.417h-1.866c-.467 0-.807-.079-.982-.49-.366-.853-1.381-1.349-2.738-1.349-1.27 0-2.287.377-2.287 1.484 0 .731.791 1.01 1.64 1.231.476.123 2.666.682 3.577.916 2.329.594 3.761 2.083 3.761 4.234 0 3.713-3.838 4.863-6.593 4.863-3.884 0-6.7-2.208-6.7-4.319v-.244c0-.435.381-.721.712-.721h1.898c.565 0 .937.077 1.15.613.368.922 1.65 1.5 2.938 1.5 1.356 0 2.602-.404 2.602-1.59 0-.752-.781-1.02-1.654-1.25-.81-.214-2.472-.627-3.447-.883-2.137-.561-3.874-1.877-3.874-4.088 0-2.89 2.487-4.705 6.276-4.705 3.663 0 6.249 1.946 6.249 4.127a.68.68 0 0 1-.662.671zm-.533-6.62H77.348l.001 15.948c0 .713-.573 1.292-1.283 1.292H73.71c-.961 0-1.624-.487-2.015-1.144-.29-.485-7.079-12.814-7.079-12.814l.104 12.663a1.29 1.29 0 0 1-1.283 1.295h-1.646c-.71 0-1.283-.579-1.283-1.292l-.001-18.065c0-.712.574-1.291 1.284-1.291h2.565c.98 0 1.688.539 2.017 1.126.351.622 7.074 12.83 7.074 12.83L73.34 11.01c0-.713.573-1.292 1.282-1.292h31.202a.88.88 0 0 1 .879.88v1.303a.877.877 0 0 1-.877.879zm-52.04 18.212a44.23 44.23 0 0 1-3.742-2.348l1.428 4.221c.366 1.08 0 1.208-.644 1.208-.645 0-1.227-.153-1.581.076-.354.228-.797.853-1.328 1.4-.468.482-1.15.356-1.289-.548l-1.713-10.418a39.156 39.156 0 0 1-3.127-3.15 41.927 41.927 0 0 1-1.304-.592c-.062 1.151.048 2.286.157 2.652.003.023.002.056-.022.079-.244.246-.881.958-.881.958l.014 1.882c0 .058-.019.086-.071.158a4.207 4.207 0 0 1-.54.586c-.436.426-3.106 2.288-4.373 2.852-1.271.591-2.598.959-3.193 1.156-.385.039-1.393.101-2.1.101-.674 0-3.517-.074-4.488-.089-.36-.007-1.597.176-2.652.383-.589.115-1.057.279-1.422.362-.238.054-.463.051-.531.051-1.169 0-2.301-.483-2.99-.858-1.308.635-4.266 3.158-4.797 3.577-.531.419-1.072.781-1.264.94-.897.343-1.842.627-2.701.627-.371 0-.653-.039-.794-.232-.366-.509-1.201-1.1-2.265-1.077-.392.01-.642.047-.756.097-.575-.269-1.043-.682-1.529-1.605-.487-.923-.717-2.299-.717-2.736 0-.496-.008-.983.047-1.42.077-.611.259-1.151.435-1.456.266-.152.584-.352.866-.387 1.41-.178 3.369-.979 4.349-1.366-.72-.68-1.715-1.997-1.896-2.213-.512-.617-.417-1.248-.53-1.82l-.901-1.925c-.126-.229-.133-.276.029-.458.185-.208.413-.439.413-.67 0-.139-.479-.854-.575-.988-.095-.133-.08-.231.142-.371.342-.217.522-.394.522-.877 0-.204-.076-.42-.076-.61 0-1.154 2.075-1.794 5.182-2.149.29-.393.588-.775.892-1.145-1.002.059-3.417.345-4.036.406l.465-.829c.828.113 3.259-.122 4.195-.308.066-.075.131-.15.198-.224-.878-1.017-3.241-3.415-3.445-3.632 0 0 .211-.582.426-.849.545 1.135 2.55 3.214 3.532 3.926 1.878-1.988 3.846-3.54 5.39-4.554.713-.469.977-.814 1.396-1.631.797-1.553 1.64-3.306 3.647-3.306.834 0 1.379.304 1.944.972l2.164.694-1.406.773 1.394.572c-1.989.758-4.065 1.857-4.674 3.74.521.132.935.407 1.267.708l1.903.711-1.397.779 1.258.696c-1.772.551-2.923 1.266-3.722 2.117 1.238-.013 2.485-.06 3.716-.06 3.67 0 6.371.165 8.234.483-1.423-2.717-.905-4.014-1.664-5.209-.628-.989-3.676-.373-4.181-.267l.881-1.468-1.738.14 1.473-1.76c.161-.228.237-.437.407-1.048.26-.927 1.053-2.51 3.373-2.51 2.575 0 3.373 2.094 4.496 3.004A69.648 69.648 0 0 1 41.4 8.843c.726-.43 1.635-1.131 2.26-2.096.725-1.121 1.314-2.508 1.315-3.767l3.071.292c-.432.551-1.144 1.809-1.414 2.711-.141.471-.134.846.037.974.325.245.895-.147 1.449-.743.781-.843 1.544-2.114 1.882-2.568l2.221 1.853c-.987.526-1.944 1.126-1.754 1.464.174.308.807.215 1.5.001a8.064 8.064 0 0 0 1.648-.72v3.019c-1.071-.015-2.885.186-4.632.719.415.59 1.608.805 2.366.911l-.379 2.449c-1.911-.807-3.386-1.277-5.703-1.321a4.08 4.08 0 0 0-.52.671c3.099 4.55 6.951 13.245 8.654 17.227.165.384.282.775.385 1.073zM49.252 32.7c.135.512.349.673.943.699.594.026.721-.204.594-.596l-1.509-4.699a54.204 54.204 0 0 1-1.422-1.065l1.394 5.661zm-2.028 1.626c.115.534.569.446.936-.024.367-.471.506-.598.367-1.221l-1.455-6.662a52.616 52.616 0 0 1-1.398-1.166l1.55 9.073zM25.685 14.428c-1.456 0-2.939.054-4.404.072-.593.933-.924 1.99-1.26 3.143l-.67-.152c.91-3.482 2.478-5.304 5.006-6.099l-.885-.546 1.056-.649-.967-.318c-.455-.431-1.024-.66-1.555-.66-1.081 0-1.632.764-2.143 1.791-.26.524-.777 1.068-1.864 1.805l-5.512 3.71-.821-.115 5.966-4.18c.746-.508 1.258-.775 1.58-1.447.476-.994 1.181-2.182 2.64-2.26.757-1.963 2.628-3.302 3.997-3.689L24.8 4.415l1.027-.699-1.015-.304c-.367-.458-.901-.827-1.554-.827-1.401 0-2.207 1.35-3.06 3.103-.351.72-.579 1.106-1.58 1.765-2.756 1.813-6.033 4.792-9.184 9.377l-.511-.286c.309-.55.64-1.084.987-1.6-2.012.249-3.263.593-3.263 1.2 0 .789 1.933 1.736 2.607 1.736.55 0 1.321-.603 2.142-.603 1.391 0 3.894 1.137 5.044 1.949l-.884.35c-1.297-.641-2.676-1.329-3.878-1.329-.541 0-1.008.161-1.349.339-.349.181-.791.38-1.378.55-.228-.144-1.393-.688-2.003-1.082a2.796 2.796 0 0 1-.547-.442 3.214 3.214 0 0 1-.142.581c-.048.114.009.181.057.305.479 1.25 2.565 2.33 4.208 2.33.196 0 .493 0 .636-.043l.445.519c-.284.255-.73.515-1.213.515-.319 0-.605-.049-.928-.111-1.132-.218-2.233-.766-2.979-1.497-.17-.16-.303-.284-.425-.455-.017.124-.064.279-.066.448a1.13 1.13 0 0 0 .18.619c.411.646 1.009 1.198 1.696 1.696.534.387 1.367.873 1.793 1.049.242.1 1.351.239 2.125.239 1.413 0 2.298-.39 2.63-.82.265-.342.487-.402.895-.402.863 0 3.342.857 4.054 1.191l-.537.277c-.161.077-.265.096-.522.02-.255-.077-1.641-.634-2.557-.634-.853 0-1.301.605-1.301 1.024 0 .606 1.375.839 2.83.839 1.033 0 3.285-.247 4.052-.37l.541.599c-1.109.267-2.986.487-4.721.487-.876 0-2.456-.051-3.025-.273-.366-.143-.396-.631-.857-.847-.685-.321-1.513-.175-2.215-.175-.492 0-1.017-.051-1.421-.174-.461-.148-.927-.415-1.337-.648-.29-.166-.599-.328-.844-.514-.253-.194-.449-.435-.652-.653.07.298.262.894.371 1.039.19.255.896.885 1.043 1.069.335.418.593.709 1.292.706.474-.002.733-.228 1.308-.228.894 0 2.147.677 2.819 1.144.624.433.968.811 1.812.811.239 0 .619-.083.985-.083.607 0 1.384.34 1.792.75.498.5.828 1.196.935 1.832l-.616.449c-.338-1.11-1.015-2.191-2.197-2.191-.853 0-1.162.413-1.327.686-1.005-.991-2.661-2.458-4.33-2.458-.682 0-1.396.254-1.656.267-1.241.567-3.793 1.544-5.069 1.716-.198.58-.567 1.738-.567 2.472 0 1.225.776 2.762 1.56 3.239 1.277-.248 2.528.419 3.034 1.105.161.219.413.239.79.235a3.5 3.5 0 0 0 1.447-.317c.246-.117.497-.231.677-.583.13-.256.545-.971.749-1.887.078-.351.161-.801.142-1.125-.03-.516-.048-.748-.094-.858-.114-.266-.556-.763-.825-.857-.459-.161-1.23-.339-1.502-.433-.238-.084-.456-.036-.619.012-.148.045-2.146.602-2.468.726l1.854-1.234-1.461-.282 1.267-.414 1.364.414c.172.039.296.074.55.124.865.171 2.4.756 2.949 1.678.056.095.048.167.038.257-.057.505-.664 3.03-.721 3.421.515-.745 2.019-1.424 2.367-2.142.682.495 1.855-1.14 2.382-1.405.269-.135.538-.253.645-.285.743.362 1.953.832 2.875.832.494 0 .6-.171 1.024-.279.936-.239 3.882-.448 5.31-.448 1.428 0 3.874.072 4.342.086.332-.115.842-.267 1.214-.372 1.242-.354 2.036-.673 2.878-1.144a12.583 12.583 0 0 0 3.177-2.529c.113-.124.151-.269.209-.385.049-.101.175-.421.175-.554 0-.188-.296-.366-.966-.366-.758 0-1.422.24-2.041.584l-.364-.103c.661-.754 2.493-1.325 3.454-1.479a6.672 6.672 0 0 0 1.033-3.409 6.268 6.268 0 0 0-.467-.202c-.473.573-.928 1.211-1.459 1.668-.282.243-.475.382-.891.382-.129 0-.288-.002-.437-.086-.159-.09-.308-.27-.474-.525-.125-.192-.311-.44-.474-.714-.339-.571-.703-1.288-1.033-1.868-.37-.651-.687-1.138-.73-1.219-.066-.124-.246-.277-.246-.277-.181.295-.314.867-.314 1.182l-.644-.219c.085-.429.256-.982.35-1.249 0-.229-.256-.533-.464-.533-.294 0-.597.324-.749.943l-.654.286c.076-1.001.417-2.097 1.403-2.097.796 0 1.29.61 1.668 1.182.38.571 1.622 2.278 1.887 2.611l.711-1.543a27.689 27.689 0 0 1-2.289-3.151c-1.741-.515-4.966-.681-8.85-.681zm24.738-2.044l.138-.927c-.874-.116-1.974-.615-2.44-1.181-.761.288-1.481.646-2.088 1.083 1.708.036 3.419.534 4.39 1.025zm2.496-3.871V7.312c-.328.102-.683.217-1.01.295-.465.112-.891.217-1.252.207-.362-.009-.655-.154-.791-.349-.347-.498-.025-1.252 1.113-1.956l-.898-.75c-.692.902-1.373 1.898-2.068 2.494-.63.54-1.29.809-1.824.409-.288-.215-.396-.314-.424-.876.038-.827.538-2.091.979-2.904l-1.062-.126c-.189 1.246-.697 2.308-1.241 3.185-.678 1.093-1.551 1.86-2.451 2.487.761.782 1.539 1.586 2.256 2.559 1.671-2.239 6.085-3.289 8.673-3.474zm-2.181 17.284c-3.689-2.097-7.419-5.95-9.158-9.26l.765.089c1.618 2.876 5.483 6.713 7.765 7.828-2.087-4.453-4.804-10.095-6.924-12.523-2.63-3.009-5.502-5.338-6.874-6.55-1.352-1.194-1.909-2.693-3.855-2.693-1.606 0-2.449 1.162-2.772 2.334-.066.229-.104.372-.265.61l-.758.915 1.64-.2-.949 1.334s2.57-.58 3.471.648c.969 1.324.343 2.81 1.934 5.699.699 1.27 2.391 3.553 2.957 4.06l-1.109 2.344c.086.391.252.618.332.743.171.267.361.248.616.01.117-.109.493-.416.856-.798.316-.33.623-.733.747-.937.361.163 1.035.487 1.577.728-2.327-2.884-4.555-6.382-5.521-8.761-.4-.983.381-1.312.758-.343 1.024 2.63 4.02 7.281 6.219 9.72 2.543 2.82 7.205 6.9 10.239 8.539-.439-.862-1.02-2.101-1.691-3.536zM31.704 5.545a.628.628 0 0 1-.626-.629c0-.348.28-.63.626-.63.345 0 .625.282.625.63 0 .347-.28.629-.625.629zM27.846 19.88c-.512 0-1.058-.038-1.565-.087-.895-.087-1.67-.206-1.936-.206-.724 0-1.767.339-2.462.932 0 0-.471-.131-.635-.144a4.52 4.52 0 0 1 1.062-1.019c.643-.437 1.316-.677 2.335-.739.277-.016.841-.071 1.156-.057.284.013.765.032 1.207.114.313.059.605.147.848.185.147.023.661.016.84-.013.721-.114 1.586-.394 2.042-.643l.189.695c-.973.5-2.073.982-3.081.982zm-9.023-.01c-.403.162-.546.399-.546.734 0 .486.54.676 1.141.858.354.109.752.135 1.086.135.413 0 1.205-.156 1.987-.33.944-.209 1.821-.457 2.078-.553l.341.617c-1.051.356-2.125.695-3.123.899-.563.115-1.1.187-1.58.187-.8 0-1.669-.338-2.383-.68-.602-.288-1.14-.574-1.62-.574-.54 0-1.048.187-1.549.475-.245.141-.983.651-1.641.912-.505.2-.916.311-1.427.311-.456 0-.728-.064-.964-.249l.792-.487c.102.101.285.12.398.12.114 0 .25-.014.561-.144a4.6 4.6 0 0 0 .588-.335c.312-.202.416-.321.54-.418.24-.191.328-.443.022-.718a3.265 3.265 0 0 0-.486-.379c-.274-.165-.472-.327-.968-.327-.584 0-.996.162-1.223.28l-.389-.267a4.774 4.774 0 0 1 1.071-.648c.22-.092.47-.138.651-.138.436 0 .812.184 1.178.38.579.31 1.231.675 1.729.675.19 0 .373-.045.588-.045.494 0 .968.222 1.239.222.164 0 .278-.148.386-.304.272-.394.648-.685 1.127-.888.515-.216 1.135-.303 1.809-.303.531 0 1.04.077 1.305.134 0 0-.405.491-.506.599-.536 0-1.556-.018-2.212.249zm-1.813-2.506l-.256-.276c.714-.667 1.47-1.731 1.593-2.355.113-.581.944-.488.786.144-.201.807-1.185 1.782-2.123 2.487zm7.245 5.186c.797-.127 1.708-.222 2.231-.4.241.61.715 1.262 1.399 1.262.249 0 .658-.19 1.069-.372.463-.204.927-.428 1.167-.537.26-.115 1.104-.488 1.819-.808.273-.122 1.024-.48 1.066-.505l.481.261c-.144.635-.385 1.415-.655 1.974-.105.219-.211.4-.325.529a5.943 5.943 0 0 1-.986.865c-.481.343-1.067.695-1.688 1.054-.485.28-.972.564-1.466.793l-.256-.468c.762-.433 1.535-.981 2.216-1.488.322-.24.633-.482.855-.686a2.16 2.16 0 0 0 .351-.4c.203-.299.532-.883.632-1.163-.284.14-1.358.649-1.838.902-.543.286-1.422.738-1.915.971-.388.185-.734.286-.983.286-.551 0-.801-.399-.936-.64-.347-.623-.72-.68-1.7-.693-1.138-.015-2.699.457-3.628 1.105l-.915-.42c1.269-.647 3.209-1.295 4.005-1.422zm1.29 2.789c.239 0 .253.109.322.22.19.305 1.682 2.446 1.834 2.612 1.266-.392 2.563-.964 3.312-1.687.779-.754 1.427-1.629 2.052-2.306.242-.261.54-.498.687-.577.648-.346 2.662-.376 3.508-.338l-.502.715c-1.492 0-2.326.155-2.702.438-.159.12-.399.362-.627.661-.509.668-1.065 1.581-1.288 1.76.436.305.914.571 1.672.571 1.264 0 2.17-.795 2.665-1.243l.425.254c-.314.41-.673.828-1.131 1.142-.508.347-1.148.573-1.526.677-.733-.141-2.349-.468-2.728-.543-1.397.571-3.672 1.496-4.436 1.728-.11.033-.29.06-.515.082-.604.034-1.445.029-2.21.02-.543-.008-1.057-.004-1.314-.052l-.674-.708c.594.115.826.149 1.381.149 1.315 0 2.161-.22 2.44-.292.234-.06.273-.197.203-.409-.111-.34-.305-.661-.601-1.006a4.981 4.981 0 0 0-.664-.606c-.181-.123-.357-.154-.853.015-.46.158-1.887.934-2.503 1.263-.304.163-.541.21-1.086.081-.58-.136-1.962-.644-2.517-.982l.607-.252c.556.216 1.36.462 1.92.462.336 0 .614-.122.842-.224.179-.08 2.202-1.078 3.206-1.444.319-.116.643-.181.801-.181zm6.936-5.019c-.327 0-.62.026-.827.134-.234.121-.375.304-.594.484a3.375 3.375 0 0 1-.968.532c-.416.155-.932.259-1.702.259-1.015 0-1.565-.17-1.881-.21 0 0-.134-.544-.196-.741 0 0 .158-.053.367-.053.341 0 1.184.095 1.533.095 1.317 0 1.803-.416 2.189-.767.33-.299.669-.542 1.565-.542.79 0 1.697.32 1.956.447l-.057.722a3.04 3.04 0 0 0-1.385-.36zM22.126 10.015a.52.52 0 0 1 0 1.042.52.52 0 0 1-.519-.521.52.52 0 0 1 .519-.521zm1.179-6.643c.292 0 .527.238.527.529a.529.529 0 0 1-.527.531.53.53 0 0 1 0-1.06zM2.881 11.309c.72-.781 2.097-1.804 2.989-2.179l.208.311c-.758.781-2.162 1.824-2.907 2.186l-.29-.318zm1.351-8.874c.949.483 2.8 2.142 3.451 2.911l-.366.455c-.992-.655-2.952-2.414-3.394-3.049l.309-.317zM14.45 6.633c-.206 2.168-2.241 2.449-3.556 1.419-.742-.581-1.046-1.387-1.189-1.995-.15-.644-.15-1.22-.782-1.882-.476-.501-1.327-.483-1.327-.483 0-1.576-1.467-3.019-3.287-2.32-.645-.558-1.442-.614-2.013.077-.333.401-.515 1.455.509 1.938-.054 1.435 1.036 2.352 2.628 2.225.063.763.905 1.472 1.65 1.574l-.007.383c-.795-.076-1.226.203-1.756.864-1.872-.089-3.183.748-3.129 2.098-1.314.251-1.561 1.636-.815 2.373.746.737 1.839.448 2.212-.432 1.328.254 2.5-.702 2.553-1.804 1.24 0 1.783-.494 1.985-1.639l.468.038c.138 1.234-.43 2.404-1.909 2.265-.038 1.472-1.46 2.296-2.787 1.788-.619 1.169-2.039 1.637-3.23.496-1.15-1.102-.73-2.991.775-3.447.034-1.444 1.095-2.816 3.157-2.287 0 0 .265-.645.91-.683-.43-.178-.755-.417-.844-.861-1.555.333-2.876-1.106-2.522-2.554C.741 3.04.718 1.648 1.414.82 2.139-.043 3.347-.233 4.428.696c1.831-1.019 3.9.229 3.774 2.325 1.281-.085 2.057 1.04 1.915 2.211.212-.516.458-.755.931-.859-.834-1.753.627-3.545 2.419-3.132a2.144 2.144 0 0 1 3.135-.897c1.15.699 1.394 2.506.171 3.382.576 1.687-.573 3.065-2.323 2.907zm1.564-5.444c-.853-.514-1.656-.317-2.167.673-1.367-.1-2.675.98-2.166 2.789-1.314.572-1.507 1.927-.585 2.74 1.112.98 2.945.127 2.769-1.373 1.491.077 2.453-1.472 2.215-2.559.664-.571.73-1.791-.066-2.27zm-3.799 4.274c.646-1.053 2.03-2.794 2.611-3.328l.31.222c-.601 1.273-1.663 2.626-2.573 3.37l-.348-.264zm73.926 9.141c5.181 0 7.463 3.868 7.463 7.74 0 .823-.397 1.307-1.284 1.307h-9.633c.104 1.743 1.479 3.314 3.463 3.314 1.405 0 2.353-.508 3.001-1.463.203-.298.539-.496.95-.496l2.266-.001c.521.002.771.49.69.862-.59 2.757-3.715 4.436-6.885 4.436-4.632 0-7.509-3.726-7.509-7.959-.001-3.972 2.686-7.74 7.478-7.74zm3.45 6.085c-.154-1.713-1.682-2.977-3.45-2.977-1.769 0-3.27 1.265-3.425 2.977h6.875z" class="cls-1"/></svg>