<svg xmlns="http://www.w3.org/2000/svg" preserveAspectRatio="xMidYMid" width="109" height="57.625" viewBox="0 0 109 57.625"><defs><style>.cls-1{fill:#000;fill-rule:evenodd}</style></defs><path d="M108.941 36.595c-.029.037-.066.051-.117.051h-.015l-8.183-.764a.162.162 0 0 1-.155-.161l-.08-13.346c0-.044.029-.096.066-.125a.173.173 0 0 1 .125-.044l2.47.228c.096.007.155.08.155.169l.051 10.569 5.573.507c.088.007.155.088.155.176L109 36.47a.155.155 0 0 1-.059.125zm-10.3-.896h-.015l-2.838-.213a.157.157 0 0 1-.147-.11l-.956-2.652-4.617-.33-.978 2.489c-.022.067-.096.118-.169.103l-2.383-.169a.18.18 0 0 1-.132-.088.15.15 0 0 1-.015-.147l5.103-12.92a.167.167 0 0 1 .169-.102l1.993.139c.066 0 .117.052.147.118l4.999 13.654a.159.159 0 0 1-.022.162c-.029.044-.088.066-.139.066zm-6.235-9.196l-1.213 3.055 2.382.177-1.169-3.232zm-11.698-.698c2.022.859 4.801 2.02 4.808 4.818.008 1.256-.353 2.255-1.073 2.975-.846.837-2.117 1.271-3.801 1.271-.184 0-.368-.007-.559-.015-2.037-.11-4.169-1.381-4.772-1.77a.18.18 0 0 1-.081-.147l-.014-3.041a.173.173 0 1 1 .264-.139c1.853 1.234 3.61 2.027 4.61 2.078.941.059 1.566-.08 1.875-.396.162-.155.235-.353.228-.603 0-.301-.301-.587-.956-.918a23.795 23.795 0 0 0-1.323-.573c-2.059-.844-4.875-1.998-4.89-5.112-.007-1.035.324-1.895.971-2.556.846-.837 2.191-1.263 3.706-1.19 1.779.103 3.896 1.007 4.889 1.601a.16.16 0 0 1 .081.147l.015 2.946a.17.17 0 0 1-.265.139c-.61-.396-2.75-1.711-4.72-1.814-.706-.037-1.052.154-1.206.301a.524.524 0 0 0-.169.375c.007.323.316.639.963.991.397.213.89.419 1.419.632zm-2.353-10.18c-.015-.022-.029-.029-.044-.044v-.059c.037.037.037.03.044.103zm.059.264a.293.293 0 0 1-.044.052c-.022-.03-.037-.074-.059-.103.022.014.037.029.059.051-.007-.029-.022-.051-.029-.081.029.03.051.059.073.081zm.081-.176h-.015c-.007-.022-.022-.044-.029-.066.044.037.022.008.044.066zm.015.176c.022.015.037.022.059.037v.059c-.022-.015-.037-.037-.059-.052v-.044zm.213.566c-.015-.015-.037-.022-.066-.037v-.044a.318.318 0 0 1 .066.081zm.294 1.234c-.015-.037-.03-.066-.044-.095.022.022.037.044.058.066 0 .007-.007.014-.014.029zm-.552-.72c-.022-.014-.036-.029-.066-.051-.007-.015-.007-.037-.015-.059l.081.051v.059zm-.139-.198a.342.342 0 0 0-.044-.052v-.125c.037.052.066.111.103.169-.008.008-.008.022-.022.03a.139.139 0 0 0-.037-.022zm-1.64-2.358c.029.029.008 0 .029.051-.007-.007-.021-.007-.029-.007v-.044zm-1 .015c.037.029.03.014.044.066-.022 0-.051-.008-.073-.008v-.044c.007-.007.022-.007.029-.014zm-.191.029l-.044-.11c.162.088.272.507.279.742h-.014c-.015-.015-.022-.029-.037-.037-.125-.073-.272-.338-.272-.536a.644.644 0 0 0 .088-.059zm.412 1.69c-.03-.081.007-.228-.044-.346-.059-.154-.243-.323-.258-.506.074.036.052.036.118-.008.015-.044.022-.088.037-.139a.25.25 0 0 1 .051.022c.177.249.338.639.39.999h-.015c-.044-.03-.051-.037-.088-.037 0 .037.007.081.015.125-.133-.022-.14-.074-.206-.11zm-3.441-5.921c.03.03.007 0 .03.045h-.03v-.045zm1.059-.749c-.008-.022-.015-.051-.03-.073.074.029.103.044.147.11-.044-.015-.081-.022-.117-.037zm-1.132-.793c-.008-.015-.03-.03-.037-.044.059.029.015-.008.051.044h-.014zM55.901 2.382h-.029c.007-.008.007-.022.014-.03.008.008.008.022.015.03zm-2.544-.544v.052c-.029.029-.074.058-.103.088-.14.073-.485.007-.596-.052v-.014c.008-.022.015-.052.023-.074.066-.029.132-.051.205-.073.206 0 .316.036.471.073zm-4.993 3.276c.022-.007.052-.015.074-.029a.94.94 0 0 1 .323.073c.015.052.03.081.015.154h-.022c-.11-.029-.346-.11-.39-.198zm1.471-2.505c.096-.029.177-.051.257-.073.147.022.295.044.442.073-.008.008-.015.015-.015.03-.213.059-.434.044-.669.066a.456.456 0 0 0-.015-.096zm.941.324c.007-.022.022-.044.029-.059.052-.022.111-.037.162-.059a.37.37 0 0 1 .191.059c-.014.022-.037.037-.059.059-.102.022-.161.088-.279.066l-.044-.066zm.39.352h-.103l-.03-.029c.045.007.081.007.133.014v.015zm.419-.617c.007-.007.007-.022.014-.029.089.022.17.051.25.073v.045c-.007 0-.014.014-.014.022-.044-.008-.096-.022-.14-.022-.037-.03-.066-.059-.11-.089zm.294-.117c.037.007.073.022.103.029v.015h-.103v-.044zm.272.191c-.008.007-.008.015-.015.029h-.066c-.059-.044-.096-.051-.125-.117.051.007.103.022.154.029a.393.393 0 0 1 .052.059zm.669.345h-.066c-.051-.022-.088-.03-.118-.074.067.015.14.037.184.074zm.588-.183v.014c-.015.007-.029.007-.044.015v-.029h.044zm.449.815h.029l-.029.029v-.029zm.441.308c.007-.015.022-.029.029-.044a.116.116 0 0 1 .052-.029c.022.007.051.007.073.014a.67.67 0 0 0 .081.044c0 .015-.015.022-.022.03-.074.014-.162.022-.213-.015zm1.154-.147c.111.007.096.015.111-.037.044.008.081.022.125.03.014.029.029.066.051.095-.029.022-.059.037-.081.059a.389.389 0 0 1-.206-.132V3.88zm1.103 1.741a.27.27 0 0 0 .074.015c0 .015-.008.022-.015.029h-.015c-.051-.029-.015.008-.044-.044zm.882.779v.014h-.022c-.007-.014-.022-.029-.029-.044.015.008.029.022.051.03zm-2.845 1.079c.419.023.838.309 1.088.529v.044a.058.058 0 0 0-.029.015c-.471-.147-.721-.33-1.074-.558.008-.007.008-.022.015-.03zm-.059 1.286s.655.154.765.198v.015c-.007.007-.015.007-.015.014-.213-.007-.191.066-.345.096-.059-.03-.081-.037-.118-.081-.015-.044.015-.015-.037-.044a1.707 1.707 0 0 1-.558-.338c.007-.007.014-.015.014-.029.066-.022.125-.044.184-.067a.096.096 0 0 0 .044.015c-.022.096-.059.074.015.147.007.074-.015.044.051.074zm-3.448.977l-.029.029v-.029h.029zm27.248 5.156c.074.124.132.264.213.36.03.066.052.308.037.499-.015-.073-.022-.081-.029-.147-.096 0-.155-.169-.236-.11l-.088.066c.059.088.118.184.184.264h-.015c-.073-.066-.191-.022-.213-.19h-.022c.037.293.338.477.39.675-.067-.015-.037-.036-.059.03.169.073.382.426.463.602-.066-.059-.118-.118-.169-.169.022.059.044.132.073.191h-.014c-.037-.037-.074-.081-.111-.118-.007 0-.014.008-.029.008.052.081.14.176.125.249v.037c-.015-.014-.022-.022-.029-.022-.023-.022-.037-.044-.052-.066.081.162.155.331.235.485h-.014c-.03-.037-.066-.074-.096-.11.007.036.015.081.03.117-.015 0-.023-.007-.03-.015l-.11-.242h-.015a.523.523 0 0 1 .029.118h-.014c-.015-.015-.03-.022-.044-.044-.066-.199-.169-.346-.28-.507.008-.125.008-.096.037-.184a.411.411 0 0 1-.25-.176c-.037-.081 0-.147 0-.162-.044.015-.007.008-.044.015-.096-.213-.331-.411-.434-.602-.095-.235-.176-.463-.264-.691-.103-.161-.383-.455-.559-.543-.081-.044-.074.022-.133-.044l.089-.022c-.008-.015-.008-.022-.015-.037l-.088-.066c-.015 0-.022.007-.03.007l.074.074c-.022-.008-.052-.008-.074-.008-.044-.059-.073-.081-.11-.147a.132.132 0 0 0 .059.015c-.103-.103-.272-.184-.383-.323-.08-.088-.132-.338-.279-.397.022.052.044.096.059.147a.233.233 0 0 0-.044-.037c-.022-.051-.059-.102-.081-.169l-.015.118c-.007-.007-.022-.015-.029-.022a2.25 2.25 0 0 0-.221-.397c-.014 0-.037 0-.059-.007-.036.059-.036.081-.117.103.029.11.117.132.147.213 0 .044-.008.073-.015.11.081.272.375.345.53.551.176.228.279.521.507.705.095.081.169.044.257.095 0 .111.015.147.052.206.294.147.625.433.713.779a1.535 1.535 0 0 1-.346-.346c-.007.008-.022.015-.029.023l.088.367c.103.125.199.147.25.345-.059.029-.051.007-.066.095a.57.57 0 0 1 .044.382h-.015l-.088-.066c0 .287.118.419.154.654h-.014c-.074-.029-.64-.477-.662-.536-.037-.066-.022-.14-.015-.206h.015a.393.393 0 0 0 .059.052c.007-.052.007-.045.029-.081.096.081.096.095.25.103.044-.074.14-.096.184-.118-.198-.646-.331-.771-.779-1.197-.037-.066-.081-.125-.118-.184-.052-.044-.118 0-.132-.007a56.41 56.41 0 0 1-.618-.588c-.213-.294-.456-.867-.875-.947v.029a2.755 2.755 0 0 0-.051.221c-.184.022-.162.212-.265.315-.213-.088-.36-.191-.603-.264-.029.059-.11.095-.125.147-.066.183.206.433.228.61-.051.058-.125.212-.198.256-.118.089-.199.045-.28.162.132.257-.294.668.177.984-.023.125-.103.125-.133.213-.051.162.015.309.015.397a.33.33 0 0 0-.169.029c-.052.096-.088.287-.14.397-.044-.037-.044-.044-.132-.059-.015.03-.03.052-.037.074-.169-.059-.316-.03-.529-.022-.022.051-.25.271-.309.33-.287-.051-.427-.698-.691-.573-.096.022-.125.088-.177.103-.081.029-.272-.051-.404-.007a1.995 1.995 0 0 0-.133-.757c-.036.022-.066.037-.095.059-.066-.073-.103-.117-.176-.184.051-.227.095-.888.014-1.109-.088-.257-.25-.448-.279-.712-.044.022-.037.022-.088.029-.023-.117-.111-.103-.118-.264.022-.015.037-.022.059-.037.029-.066.132-.066.206-.096-.037-.073.007-.168.103-.146.103-.03.132.029.198.051.147.051.382-.051.478-.044.36.044 1 .228 1.272.118 0-.485-.206-.853-.39-1.11 0-.007.008-.007.015-.014.022.022.044.044.073.058-.007-.036-.742-.727-.757-.727-.235-.088-.478-.044-.647-.198.037-.007.066-.015.096-.015-.081-.066-.184-.051-.206-.183.007 0 .022 0 .029-.008.089-.088.258-.066.368-.117.059.044.118.088.191.132.081-.066.154-.044.279-.022v-.015c-.014-.014-.029-.036-.044-.051-.058-.162-.169-.235-.264-.367.007-.008.007-.015.022-.015.139.044.353.213.551.176l.044-.044c-.073-.051-.037-.103 0-.154a.362.362 0 0 0 .177-.081c-.044-.103-.096-.198-.133-.294.067-.095.228-.11.309-.183.125-.118-.051-.456-.103-.661h.015c.015.007.022.014.029.014.052.162.118.316.169.47.037.008.081.015.118.022-.051-.066-.044-.08-.059-.198h.015c.066.022.037.044.074-.015.014-.073-.023-.088-.059-.176-.067.022-.052.03-.111 0-.022-.044-.044-.081-.058-.11l.029-.074.213-.022V9.91c.125-.014.14.008.228.037-.007-.095-.029-.066.037-.088-.081-.118-.14-.176-.206-.294a.68.68 0 0 0-.118-.015c.03-.132-.536-.558-.588-.837.03-.007.052-.029.081-.044h.059c-.015-.044-.022-.081-.037-.125.037-.015.074-.029.103-.044.074.235.279.323.427.492a.203.203 0 0 0-.015.074c-.022-.015-.044-.022-.066-.037.044.066.058.184.103.228.169-.059.316.154.375.293-.103-.058-.206-.132-.309-.19a.051.051 0 0 0-.015.029c0 .007.007.022.015.029.073.008.095.03.132.074-.015.014-.044.014-.015.022.096.073.192.183.324.183-.015-.022-.022-.044-.029-.066.051.015.044.015.073.052.007.036.022.117.051.147l.074.022c.022-.111.066-.081.052-.169.029.007.058.007.088.014v-.088c.044.037.088.088.147.125-.022.059-.044.022.015.074.124.014.154.132.264 0 .022-.008.052-.015.074-.023-.004-.012-.003-.019-.006-.03-.227-.21-.455-.42-.69-.624-.001.007-.005.013-.018.038l.133.154v.044h-.015c-.066-.007-.125-.007-.184-.015-.022-.037-.058-.059-.088-.088-.037.037-.029.007-.029.059.081.029.132.125.176.169v.117c-.029 0-.059 0-.088-.007a.273.273 0 0 1-.132-.103v-.015c.08.015.066.052.11-.007a.942.942 0 0 1-.331-.279c.037-.052.044-.096.125-.118a1.639 1.639 0 0 0-.074-.169c-.455-.183-.676-.734-1.117-.947v.022c.007.029.022.051.029.073a.413.413 0 0 1-.088.037c.029.096.022.206-.051.25-.155.088-.574-.147-.647-.243-.022-.066-.052-.124-.067-.191-.051.03-.051.052-.125.037-.117-.264-.419-.367-.558-.587-.022-.052-.03-.103-.045-.169-.051-.066-.124-.118-.183-.206.059-.029.088-.051.139-.066-.044-.059-.022-.066-.036-.169.016-.004.021-.017.035-.023a30.084 30.084 0 0 0-3.094-1.812c-.377.373-1.389-.128-1.816-.236-.007-.022-.022-.044-.029-.074.007 0 .007-.007.014-.014l.155.044c-.007-.015-.015-.022-.015-.037-.191-.096-.309-.176-.595-.25-.008-.007-.015-.014-.015-.029l.015-.015c.169.03.272.059.375-.007-.199-.052-.405-.103-.611-.155 0-.014.008-.029.015-.036.037-.037.081-.066.118-.103.051.022.088.037.132.051-.029-.022-.051-.051-.073-.073.294.029.448.228.624.367.067-.051.045-.037.125-.007v-.015a.534.534 0 0 0-.095-.095v-.015c.118.015.176.073.257.132-.007-.022-.029-.044-.036-.066.007 0 .007-.007.014-.015.106.026.221.073.334.103a29.5 29.5 0 0 0-2.927-1.15c-.292-.055-.594-.112-.841-.039v.095c-.353.052-.603.198-.978.118 0-.008-.007-.022-.014-.037.029-.037.051-.074.081-.118-.03.008-.052.008-.081.015-.008.037-.022.081-.03.125-.184 0-.257-.007-.382-.081 0 .008-.007.008-.015.015.022.029.052.059.066.088-.007 0-.014.007-.036.007a.635.635 0 0 1-.265-.022v.015h.029c.052.044.096.088.147.125-.022.015-.036.029-.051.044-.059-.015-.052-.029-.096 0 .074.044.059.059.081.139-.147.037-.206.14-.382.162-.015.11 0 .118.044.198-.088.103-.118.235-.25.316.022.052.022.052.015.103-.022.007-.037.015-.052.015-.213-.059-.434-.111-.639-.169 0-.066.022-.044-.015-.081-.213-.125-.596-.11-.846-.228.015-.044.045-.029 0-.051-.103-.088-.25-.14-.375-.22-.058-.045-.036-.103-.066-.14-.073-.11-.426-.286-.514-.397-.037-.044.014-.103-.059-.169-.052.008-.052.015-.096-.014a1.597 1.597 0 0 1-.029-.206c-.162-.059-.243-.125-.375-.25l.022-.088c.022-.007.051-.015.073-.029-.036-.03-.073-.059-.103-.096.125-.367.368-.249.714-.191-.036-.085.025-.11.069-.191l-.004-.001a.423.423 0 0 1-.051.038c-.031-.019-.068-.036-.101-.055l-.105-.012c.004.004.012.004.015.008v.015c-.298.035-.513-.051-.725-.104-.45-.048-.902-.092-1.362-.12.007.005.015.006.021.011v.015c-.088.007-.103-.015-.154.051.221-.014.25-.007.39.096v.051c-.008 0-.015 0-.015.015-.059-.015-.118-.044-.169-.059a.174.174 0 0 0-.015.044c.103 0 .206.044.28.118a.057.057 0 0 0-.03.029 9.07 9.07 0 0 0-.353-.096c.022.052.022.03.015.089-.029.007-.059.007-.096.014v.015c.125.029.25.059.375.095-.007.015-.022.03-.029.045.162.022.154.058.25.139.11-.059.147-.015.316.015-.022.014-.044.022-.066.036.007.015.022.023.029.03.103 0 .25.073.302.125-.059.014-.03 0-.066.029.169.007.213.103.272.125.051.007.103.007.154.007-.037.022-.066 0-.044.044.162-.014.331.037.375.177a.58.58 0 0 1-.316-.008c.014.03.037.059.059.089-.015.007-.03.007-.045.014-.058-.014-.014-.029-.066 0 .015.015.03.037.044.066h-.102v-.066c-.082.037-.162.007-.236-.022-.037.029-.029.008-.051.059.014.007.029.029.051.037-.081 0-.081.036-.184.051-.139-.11-.544-.169-.478-.374-.183-.008-.36-.177-.566-.192.022.03.044.037.059.067a.051.051 0 0 1-.015.029h-.132c.118.029.162.147.162.242.198-.029.478.199.559.265v.014c-.03.008-.059.008-.089.015 0 .008.008.022.015.03a.856.856 0 0 1 .294.161v.03h-.11a.132.132 0 0 1 .029.058h-.014c-.044-.036-.052-.036-.074-.095-.051.059-.022.066-.118.073-.014-.044-.007-.036-.044-.059-.007.008-.007.023-.014.03.036.051.051.066.044.117h-.015c-.044-.014-.081-.029-.132-.044.073.103.125.096.22.155v.014h-.029c-.022.008-.052.008-.074.015-.286-.169-.617-.36-.897-.529v.059c-.095-.052-.206-.103-.301-.162.007.03.015.037.015.066.25.103.61.324.764.529v.015c-.066.007-.037-.029-.059.044.059.007.045.007.074.029v.015c-.059-.015-.044-.008-.074-.044-.522-.081-.941-.411-1.404-.551v.015c.059.022.044.007.066.073h-.066c-.081-.044-.118-.081-.184-.139.015-.015.037-.022.066-.03-.139-.022-.198-.073-.25-.169.074.022.096.044.155.008-.243-.037-.294-.184-.515-.279-.213-.103-.478-.125-.676-.155-.199-.029-.5.037-.596-.139a.103.103 0 0 0-.014-.044c.338-.206.602-.022.948.036.154.022.346-.014.522.03v-.015a3.036 3.036 0 0 1-.162-.147.078.078 0 0 0 .022-.029c.243-.022.493-.052.743-.081-.03-.081-.051-.162-.074-.242-.132-.022-.176-.074-.264-.103l-.022.088a.576.576 0 0 1 .154.037c-.007.022-.007.036-.015.058-.132-.007-.323-.029-.353-.139.089 0 .125.007.199.029-.015-.037-.022-.081-.037-.117-.11.036-.213.066-.257-.044h.037c.073-.022.095.029.147 0 0-.008-.008-.022-.015-.037-.055 0-.255.008-.374-.019-.557.008-1.106.028-1.646.062-.162.026-.336.042-.524.089-.007.015-.007.029-.007.044-.045-.029-.084-.059-.124-.089l-.057.007c.002.028.004.055.004.082-.04-.02-.087-.045-.139-.066a.077.077 0 0 0-.015.002v.005c.073.052.088.059.11.118.044-.022.022-.015.059-.015l-.015.015c-.007.044.015.015-.015.044a.778.778 0 0 1-.25-.154c-.034.003-.066.008-.1.012.036.044.017.101.064.142.081.11.323.191.448.264-.007.037-.037.074-.051.11a.477.477 0 0 1 .286.066c.023.03.037.052.059.074-.272.015-.544.007-.691-.125.022-.007.052-.015.074-.029a6.848 6.848 0 0 0-.265-.066c-.14.095-.522.161-.757.117.022-.029.036-.059.051-.088.022-.015.037-.029.066-.044-.11 0-.323.015-.411-.037.088-.066.22-.066.36-.059.063-.131.229-.234.416-.284l-.356.041c-.003.004.001.005-.016.016-.315.16-.932.192-1.276.156l-.115.023c.025.033.032.053-.013.115-.169.022-.339 0-.486-.008a.506.506 0 0 0 .059.067c-.426-.022-1.419.337-1.72.697-.008.022-.008.052-.008.074a.75.75 0 0 1 .331.036c-.095.14-.169.309-.279.434h.029c.162-.007.324-.007.486-.007.147.066.286.124.433.198.096.073.111.22.184.279.184.184 1.125.47 1.456.492-.074.118-.169.162-.257.257 0 .037.007.074.007.125-.059.088-.132.147-.206.22.103.228.265.375.309.625.051.022.103.051.162.073.088-.051.154-.103.286-.117.022.066.052.066.059.117.022-.007.044-.007.059-.015.007-.044.007-.088.007-.132.111 0 .221-.088.309-.147-.125-.183.052-.374.133-.536-.089-.037-.074-.132-.089-.198h.037c.162-.008.324-.008.485-.015.464-.073.846-.139 1.008-.499-.008-.25-.184-.404-.375-.463l.044-.088c.139-.008.522-.154.573-.206-.066-.088.022-.11-.103-.257.133-.022.221-.066.287-.147-.051-.022-.044-.022-.073-.059.007-.022.007-.036.014-.058l.096-.096c.331-.007.647.125.97.235.14-.007.265-.007.397-.015.155.059.405.243.53.353v.015c-.052.014-.044.007-.074.029v.015c0 .007.008.022.015.029.176.052.412.103.515.221.044-.022.095-.037.139-.059.022.029.037.051.052.073-.066.03-.118.052-.177.074.008.169-.036.191-.081.316l.103.022c.008.044.008.088.015.132.169.022.228.161.309.154.537.426 1.037-.198 1.419-.301-.007.147.36.61.448.756.03 0 .052.008.081.008-.022.161.14.22.287.279 0 .095-.051.176-.037.184a.685.685 0 0 1 .111.051c-.008.11-.008.206-.015.242-.052 0-.037-.014-.088.022.125.03.404.228.411.265-.051.044-.036.007-.014.073.11.044.125.103.191.162.059.051.235.037.301.081 0 .058-.014.066.044.103.111.065.221.036.353.073.022.11.199.125.265.228a8.278 8.278 0 0 0-.412-.052v.015c.199.029.368.088.397.279.111-.007.118.029.287.044-.015.059-.015.015-.015.066.081.03.177.066.265.096-.051.088-.007.338-.051.418-.008 0-.015-.007-.03-.014.03.073.037.022.015.08-.265.287-1.037-.117-1.412.045a2.126 2.126 0 0 1-.515.154c-.235.036-.919-.243-1.146-.323-.361-.125-.714-.155-1.074-.265-.287-.073-.603-.117-.816-.007-.051.059-.096.11-.14.154-.044.007-.566-.029-.566-.029-.257.081-1.088.389-1.228.529.324 0 .478-.221.721-.265.588-.11 1.948-.286 2.338.235v.015c-.022-.008-.044-.015-.059-.022.015.059.059.059.015.095 0 .015 0 .03-.008.044l-.492.066c-.184-.022-.258-.124-.478-.139.007.007.015.015.015.029.125.022.213.066.242.177.236.007.375.029.537-.015v.015c-.007.022-.022.044-.029.058-.162.066-.236.155-.405.177v.029c.088 0 .133.015.177.051a.296.296 0 0 0-.074.066c.037.067.081.214.132.25.103.037.192.074.287.11-.007.008-.015.022-.015.03h-.066c.022.022.044.059.066.08.302.037.449.221.817.184.007.125.058.132.169.118.007-.221.375-.316.529-.39l.096.023c0 .073-.008.044.029.095-.037.051-.081.095-.125.147v.015c.103.007.25.088.243.183v.044c-.272-.007-.486.037-.677-.029-.029.044-.036.037-.081.059.103.007.147.022.192.073h-.03c-.25.074-1.103-.11-1.235.037-.081-.03-.14-.03-.154-.132-.023.014-.045.036-.067.058-.007-.022-.022-.036-.029-.051-.074.029-.051.051-.081.11-.243.015-.448.162-.669.147-.125-.007-.088-.059-.147-.14-.029 0-.066 0-.096-.007 0-.162.022-.169.096-.257a.271.271 0 0 0 .066-.029.638.638 0 0 1-.11.029c.007-.007.007-.022.015-.029.301-.052.61-.103.911-.147-.081-.015-.169-.037-.25-.052 0-.007.008-.022.015-.029.073-.015.14-.044.22-.051-.007-.023-.014-.03-.029-.037-.206.066-.669.117-.912.066-.051-.008-.213-.073-.25-.073.015.029.03.065.045.102-.324.081-.618.059-.927.081 0-.059.007-.044-.029-.088-.25.125-.412.132-.662.088-.096.088-.323.169-.426.294a.625.625 0 0 1 .058.103c-.066.014-.147.036-.22.051v.029c.169.023.125.162.154.25l.125.022c.088 0 .059-.007.096-.088a.244.244 0 0 1 .051.074c-.022.029-.051.058-.066.088-.184-.008-.279 0-.316-.096-.375.147-1.235-.169-1.515.052.236-.052.449.036.684.007.029.029.052.066.081.103-.309.029-.721-.059-1.007-.015a.055.055 0 0 1 .014.03c.052.029.03.007.052.058-.11.177-.449.492-.691.463v-.015c.022-.029.044-.051.059-.08-.111-.037-.14-.089-.214-.155.037.14-.014.206.089.309-.162.264-.537.389-.625.587-.059-.014-.052-.007-.081-.036.007-.015.014-.022.014-.03.059-.117.155-.147.243-.235-.044-.014-.088-.029-.14-.044.059-.294-.036-.301.147-.551a2.637 2.637 0 0 0-.22.199c-.008.073-.052.33-.008.367-.051.073-.161.228-.161.294.007.073-.037.044.014.08a.373.373 0 0 1 .096.03 4.595 4.595 0 0 1-.051.492v-.118a4.064 4.064 0 0 0-.309-.051v.015c.125.007.235.051.294.125-.03.044-.059.08-.088.117-.089 0-.331.051-.405.103v.015c.03.073.015.051.074.088-.008.007-.008.022-.015.029-.287.074-.787.015-.941.301-.588-.117-.471.155-.794.257-.684.206-1.368.412-1.441 1.271.029.22.066.448.103.668-.037.015-.067.022-.096.037 0 .294.103.632-.007.882-.088.183-.338.389-.331.587-.074-.015-.353.066-.434-.051.11-.257-.14-.257-.147-.5.022-.088.007-.125-.029-.176-.037.015-.022.022-.059.015.044-.074.044-.11.103-.191 0-.008-.008-.022-.015-.03a.155.155 0 0 1-.029.059l-.074-.022c-.022-.139-.066-.301-.037-.36l.177-.132c-.081-.007-.044.007-.074-.073-.014.007-.022.007-.036.014.022.074.029.066-.03.132-.015-.014-.029-.022-.037-.022-.036-.227.331-.374.199-.675-.088-.022-.243-.397-.309-.485-.169 0-.5.184-.618.095-.029-.029-.029-.154-.088-.213-.264-.279-.522-.139-.875-.183v-.206c-.014.022-.029.029-.044.037-.015.036-.037.073-.051.11-.25-.044-.53-.081-.772.073.007.022.014.03.029.045h.015l.117-.074c.008.095.023.088-.014.147-.088.015-.125.029-.169.081l.029.029c.052.059.103.103.154.154l-.066.074h-.014l-.045-.022c-.08-.044-.139-.14-.198-.206-.066.066-.074.125-.191.147-.008-.029-.015-.066-.03-.103a3.354 3.354 0 0 1-.22.088c-.044-.036-.096-.073-.147-.117a.175.175 0 0 0 .029-.044c.015-.008.022-.015.03-.022-.045-.059-.14-.147-.155-.206-.037.015-.081.022-.117.037 0 .022.007.037.014.051.037 0 .066.007.103.007v.059c-.015.008-.029.008-.044.008-.11-.059-.426-.184-.566-.199-.155-.014-.405.125-.471.066l-.058-.029.066-.066a.015.015 0 0 1-.015-.015c-.051.03-.096.044-.132.088.014.081.073.184-.074.147-.235.132-.441.243-.713.213.015.03.029.052.051.074-.022.029-.044.059-.066.081-.037-.008-.015.007-.088.044.022-.059.022-.037.015-.096-.015.03-.037.052-.052.088-.014.081-.184.155-.287.147.008.221-.183.272-.25.441-.073.191-.007.33-.044.477-.058.221-.257.191-.36.309-.103.264-.206.521-.316.793-.132.294-.368.639-.221.977-.036.059-.066.11-.103.162-.036.154.17 1.211.214 1.263.051.037.161.073.125.073-1.044.022-2.794.081-2.794.081-.044-.022-.074-.051-.111-.066-.007-.433-.485-.573-.264-1.109.073-.03.103-.022.154-.088-.037-.103-.037-.074.03-.177.286-.205.088-1.586-.059-1.792.022-.095.014-.132.073-.198-.081-.147-.169-.191-.191-.382.103-.14.184-.206.184-.411-.03 0-.052.007-.074.007l.044-.191c-.051-.015-.044-.007-.08-.037-.008-.169.044-.22.095-.33-.015-.007-.022-.022-.029-.029-.044.007-.022.029-.044-.008-.096-.088-.052-.382-.052-.477-.029.029-.059.066-.088.095-.015-.014-.029-.029-.044-.037a.533.533 0 0 1 .184-.198c-.044-.367.294-.778.205-1.05a.141.141 0 0 0-.051.044c-.022-.044-.044-.074-.059-.11-.389.294-.441 1.3-.544 1.77-.044.198.044.485.015.654-.052.257-.294.866-.257 1.109h.014a.464.464 0 0 1 .074-.096c.007.03.014.074.029.11-.029.368.037.338-.242.625-.008 0-.015-.008-.03-.008v-.014c.059-.478-.103-.654-.176-.963.242-.227.308-.587.183-.925-.044.029-.029.029-.073.029.015-.183-.074-.308-.044-.521.007 0 .007 0 .015-.007.08.029.102.007.176.007l.176-.309c.052-.183 0-.367-.022-.514-.022-.11.059-.316.081-.404.125-.411.39-.874.471-1.256.066-.257-.066-.264-.037-.477-.044 0-.088-.008-.132-.008 0-.036.279-.756.316-.837.059-.073.11-.132.169-.191.035-.089.087-.169.126-.256a32.95 32.95 0 0 0-6.273 7.946C31.52 7.193 41.718-.012 53.6-.012c11.881 0 22.086 7.212 26.454 17.488a30.725 30.725 0 0 0-2.067-3.212c.104.212.215.416.346.634zM50.289 1.869c.013.001.026-.003.039-.001l.002-.004-.041.005zM29.939 20.81c.037.03.059.081.059.133l.059 13.132c0 .103-.074.177-.162.177l-2.853.147h-.007c-.052 0-.088-.022-.125-.052a.174.174 0 0 1-.052-.125l-.073-13.14c0-.088.073-.161.162-.169l2.867-.147c.044 0 .096.015.125.044zm25.925 23.534h.03c-.008.015-.022.022-.03.03v-.03zm-.066.044h-.081c-.007-.007-.022-.014-.029-.029.014-.007.029-.022.051-.03.022.015.044.03.059.045v.014zm-8.272 9.358c-.08-.022-.154-.015-.191-.066.066.007.133.022.206.029-.007.015-.007.022-.015.037zm-3.632-3.401c.008-.007.008-.022.015-.029.007.007.007.022.015.029h-.03zm.169-.911c0 .015-.007.022-.014.022-.044-.022-.015.015-.044-.036h.058v.014zm-.316.661l.044.044h-.044v-.044zm-.022-.293h-.059c-.007-.015-.029-.03-.036-.044.066.007.066.007.095.029v.015zm-.25-1.851a.058.058 0 0 1-.029-.015c.007-.007.007-.022.014-.029l.03.029c-.007.007-.007.015-.015.015zM32.027 15.36c.052.022.044.008.052.081-.008.008-.008.008-.015.008a.393.393 0 0 1-.052-.059c.008-.008.008-.015.015-.03zm.721-2.159c.014-.081.036-.154.051-.227a.902.902 0 0 1 .044.022c-.022.073-.037.154-.059.227l-.022.008c-.007-.015-.007-.022-.014-.03zm5.632.125c-.023.007-.037.022-.067.029.008-.015.03-.029.037-.044.007.007.022.007.03.015zm4.455 7.08c.022-.066.081-.102.155-.102l2.58-.074c.067 0 .118.022.147.074.03.051.037.11.015.161l-5.75 13.317a.17.17 0 0 1-.147.095l-2.242.074h-.007c-.067 0-.125-.037-.155-.111l-5.602-12.971c-.03-.059-.03-.117.007-.161a.19.19 0 0 1 .14-.081l3.279-.096a.17.17 0 0 1 .162.103l3.654 8.476 3.764-8.704zm20.073 16.042c.007 0-.228 1.308-.272 1.506-.007.103-.015.213-.015.316-.176.551-.529.8-.963 1.08-.118.095-.243.183-.36.286-.103.015-.192.037-.287.059-.272.235-.537.47-.809.705-.184.125-.353.088-.544.198-.022.265-.198.39-.287.595-.081.191-.037.367-.11.573a2.05 2.05 0 0 1-.206.235c-.132.176-.198.36-.265.595-.433.154-.294.309-.5.654-.058.088-.154.081-.242.139-.206.14-.191.228-.485.382-.184.081-.192.375-.309.478-.191.08-.486-.015-.471.235-.051.022-.051.022-.081.059-.279-.133-.845-.25-1.139-.25v.044c.051.051.051.037 0 .081-.14-.044-.28.169-.427.205v.015c.022.007.044.007.066.015a.992.992 0 0 0-.029.117c-.066-.051-.125-.103-.191-.147-.287-.088-1.39.47-1.463.647-.081.22-.096.426-.133.573a.146.146 0 0 0 .059.014c-.11.412-.478.456-.764.676-.236.176-.368.478-.618.639-.206.088-.412.184-.618.272-.088.103-.169.213-.25.316-.117.051-.22.103-.338.147-.184.132-.243.279-.559.315-.125.015-.176-.073-.25-.11-.103-.051-.176.022-.272 0-.117-.022-.22-.205-.309-.272-.11-.021-.205-.044-.308-.066-.022-.088-.066-.11-.111-.176-.014.007-.029.015-.044.015-.022.029-.044.059-.066.081.132.22.412.249.478.528-.044.037-.081.081-.125.118.015.162.074.169.213.22v.221c-.095.073-.331.367-.397.396-.272.162-1.279.015-1.507-.073.015.029.022.059.037.088h-.015a.271.271 0 0 1-.066-.029c.059.154-.044.271-.125.389a.236.236 0 0 1 .059.059c.029-.008.051-.022.073-.03-.029.059-.051.11-.081.169-.125.015-.257.015-.375.022-.161-.044-.433-.338-.551-.191.044.118.044.301.096.397.102.037.102.073.161.11.037.015.074.022.103.037v-.022a.54.54 0 0 1-.073-.059 1.25 1.25 0 0 1 .169-.015c.014.015.022.03.037.044.036.052.044.088.044.191a.293.293 0 0 0-.044.052l-.133-.022a.339.339 0 0 0-.154-.169 3.6 3.6 0 0 0-.11.044c.014 0 .022.007.029.015.059.051.154.073.191.147-.162 0-.213.044-.279.139.029.088.059.176.051.272-.066.022-.081.014-.118.081.059.029.037 0 .052.058h-.066a.438.438 0 0 0-.434.074c-.088.374.294.426.551.595.015.103.015.205-.014.242-.081.088-.287.132-.39.206.007.11.029.205-.029.249l-.221.045c-.007.014-.007.022-.015.036.022.265.221.375.346.529v.03c-.074-.045-.154-.074-.228-.103-.022.007-.037.022-.051.029.007.007.014.015.029.015.088.11.213.103.316.205l-.044.067c.338.095.485.462.904.514 0 .022.008.037.008.051-.008.015-.015.022-.022.03h-.015c-.066-.008-.14-.015-.221-.03v.066a.249.249 0 0 0-.091-.054l.032.032c-.051-.019-.05-.003-.044-.035-.08-.023-.167-.015-.279-.06.037.044.066.081.103.117v.015c-.228-.059-.713-.235-.86-.382.022-.044.014 0 .014-.059-.139.03-.647-.308-.772-.418.022-.052.008-.008.022-.059-.132-.022-.213-.066-.323-.206.088.044.169.081.25.118v-.015a2.378 2.378 0 0 0-.265-.22c.008.014.022.036.03.058a.608.608 0 0 1-.236-.22c.008-.015.008-.022.015-.029.059.014.11.029.162.044a.271.271 0 0 1 .029-.066c-.066-.015-.059-.022-.095-.059a1.489 1.489 0 0 1-.192.059c0-.133-.014-.177-.073-.265 0-.007.007-.007.015-.015h.058c-.014-.036-.029-.073-.044-.117a1.706 1.706 0 0 0-.058.147c-.037-.008-.059-.022-.089-.03a5.027 5.027 0 0 0-.044-.191v-.014c.037.007.081.014.125.029l-.22-.11c-.103-.132-.125-.367-.206-.529.022-.014.051-.029.073-.044l-.044-.044v-.015c.088.008.103.022.162.059l.044-.154c-.029-.03-.022-.015-.044-.066.015 0 .037.014.059.022-.074-.081-.214-.103-.287-.162-.015.022-.044.037-.066.059l-.103-.059v-.066c.037-.037.081-.066.118-.095l-.045-.096v-.015h.111c.007-.08.007-.146.014-.22l-.132-.132a.587.587 0 0 1 .103-.287.414.414 0 0 1 .213.177c-.036.022.03.264.052.345h.029c.007-.287-.044-.478 0-.742-.029-.022-.051-.044-.088-.066.103-.037.066-.213-.015-.272.015-.022.037-.037.052-.066-.037-.029-.059-.066-.089-.095a.238.238 0 0 1-.029.066c.066.007.022-.008.037.066h-.022c-.03-.015-.067-.037-.103-.052-.008.008-.022.022-.03.037.081.125.096.323.066.492a.096.096 0 0 1-.051.015c-.088-.037-.147-.044-.198-.11.036-.184-.045-.345.007-.5.022.022.051.037.073.052v-.066c-.25-.382-.051-.478-.036-.808-.118-.25-.258-.566-.287-.852 0-.008.007-.015.015-.015l.132.044v-.213c.022.015.037.022.051.044.03-.411.184-.749.317-1.102.022-.051-.037-.213-.059-.22.161-.397-.103-.683-.059-1.212.066 0 .044 0 .103-.015.015-.242-.059-.352-.081-.58.147-.103.059-.279.147-.448.081-.169.14-.419.162-.698-.008-.051-.022-.117-.03-.169.015-.081.103-.103.118-.154-.015-.147-.029-.286-.051-.426.022-.14.036-.279.058-.419h-.073c0-.073.007-.154.007-.227.081.007.044.022.11 0 0-.272.096-.492.133-.705-.015-.067-.03-.133-.044-.214-.015-.102.022-.235.036-.337.037-.221-.058-.515-.08-.727.007-.067.014-.147.022-.214-.155-.154-.309-.301-.464-.455-.323-.676-1.154-.955-1.669-1.476-.242-.25-.411-.683-.602-.992 0 0 9.036-.147 21.219-.125zM58.9 9.433v.044c-.022.022-.058.037-.08.051h-.045c0-.014.008-.029.015-.051.015-.015.037-.029.059-.044h.051zm-1.014-.029a.06.06 0 0 1-.03.029c-.007-.015-.022-.037-.029-.059.022.015.044.022.059.03zm-.029.095a.103.103 0 0 1-.044-.014c0-.008.007-.022.014-.03.022.015.044.022.059.03-.007.007-.015.014-.029.014zm.066.008c-.008.014-.03.022-.037.029v-.029h.037zm-10.426 2.46a.2.2 0 0 1 .037.03h-.052c.007-.008.007-.022.015-.03zm2.647-1.968h-.015L50.1 9.97c.044.021.022 0 .044.029zm.61-.067c.059.022.044.015.074.059v.015c-.052 0-.103-.008-.155-.015v-.029c.03-.008.052-.022.081-.03zm.191.14c.007-.007.007-.022.015-.029.059.007.059.007.095.029-.007.015-.014.022-.022.03h-.014l-.074-.03zm1-.992l.044.044c-.007.015-.022.022-.029.03-.03-.037-.022-.022-.015-.074zm.125.059l-.029.03v-.03h.029zm.882-.08h.044c-.022.058-.014.044-.058.073-.015-.007-.022-.007-.03-.015.015-.022.03-.036.044-.058zm5.426 11.318l.015 2.563c.007.045-.022.081-.051.118a.17.17 0 0 1-.118.044l-7.352.007.007 2.285 4.941-.008c.095 0 .176.074.176.162l.008 2.585c.007.045-.015.089-.052.125a.17.17 0 0 1-.118.052h-4.933l.015 2.468 7.426-.008c.095 0 .169.074.169.169l.014 2.578c0 .052-.014.096-.051.125-.029.03-.074.044-.125.044l-10.61.015a.17.17 0 0 1-.169-.169l-.081-13.14c0-.044.022-.088.059-.125a.148.148 0 0 1 .118-.052l10.543-.014c.096 0 .169.081.169.176zM56.731 8.493h.096c.022.029.052.059.074.088a2.592 2.592 0 0 1-.214-.029c.008-.022.008-.037.015-.052.015 0 .022-.007.029-.007zm1.714-.426c-.007.014-.022.022-.03.029v-.029h.03zm.029.095c-.007 0-.014.008-.029.008l-.044-.044a.649.649 0 0 1 .073.022v.014zm.096-.433h.029c-.022.059.007.022-.044.044.007-.007.007-.029.015-.044zm.455.999c-.036 0-.08-.007-.117-.007 0-.022.007-.037.014-.059.089.007.081-.007.103.066zm.133.331c-.015.007-.03.007-.044.014.007-.014.007-.029.014-.044l.03.03zm.36.521c.008.044.008.081.015.132-.103.066-.132.184-.257.25-.081-.022-.147-.044-.236-.066 0-.103.015-.125.044-.177l-.213.066c-.058-.036-.051-.022-.073-.08.088-.059.162-.096.169-.228-.022-.022-.044-.059-.066-.088-.294.095-.559.25-.897.117a.382.382 0 0 0 .022-.066.982.982 0 0 0 .492-.066 1.845 1.845 0 0 0-.213-.081c-.007.052 0 .044-.029.074-.103-.044-.213-.081-.316-.125.022 0 .044.007.066.007-.088-.095-1.155-.308-1.419-.374a1.11 1.11 0 0 1-.03-.162c.155-.022.317-.095.449-.073a1.117 1.117 0 0 1-.096-.081c.059-.066.103-.14.206-.162.037.03.015.022.081.037v-.015c-.022-.066-.029-.051 0-.11.228-.051.294-.264.463-.352.088-.045.258-.14.324-.155.088 0 .191 0 .279-.007.088.029.177.051.257.073a.113.113 0 0 0-.014.044c-.015.008-.022.023-.03.03-.088.007-.147-.015-.228-.037v.03c.081.007.081.014.133.051a.28.28 0 0 0-.066.081c-.155.036-.442.169-.486.33.103-.036.191-.073.287-.11.103.081.206.081.309.147v.015c-.074.007-.132.007-.191.007v.073a.63.63 0 0 0 .029.03c.059-.015.015-.03.074 0-.008.015-.022.029-.03.044.074 0 .103.022.162.051.015-.044-.015-.029.059-.036-.008.08-.037.08.051.073.037 0 .066.007.096.007-.03-.036-.022-.022-.015-.066.052.022.008.008.052-.007.095.037.044.073.103.147.147-.03.316.066.419.154-.052.059-.089.074-.177.088.015.125.052.059.007.155.126.014.295 0 .361.066l-.03.029c-.044.044-.279.103-.389.206.037.029.007.007.044.014.014.022.022.037.037.059.11-.081.147-.125.353-.139 0 .007.007.007.014.014a.06.06 0 0 0-.014.037c-.081.029-.14.066-.177.132 0 .015.007.037.015.059.132-.022.147-.088.22-.066zm10.308.073c-.029.008-.059.008-.081.022-.014-.022-.014-.036-.022-.051.008-.029.03-.059.037-.088.029.022.052.051.081.073-.007.015-.015.03-.015.044zm-1.367-1.542c.007.051.022.103.037.154a.677.677 0 0 0-.111.096.117.117 0 0 0-.051-.03c-.007-.051-.029-.073-.081-.125a.871.871 0 0 0 .125-.11c.03.007.051.007.081.015zm-.03.514c-.015.008-.029.008-.044.015v-.029h.044v.014zm-.11-.264c.022.007.044.022.066.029.015.073.03.139.052.198a.144.144 0 0 1-.052-.014.593.593 0 0 0-.132-.184.536.536 0 0 0 .066-.029zm.404.411h-.014l-.015-.015v-.014l.015-.015h.029a.096.096 0 0 1-.015.044zm-.081 0c.03.03.015 0 .03.044h-.03v-.044zm.074-.125c-.015-.022-.029-.036-.044-.058.022.007.044.022.059.029a.058.058 0 0 1-.015.029zm.184.287l.015-.015.029.029c0 .007-.007.007-.014.015-.008-.008-.023-.008-.03-.015v-.014zm.132-.03c.052.059.03.169-.015.213-.066-.044-.088-.014-.117-.11.081-.022.088-.044.132-.103zm-.426.691c0-.067.029-.045.059-.133-.074.022-.133.037-.191-.022.058-.066.051-.066.066-.169a.403.403 0 0 0 .235-.088c.052.015.096.037.14.059-.022.044-.022.029-.03.066.089-.081.192-.103.302-.037.103.14.198.14.316.25v.074c-.074.036-.066.08-.162.11a.08.08 0 0 0 .015.036c.206.103.294.427.309.632-.294-.007-.963.588-1.155.125.045-.022.081-.051.118-.074a1.997 1.997 0 0 0-.184.037c.015-.037.022-.058.037-.088.044 0 .088.007.125.007-.015-.08-.022-.036.022-.11-.066-.044-.073-.022 0-.095 0-.103-.037-.103.074-.177-.192-.058-.295.045-.412-.117l.103-.118c-.088 0-.147.008-.206-.051l.044-.022c-.037-.059-.052 0-.059-.088.147 0 .287-.007.434-.007zm2.779 1.388c-.015 0-.522-.044-.522-.044-.044.037-.022.132-.03.184-.08-.022-.176-.066-.257-.044-.117.029-.088.08-.14.146-.08-.058-.088-.044-.169-.051v-.029c.118-.111.221-.272.214-.419h.316c0-.059-.008-.051.015-.103-.037.015-.081.037-.133.059-.176-.059-.331-.169-.507-.081a2.773 2.773 0 0 1-.155-.139c.015-.015.037-.03.052-.052.095-.007.184-.051.206-.147-.044-.058-.096-.117-.133-.169l-.125.044c-.007-.007-.014-.014-.014-.029.014-.022.036-.044.059-.074-.059-.058-.096-.036-.118-.139.132.022.257.095.382 0-.044-.081-.073-.125-.081-.257-.257.044-.206-.169-.323-.301-.074.059-.11.088-.221.044v.059c-.051-.015-.095-.037-.139-.052v.015c.007.015.022.037.029.059h-.015c-.044-.044-.103-.081-.147-.118.03-.095.03-.161 0-.228-.044-.029-.088-.066-.125-.095l.044.154h-.014a.672.672 0 0 0-.103-.059c.022.022.029.052.044.074a.051.051 0 0 0-.015.029h-.073c-.045-.176-.133-.301-.162-.47h-.015v.03c0 .029-.015.058-.022.08l-.154.022c.014-.095-.008-.095-.044-.176.022-.015.051-.029.073-.044-.007-.015-.015-.037-.029-.059a.613.613 0 0 1-.339-.154c.045-.059.037-.029.067-.088.066.051.132.095.205.147v-.015a1.591 1.591 0 0 1-.095-.147c.029-.051.007-.044.059-.037.007-.007.029-.007.036-.014-.051-.059-.066-.066-.036-.132-.03-.052-.037-.059 0-.111.154.059.316-.022.478.015a.27.27 0 0 0 .036.11.218.218 0 0 0-.117.147c.081.037.051 0 .051.096.191-.044.449-.074.596.058-.022.125.044.221-.015.353.029.015.052.037.081.059a2.844 2.844 0 0 1-.132.081c.397.007.522.198.772.44.095.044.183.081.286.132.25.147.397.382.5.588.015 0 .03.007.044.015.177-.199.456.11.493.264.022.103-.059.206-.088.265l.22.022c.008.029.022.066.03.095-.008.007-.008.022-.015.03-.191.095-.309.102-.551.088.007.029.022.051.036.073h-.051zm1.912 23.034a.172.172 0 0 1-.147.081h-.008l-3.411-.096a.181.181 0 0 1-.14-.088l-2.89-4.965-1.867-.059.022 4.789a.17.17 0 0 1-.052.117c-.029.03-.08.044-.124.044l-2.875-.08a.166.166 0 0 1-.169-.169l-.059-13.185c0-.044.014-.095.051-.124.03-.03.074-.052.118-.045l7.242.213c2.404.074 3.787 1.602 3.801 4.194.015 2.505-1.323 3.548-2.536 3.982l3.044 5.214a.19.19 0 0 1 0 .177zM67.856 23.33l-3.066-.096.014 2.769 2.339.066c.103 0 .205.008.301.008.868 0 1.368-.125 1.64-.404.22-.213.316-.558.316-1.117-.008-.624-.125-1.182-1.544-1.226zM53.563 55.648c12.734 0 23.565-7.639 27.439-18.245-3.72 11.377-14.197 20.236-27.469 20.236-14.072 0-23.528-8.734-27.336-19.986 3.963 10.481 14.712 17.995 27.366 17.995zM23.711 34.553l-2.205.162a.185.185 0 0 1-.155-.074l-6.095-8.065.044 8.403a.17.17 0 0 1-.162.169l-2.147.154h-.022a.148.148 0 0 1-.11-.044.16.16 0 0 1-.059-.132l-.066-13.177c0-.096.074-.169.162-.176l2.662-.184c.058 0 .117.022.154.066l5.639 7.441-.036-7.742c0-.088.066-.162.161-.169l2.155-.154c.044 0 .088.014.125.044.036.029.051.073.051.125l.066 13.184a.164.164 0 0 1-.162.169zM5.176 36.404c-.257.022-.5.037-.735.037-2.868 0-4.39-1.829-4.404-5.311L0 23.146a.18.18 0 0 1 .154-.176l2.493-.243c.051-.007.095.015.132.052a.144.144 0 0 1 .052.117l.044 7.904c.007 1.733.669 2.615 1.97 2.615.096 0 .206 0 .309-.015 1.522-.147 2.301-1.183 2.287-3.078l-.037-7.896a.18.18 0 0 1 .154-.176l2.507-.242c.052-.008.096.014.133.051a.144.144 0 0 1 .051.118l.037 7.991c.015 2.145-.632 5.803-5.11 6.236z" class="cls-1"/></svg>