<svg xmlns="http://www.w3.org/2000/svg" width="84" height="76" viewBox="0 0 84 76">
    <defs>
        <filter id="a" width="104.3%" height="113.3%" x="-2.1%" y="-5.8%" filterUnits="objectBoundingBox">
            <feOffset dy="3" in="SourceAlpha" result="shadowOffsetOuter1"/>
            <feGaussianBlur in="shadowOffsetOuter1" result="shadowBlurOuter1" stdDeviation="7.5"/>
            <feColorMatrix in="shadowBlurOuter1" result="shadowMatrixOuter1" values="0 0 0 0 0 0 0 0 0 0 0 0 0 0 0 0 0 0 0.03 0"/>
            <feMerge>
                <feMergeNode in="shadowMatrixOuter1"/>
                <feMergeNode in="SourceGraphic"/>
            </feMerge>
        </filter>
    </defs>
    <g fill="none" fill-rule="evenodd" filter="url(#a)" transform="translate(-379 -221)">
        <path stroke="#323232" d="M437.435 264.846h2.348c4.538 0 8.217-3.696 8.217-8.256 0-4.56-3.679-8.257-8.217-8.257-.873 0-1.712.138-2.5.392a8.35 8.35 0 0 0 .152-1.572c0-4.56-3.68-8.257-8.218-8.257a8.158 8.158 0 0 0-5.367 2.014c-1.6-4.603-5.948-7.91-11.074-7.91-6.484 0-11.74 5.282-11.74 11.797 0 1.245.193 2.442.549 3.568-4.242.326-7.585 3.88-7.585 8.225 0 4.558 3.679 8.256 8.217 8.256h2.348M401.583 248.358a8.157 8.157 0 0 1 4.974 1.22M423.87 240.902c.3.862.504 1.77.597 2.71M437.286 248.726a8.255 8.255 0 0 1-1.025 2.683"/>
        <path stroke="#1476F2" stroke-linejoin="round" d="M434.937 261.436l-1.86-4.51-2.73.915a11.588 11.588 0 0 0-2.705-2.714l.91-2.747-4.488-1.868-1.289 2.589a11.516 11.516 0 0 0-3.822-.003l-1.288-2.585-4.488 1.867.909 2.743a11.593 11.593 0 0 0-2.702 2.72l-2.734-.916-1.858 4.509 2.577 1.295a11.686 11.686 0 0 0-.002 3.842l-2.575 1.294 1.86 4.509 2.73-.913a11.605 11.605 0 0 0 2.705 2.713l-.91 2.747 4.488 1.868 1.289-2.589c1.248.21 2.537.218 3.822.002l1.288 2.587 4.488-1.868-.909-2.744a11.593 11.593 0 0 0 2.701-2.719l2.733.916 1.86-4.51-2.577-1.294c.209-1.255.217-2.55.002-3.842l2.575-1.294z"/>
        <path stroke="#1476F2" stroke-linejoin="round" d="M425.696 264.847c0 2.605-2.103 4.717-4.696 4.717-2.593 0-4.696-2.112-4.696-4.717 0-2.606 2.103-4.718 4.696-4.718 2.593 0 4.696 2.112 4.696 4.718z"/>
    </g>
</svg>
